<svg width="269" height="224" viewBox="0 0 269 224" fill="none" xmlns="http://www.w3.org/2000/svg">
<path d="M21 0H236L208.5 222.5H44.5L21 0Z" fill="#BEDFC6"/>
<g clip-path="url(#clip0)">
<path d="M69.2991 60.0413L66.271 59.9178C66.3083 59.0227 67.3096 37.8265 80.3706 25.1604L82.4765 27.3497C70.2785 39.178 69.3057 59.834 69.2991 60.0413Z" fill="#00B37B"/>
<path d="M157.736 60.0413L160.764 59.9178C160.726 59.0227 159.725 37.8265 146.664 25.1604L144.558 27.3497C156.756 39.178 157.729 59.834 157.736 60.0413Z" fill="#00B37B"/>
<path d="M150.535 31.4395C149.468 32.6234 147.667 32.3544 146.444 30.9699C128.091 10.1308 99.4024 10.1308 81.0515 30.9699C79.8284 32.3544 78.0278 32.6256 76.9606 31.4395C75.8956 30.2577 76.0889 27.9075 77.4723 26.34C97.8345 3.21904 129.664 3.21904 150.024 26.34C151.407 27.9075 151.602 30.2577 150.535 31.4395Z" fill="#00B37B"/>
<path d="M161.415 45.5188C161.892 45.3799 162.292 45.574 162.557 45.9951L166.982 52.7966C168.273 54.8382 169.083 57.2083 169.083 59.6269V65.8133C169.083 65.8133 175.047 70.4631 175.047 77.2227C175.047 83.9846 170.915 93.1122 165.697 94.6334C165.416 95.2573 165.135 95.7755 164.94 96.2076C164.367 97.4709 163.223 98.194 161.859 97.9669L160.838 97.7619V46.5947C160.836 46.0965 160.939 45.6577 161.415 45.5188Z" fill="#007A54"/>
<path d="M160.836 59.5872C160.836 56.5072 158.348 54.0093 155.28 54.0093H155.052C151.984 54.0093 149.497 56.5072 149.497 59.5872V98.1169C149.497 101.197 151.984 103.695 155.052 103.695H155.28C158.348 103.695 160.836 101.197 160.836 98.1169V59.5872Z" fill="#00B37B"/>
<path d="M105.125 120.327C104.268 120.307 83.9301 119.727 65.9481 112.355C58.1704 109.165 52.6148 102.389 49.8788 92.7571C47.8454 85.5983 48.076 79.445 48.0848 79.187L51.1129 79.3127L49.5999 79.2487L51.1151 79.3105C51.1129 79.37 50.8999 85.3029 52.8169 92.0009C55.3289 100.78 60.1335 106.68 67.0944 109.535C84.5471 116.692 104.995 117.278 105.199 117.282L105.125 120.327Z" fill="#007A54"/>
<path d="M124.064 118.768C124.064 120.925 122.323 122.673 120.175 122.673H108.023C105.876 122.673 104.134 120.925 104.134 118.768V118.299C104.134 116.143 105.876 114.394 108.023 114.394H120.175C122.323 114.394 124.064 116.143 124.064 118.299V118.768Z" fill="#00B37B"/>
<path d="M59.1104 79.8155C59.1104 81.9518 57.3866 83.6825 55.2588 83.6825H49.2158C47.088 83.6825 45.3643 81.9518 45.3643 79.8155V79.2687C45.3643 77.1323 47.088 75.4016 49.2158 75.4016H55.2588C57.3866 75.4016 59.1104 77.1323 59.1104 79.2687V79.8155Z" fill="#00B37B"/>
<path d="M65.6187 46.0259C65.1422 45.887 64.6789 46.081 64.4132 46.5021L60.0852 53.3037C58.794 55.3453 58.0781 57.7153 58.0781 60.1339V66.3204C58.0781 66.3204 51.9868 70.9701 51.9868 77.7298C51.9868 84.4917 56.0536 93.6192 61.2731 95.1405C61.5542 95.7644 61.8045 96.2825 62 96.7147C62.5731 97.978 63.8291 98.7011 65.1928 98.474L66.3258 98.269V47.1018C66.328 46.6036 66.0952 46.1648 65.6187 46.0259Z" fill="#007A54"/>
<path d="M77.6676 98.8069C77.6676 101.887 75.1797 104.385 72.112 104.385H71.8837C68.816 104.385 66.3281 101.887 66.3281 98.8069V60.2772C66.3281 57.1972 68.816 54.6992 71.8837 54.6992H72.112C75.1797 54.6992 77.6676 57.1972 77.6676 60.2772V98.8069Z" fill="#00B37B"/>
<path d="M113.357 164.902L87.1714 167.546L74.9009 168.783L62.0331 128.491C61.2646 126.075 61.9958 123.431 63.8952 121.756L65.7617 120.116C66.2229 119.714 66.7345 119.381 67.2835 119.126C67.7336 118.916 68.2013 118.762 68.6888 118.671C68.7305 118.658 68.7503 118.654 68.7503 118.654C68.7679 118.649 68.7788 118.484 68.7964 118.48C69.1697 118.409 69.5496 118.211 69.9361 118.211H95.4059C98.2386 118.211 100.729 120.263 101.506 122.997L113.357 164.902Z" fill="#00B37B"/>
<path d="M87.1736 167.546L74.9031 168.783L62.0331 128.491C61.2646 126.075 61.9958 123.431 63.8952 121.756L65.7617 120.116C66.2229 119.714 66.7345 119.381 67.2835 119.126C68.0037 118.879 68.5175 118.724 68.6888 118.671C68.7305 118.658 68.7503 118.654 68.7503 118.654C68.7679 118.649 68.7788 118.649 68.7964 118.645C75.4521 117.624 85.3884 159.741 87.1736 167.546Z" fill="#007A54"/>
<path d="M104.991 107.888C104.576 107.888 104.198 107.639 104.036 107.251L102.538 103.675C100.742 103.34 99.0073 102.749 97.3714 101.913L94.0139 103.84C93.6296 104.061 93.1487 104.012 92.8172 103.719L88.9898 100.35C88.6582 100.059 88.5462 99.5851 88.7131 99.1751L90.1755 95.5792C89.1391 94.0601 88.3266 92.4132 87.7601 90.6693L84.0315 89.6485C83.6055 89.5316 83.3003 89.1546 83.2696 88.7137L82.9358 83.6164C82.9072 83.1732 83.1598 82.7609 83.5682 82.5889L87.1321 81.0853C87.4658 79.2819 88.0543 77.5401 88.8866 75.8998L86.9674 72.5288C86.7478 72.143 86.7961 71.6602 87.0882 71.3272L90.4412 67.4844C90.7333 67.1515 91.2032 67.0391 91.6116 67.2066L95.1931 68.675C96.7039 67.6343 98.3464 66.8186 100.083 66.2498L101.1 62.5061C101.216 62.0784 101.59 61.772 102.031 61.7411L107.11 61.406C107.551 61.3773 107.962 61.6331 108.133 62.041L109.631 65.617C111.427 65.9521 113.162 66.543 114.798 67.3786L118.155 65.4517C118.54 65.2312 119.018 65.2797 119.352 65.5729L123.179 68.9417C123.511 69.235 123.623 69.7068 123.456 70.1168L121.994 73.7127C123.03 75.2296 123.843 76.8787 124.409 78.6227L128.138 79.6434C128.564 79.7603 128.869 80.1351 128.9 80.5782L129.233 85.6756C129.262 86.1165 129.009 86.531 128.601 86.703L125.037 88.2066C124.703 90.01 124.115 91.7518 123.285 93.3921L125.204 96.7631C125.424 97.1489 125.375 97.6318 125.083 97.9647L121.73 101.808C121.438 102.14 120.968 102.253 120.56 102.085L116.978 100.617C115.468 101.658 113.825 102.473 112.088 103.042L111.071 106.786C110.955 107.213 110.582 107.52 110.14 107.551L105.061 107.886C105.037 107.888 105.013 107.888 104.991 107.888ZM97.345 100.339L97.6788 100.518C99.3938 101.435 101.23 102.061 103.138 102.379L103.511 102.44L105.206 106.493L109.802 106.188L110.955 101.949L111.317 101.838C113.168 101.272 114.905 100.41 116.486 99.2743L116.796 99.0516L120.852 100.714L123.886 97.2371L121.713 93.4185L121.89 93.0834C122.804 91.3615 123.428 89.5184 123.744 87.6025L123.805 87.2277L127.841 85.5256L127.538 80.9112L123.316 79.7537L123.206 79.3899C122.641 77.5313 121.783 75.7874 120.652 74.2L120.43 73.8891L122.086 69.817L118.623 66.7701L114.82 68.9528L114.486 68.7742C112.771 67.857 110.935 67.2309 109.027 66.9134L108.654 66.8517L106.959 62.7994L102.363 63.1036L101.21 67.3433L100.847 67.4535C98.9963 68.0202 97.2594 68.8822 95.6784 70.0176L95.3688 70.2403L91.313 68.578L88.2783 72.0548L90.4522 75.8734L90.2744 76.2085C89.3609 77.9304 88.7373 79.7735 88.4211 81.6894L88.3596 82.0642L84.3236 83.7663L84.6266 88.3807L88.8492 89.536L88.959 89.8998C89.5234 91.7584 90.382 93.5023 91.5128 95.0897L91.7346 95.4006L90.0789 99.4727L93.544 102.522L97.345 100.339ZM106.137 97.5766C105.5 97.5766 104.866 97.5303 104.242 97.4377C103.867 97.3826 103.608 97.0321 103.663 96.6551C103.717 96.2781 104.067 96.0179 104.442 96.073C105.252 96.1921 106.085 96.2274 106.908 96.1722C113.285 95.7511 118.133 90.1974 117.712 83.7949C117.29 77.3924 111.763 72.5266 105.384 72.9477C99.0073 73.3688 94.1588 78.9225 94.5805 85.3272C94.7188 87.4327 95.4215 89.4567 96.6116 91.1807C96.8268 91.4938 96.75 91.9237 96.4382 92.142C96.1263 92.3603 95.6981 92.2809 95.4808 91.9678C94.1479 90.0387 93.3639 87.7722 93.208 85.4176C92.9797 81.9474 94.1127 78.5962 96.3942 75.9814C98.6779 73.3666 101.838 71.799 105.294 71.572C112.426 71.1001 118.614 76.5436 119.084 83.7067C119.554 90.8699 114.132 97.0806 106.998 97.5524C106.713 97.5678 106.425 97.5766 106.137 97.5766Z" fill="#0BB7A2"/>
<path d="M106.078 89.8756C105.266 89.8756 104.46 89.6815 103.715 89.3001C102.477 88.6652 101.559 87.5827 101.131 86.2554C100.246 83.5127 101.75 80.5606 104.479 79.6721C105.801 79.2422 107.213 79.3546 108.452 79.9896C109.69 80.6246 110.608 81.7071 111.036 83.0343C111.921 85.777 110.417 88.7291 107.688 89.6176C107.158 89.7896 106.618 89.8756 106.078 89.8756ZM106.089 80.7965C105.692 80.7965 105.294 80.8583 104.905 80.9861C102.896 81.6387 101.789 83.8126 102.439 85.8299C102.756 86.8066 103.43 87.6025 104.341 88.0699C105.252 88.5373 106.291 88.6211 107.264 88.3036C109.273 87.651 110.38 85.4772 109.73 83.4598C109.414 82.4831 108.739 81.6872 107.828 81.2198C107.279 80.9398 106.686 80.7965 106.089 80.7965Z" fill="#0BB7A2"/>
<path d="M131.043 63.2404C130.843 63.2404 130.65 63.1522 130.518 62.9935L129.394 61.6332C128.568 61.717 127.738 61.6883 126.917 61.5516L125.707 62.837C125.507 63.0486 125.193 63.1103 124.927 62.9913L122.699 61.9793C122.433 61.8603 122.273 61.5825 122.299 61.2914L122.461 59.5299C121.818 59.0007 121.247 58.3922 120.766 57.7154L119.007 57.7661C118.722 57.7749 118.452 57.5963 118.349 57.3229L117.486 55.0234C117.382 54.75 117.464 54.4414 117.688 54.254L119.043 53.1252C118.959 52.2962 118.988 51.4628 119.124 50.6382L117.844 49.4234C117.631 49.2228 117.569 48.9075 117.69 48.6408L118.698 46.403C118.819 46.1362 119.095 45.9753 119.383 46.0017L121.137 46.1649C121.664 45.5189 122.27 44.9456 122.945 44.4628L122.894 42.6968C122.885 42.4036 123.063 42.139 123.335 42.0354L125.626 41.169C125.898 41.0653 126.205 41.1469 126.392 41.3718L127.516 42.7321C128.342 42.6483 129.172 42.677 129.993 42.8137L131.203 41.5283C131.403 41.3145 131.717 41.2527 131.983 41.374L134.212 42.386C134.477 42.5072 134.638 42.7828 134.611 43.0738L134.449 44.8354C135.092 45.3645 135.661 45.973 136.144 46.6499L137.903 46.5992C138.197 46.5904 138.458 46.769 138.562 47.0423L139.425 49.3419C139.528 49.6152 139.447 49.9261 139.22 50.1135L137.868 51.2401C137.951 52.0691 137.923 52.9025 137.786 53.727L139.067 54.9419C139.28 55.1425 139.341 55.4578 139.22 55.7245L138.212 57.9623C138.092 58.2291 137.817 58.3922 137.527 58.3636L135.773 58.2004C135.246 58.8464 134.64 59.4196 133.966 59.9025L134.016 61.6685C134.025 61.9617 133.847 62.2262 133.575 62.3299L131.284 63.1963C131.203 63.225 131.122 63.2404 131.043 63.2404ZM129.826 60.5352L131.153 62.1381L132.98 61.448L132.92 59.3645L133.158 59.2058C133.913 58.6965 134.578 58.0704 135.136 57.3428L135.31 57.1157L137.378 57.3097L138.182 55.5239L136.671 54.093L136.726 53.813C136.904 52.9113 136.932 51.9963 136.814 51.0902L136.776 50.808L138.373 49.4763L137.685 47.642L135.61 47.7015L135.452 47.4634C134.945 46.705 134.321 46.037 133.597 45.477L133.371 45.3028L133.564 43.226L131.785 42.419L130.36 43.9359L130.081 43.8808C129.185 43.7022 128.272 43.6735 127.369 43.7926L127.088 43.8301L125.762 42.2272L123.935 42.9173L123.994 45.0008L123.757 45.1595C123.002 45.6688 122.336 46.2949 121.779 47.0225L121.605 47.2496L119.537 47.0556L118.733 48.8414L120.244 50.2723L120.189 50.5523C120.011 51.454 119.982 52.3689 120.101 53.2751L120.138 53.5573L118.54 54.8889L119.227 56.7233L121.302 56.6637L121.46 56.9018C121.967 57.6603 122.591 58.3283 123.316 58.8883L123.542 59.0625L123.349 61.1393L125.127 61.9462L126.552 60.4294L126.831 60.4845C127.727 60.6631 128.641 60.6918 129.543 60.5727L129.826 60.5352ZM125.351 62.0477C125.353 62.0477 125.353 62.0477 125.351 62.0477V62.0477ZM132.984 61.6971C132.984 61.6971 132.984 61.6993 132.984 61.6971V61.6971ZM118.979 56.7299C118.979 56.7299 118.977 56.7299 118.979 56.7299V56.7299ZM118.45 54.6552C118.45 54.6574 118.45 54.6574 118.45 54.6552V54.6552ZM138.458 49.7078C138.458 49.7078 138.458 49.71 138.458 49.7078V49.7078ZM129.339 58.5179C129.089 58.5179 128.867 58.3327 128.83 58.077C128.788 57.7948 128.981 57.5302 129.262 57.4883C129.638 57.431 130.013 57.334 130.373 57.1973C133.153 56.1456 134.563 53.0171 133.515 50.2237C132.466 47.4304 129.35 46.0171 126.57 47.0688C123.79 48.1226 122.38 51.2489 123.428 54.0423C123.772 54.9595 124.357 55.7664 125.118 56.3727C125.342 56.5513 125.38 56.8754 125.202 57.1003C125.024 57.3252 124.701 57.3626 124.477 57.1841C123.57 56.4609 122.872 55.5019 122.461 54.4083C121.212 51.0814 122.892 47.3554 126.205 46.1009C127.811 45.4924 129.554 45.5497 131.118 46.2597C132.681 46.9696 133.873 48.2483 134.479 49.86C135.086 51.4716 135.028 53.2222 134.321 54.7919C133.614 56.3617 132.341 57.5589 130.736 58.1674C130.307 58.3305 129.862 58.4452 129.414 58.5135C129.389 58.5157 129.363 58.5179 129.339 58.5179Z" fill="#0BB7A2"/>
<path d="M120.535 215.518L119.101 220.565C118.884 221.326 119.189 222.163 119.879 222.549C120.223 222.743 120.689 222.913 121.321 223.019C122.211 223.171 123.096 222.712 123.473 221.89L125.302 217.919L120.535 215.518Z" fill="url(#paint0_linear)"/>
<path d="M101.484 171.876C101.484 171.876 123.116 174.416 132.775 182.43C142.435 190.444 126.304 218.616 126.304 218.616C126.304 218.616 123.414 218.759 119.749 215.94C119.749 215.94 129.075 194.909 119.741 189.443C109.244 183.299 97.4922 182.437 97.4922 182.437L101.313 172.542L101.484 171.876Z" fill="url(#paint1_linear)"/>
<path d="M80.5049 166.562C80.5049 166.562 76.4491 179.601 81.4205 183.224C86.392 186.844 97.9861 190.59 100.946 198.187C103.908 205.785 106.794 216.949 112.846 221.956C112.846 221.956 118.845 223.658 120.27 221.956C120.27 221.956 116.025 201.002 113.546 195.361C111.398 190.475 108.241 183.429 102.731 179.698C101.155 178.631 101.317 176.79 101.921 174.98L103.021 171.682L80.5049 166.562Z" fill="url(#paint2_linear)"/>
<path d="M129.582 153.795C121.631 154.721 123.412 141.784 123.528 141.268L111.89 150.528C111.89 150.528 112.907 157.336 123.172 160.367C125.77 161.135 128.1 161.044 130.133 160.486C129.115 157.966 129.167 155.651 129.582 153.795Z" fill="#00BCAA"/>
<path d="M144.797 149.088C141.71 147.176 138.456 149.441 138.456 149.441C134.624 152.272 131.745 153.546 129.582 153.797C129.167 155.651 129.117 157.969 130.136 160.489C134.536 159.28 137.544 155.867 138.838 154.13C139.303 153.504 140.18 153.352 140.816 153.802C141.462 154.258 142.101 154.897 142.031 155.609C141.892 157.016 143.528 157.371 143.623 156.857C143.717 156.344 142.878 153.383 142.878 153.383C142.878 153.383 146.282 156.46 147.61 157.64C148.939 158.822 150.452 157.481 150.452 157.481C150.452 157.481 147.885 150.999 144.797 149.088Z" fill="url(#paint3_linear)"/>
<path d="M90.5858 123.271C90.5858 123.271 101.936 117.96 124.523 134.669C124.523 134.669 126.534 138.318 124.749 141.766C122.964 145.212 105.103 162.517 103.023 171.68C103.023 171.68 92.0505 175.946 80.0193 167.941C80.0171 167.941 79.657 142.782 90.5858 123.271Z" fill="#00A59D"/>
<path d="M113.302 117.834L107.971 125.105C107.441 125.826 107.369 126.794 107.806 127.576C108.689 129.157 110.7 131.417 114.857 130.859C116.093 130.694 117.152 129.88 117.632 128.725L121.172 120.21L113.302 117.834Z" fill="url(#paint4_linear)"/>
<path d="M83.2364 153.557C81.5851 148.122 94.5583 135.081 94.5583 135.081L90.5837 123.273C90.5837 123.273 62.1956 144.608 70.5772 160.032C71.7783 162.244 73.2957 163.756 75.0129 164.726C77.0352 158.178 80.654 155.028 83.2364 153.557Z" fill="#00A59D"/>
<path d="M83.1835 152.754C83.0386 152.763 82.9024 152.671 82.8563 152.525C81.1677 146.967 93.7237 134.263 94.2595 133.725C94.3846 133.6 94.5888 133.598 94.7162 133.725C94.8414 133.851 94.8414 134.058 94.7162 134.184C94.5866 134.312 81.8989 147.148 83.4733 152.335C83.526 152.507 83.4294 152.688 83.2581 152.741C83.234 152.75 83.2098 152.754 83.1835 152.754Z" fill="#00BCAA"/>
<path d="M103.884 151.936C103.884 151.936 88.0498 159.141 83.8381 154.617C83.5527 154.311 83.3572 153.954 83.2387 153.559C80.6563 155.03 77.0353 158.18 75.0151 164.726C83.8271 169.715 97.907 160.409 101.704 157.686C102.327 157.239 103.096 157.051 103.856 157.166C105.391 157.397 108.037 157.717 109.438 157.42C111.488 156.985 114.861 164.144 118.089 161.699C118.087 161.697 114.517 149.125 103.884 151.936Z" fill="url(#paint5_linear)"/>
<path d="M125.173 106.927C125.243 107.147 124.683 122.428 124.683 122.428L116.001 121.921L114.389 107.359C114.387 107.361 124.005 103.238 125.173 106.927Z" fill="url(#paint6_linear)"/>
<path d="M116.802 110.263L117.053 117.995C117.055 118.094 117.073 118.189 117.101 118.284C117.283 118.863 118.056 120.808 119.991 119.893C121.745 119.062 123.361 118.33 124.587 118.493C125.138 118.566 125.542 119.046 125.52 119.604C125.469 120.993 125.296 124.12 124.732 126.811C124.618 127.358 124.101 127.72 123.55 127.654C121.886 127.453 118.388 126.933 115.672 125.852C115.303 125.707 115.044 125.374 114.995 124.979C114.76 123.057 114.022 117.212 113.566 115.616C113.138 114.117 111.12 113.513 110.252 113.321C109.969 113.257 109.725 113.083 109.574 112.831C109.042 111.949 108.162 109.848 110.759 108.495C111.304 108.21 111.504 107.538 111.205 107.002C110.61 105.933 110.153 104.226 112.119 102.917C114.117 101.585 115.92 102.471 116.945 103.267C117.36 103.589 117.933 103.552 118.324 103.201C118.546 103.003 118.858 102.897 119.286 103.075C119.861 103.316 120.516 102.976 120.693 102.379C121.034 101.228 121.899 99.9095 124.073 99.9205C127.929 99.9403 129.044 104.041 128.46 106.651C127.876 109.262 123.695 109.002 121.471 108.104C119.78 107.423 117.951 108.737 117.171 109.407C116.925 109.623 116.791 109.937 116.802 110.263Z" fill="#3A3F3D"/>
<path d="M113.686 118.433C113.686 118.433 114.512 113.841 112.751 113.045C110.992 112.247 108.737 113.191 109.771 116.244C111.062 120.043 113.686 118.433 113.686 118.433Z" fill="url(#paint7_linear)"/>
<path d="M176.102 163.388C176.102 164.342 175.845 165.103 175.526 165.103H135.531C135.215 165.103 134.956 164.342 134.956 163.388C134.956 162.433 135.212 161.672 135.531 161.672H175.526C175.845 161.672 176.102 162.433 176.102 163.388Z" fill="url(#paint8_linear)"/>
<path d="M159.104 159.957H122.876C122.088 159.957 121.686 160.466 121.686 161.258V162.36H160.654V161.258C160.654 160.464 159.892 159.957 159.104 159.957Z" fill="#007A54"/>
<path d="M169.449 122.806L164.803 154.759C164.651 155.802 163.674 156.648 162.618 156.648H127.84C126.729 156.648 125.989 155.782 126.188 154.708L132.282 121.897C132.466 120.899 133.479 120.112 134.544 120.14L167.875 120.998C168.887 121.022 169.59 121.833 169.449 122.806Z" fill="#00B37B"/>
<path d="M135.379 120.739L128.959 155.903C128.88 156.341 128.366 156.698 127.913 156.698C126.802 156.698 125.981 155.821 126.181 154.743L132.279 121.906C132.466 120.903 133.478 120.111 134.543 120.138L135.127 120.153C135.314 120.288 135.423 120.504 135.379 120.739Z" fill="#00B37B"/>
<path d="M163.783 143.713C163.653 143.708 163.568 143.596 163.592 143.459L166.914 124.527C167.066 123.667 166.387 123.116 165.647 123.079L162.114 122.898C161.987 122.891 161.903 122.781 161.928 122.651C161.952 122.521 162.072 122.422 162.2 122.428L165.731 122.611C166.833 122.669 167.553 123.52 167.373 124.551L164.062 143.477C164.036 143.613 163.913 143.717 163.783 143.713Z" fill="#0BB7A2"/>
<path d="M137.977 153.841L133.083 153.832C132.079 153.83 131.484 152.931 131.699 151.745L133.017 144.445C133.041 144.306 133.173 144.196 133.307 144.196C133.443 144.198 133.53 144.31 133.506 144.449L132.193 151.747C132.033 152.642 132.454 153.321 133.175 153.321L138.065 153.332C138.201 153.332 138.291 153.447 138.267 153.588C138.243 153.727 138.113 153.841 137.977 153.841Z" fill="#0BB7A2"/>
<path d="M159.629 161.725V162.146L151.212 162.358H138.976C138.682 162.358 138.443 162.085 138.443 161.789C138.443 160.636 139.251 159.613 140.402 159.613H157.674C157.821 159.613 157.997 159.613 158.129 159.644C159.036 159.853 159.629 160.722 159.629 161.725Z" fill="#006040"/>
<path d="M161.926 161.694C161.923 160.541 160.988 159.615 159.837 159.62L158.092 159.626L151.201 159.657L142.565 159.708C141.416 159.712 140.49 160.744 140.492 161.897C140.494 162.124 140.678 162.358 140.905 162.358H161.513C161.623 162.358 161.728 162.265 161.805 162.188C161.882 162.111 161.926 161.981 161.926 161.871V161.694Z" fill="#00B37B"/>
<path d="M145.45 136.276C144.662 136.276 144.247 137.07 144.247 137.861V159.615H154.844V136.276H145.45Z" fill="#00B37B"/>
<path d="M155.219 136.276H147.147C146.359 136.276 145.612 137.07 145.612 137.861V159.615H156.55V137.861C156.552 137.07 156.008 136.276 155.219 136.276Z" fill="#007A54"/>
<path d="M106.585 162.358H115.946C115.946 162.358 113.82 157.772 109.931 157.999C106.043 158.226 106.585 162.358 106.585 162.358Z" fill="#00B37B"/>
<path d="M167.839 165.105H142.279H111.555H94.9319H38.6475C40.582 184.324 42.5188 202.859 44.4555 221.747C44.5697 222.849 45.1626 223.793 45.7006 223.793H101.985H104.545H149.332H160.83H208.177C208.715 223.793 209.264 222.849 209.378 221.747C211.313 202.859 213.249 184.324 215.186 165.105H167.839Z" fill="#0A9160"/>
<path d="M64.5123 165.105C63.7394 184.324 62.9664 204.23 62.1935 223.793H45.6981C45.1602 223.793 44.5673 222.849 44.4531 221.747C42.5185 202.859 40.5818 184.324 38.645 165.105H64.5123Z" fill="#00B37B"/>
<path d="M215.245 161.672H167.518H142.867H115.829H111.613H99.378H77.7004H39.2354C38.6623 161.672 38.1968 162.433 38.1968 163.388C38.1968 164.342 38.6623 165.103 39.2354 165.103H93.5809H95.1399H111.613H115.829H142.867H167.518H215.245C215.818 165.103 216.284 164.342 216.284 163.388C216.286 162.433 215.82 161.672 215.245 161.672Z" fill="#00B37B"/>
<path d="M61.2406 163.388C61.2406 162.44 61.7105 161.672 62.2902 161.672H38.3729C37.7932 161.672 37.3232 162.44 37.3232 163.388C37.3232 164.336 37.7932 165.103 38.3729 165.103H62.2924C61.7105 165.105 61.2406 164.336 61.2406 163.388Z" fill="#0A9160"/>
<path d="M120.529 123.052C115.193 123.198 112.369 117.527 112.34 117.47L112.707 117.292C112.733 117.347 115.447 122.781 120.52 122.645L120.529 123.052Z" fill="#007A54"/>
<path d="M122.136 123.207L120.638 123.408C120.362 123.445 120.105 123.249 120.068 122.971L120.041 122.777C120.004 122.499 120.199 122.241 120.476 122.204L121.974 122.003C122.25 121.966 122.507 122.162 122.544 122.44L122.571 122.634C122.61 122.911 122.413 123.169 122.136 123.207Z" fill="#007A54"/>
<path d="M112.579 112.097C112.579 112.097 114.911 103.664 120.245 103.045C120.245 103.045 118.791 102.297 117.184 102.998C115.577 103.699 111.372 107.699 111.244 112.263C112.296 112.655 112.579 112.097 112.579 112.097Z" fill="#007A54"/>
<path d="M112.046 110.854C109.095 111.308 109.275 115.036 109.275 115.036C108.934 117.719 109.652 119.093 110.625 119.776C111.291 120.243 112.151 120.325 112.891 119.994C113.634 119.664 114.147 118.965 114.246 118.156C114.336 117.426 114.431 116.731 114.497 116.487C114.657 115.894 114.997 110.399 112.046 110.854Z" fill="#007A54"/>
<path d="M112.27 111.804C111.668 111.669 111.053 111.963 110.783 112.518C108.84 116.496 110.858 119.243 111.91 119.348C113.016 119.461 113.251 114.099 113.082 112.712C113.01 112.135 112.656 111.892 112.27 111.804Z" fill="#007A54"/>
<path d="M45.3644 96.0115C45.3644 102.542 40.0921 107.835 33.5879 107.835H11.7764C5.27227 107.835 0 102.542 0 96.0115V95.8527C0 89.3223 5.27227 84.0288 11.7764 84.0288H33.5857C40.0899 84.0288 45.3622 89.3223 45.3622 95.8527V96.0115H45.3644Z" fill="#00BCAA"/>
<path d="M17.9029 105.027L9.19189 105.763L22.8304 121.317C22.8809 121.375 22.9644 121.388 23.0302 121.35C23.0961 121.313 23.1268 121.234 23.1027 121.161L17.9029 105.027Z" fill="#00BCAA"/>
<g opacity="0.9">
<path opacity="0.84" d="M10.7246 99.0189C12.0198 99.0189 13.0698 97.9646 13.0698 96.6642C13.0698 95.3638 12.0198 94.3096 10.7246 94.3096C9.42937 94.3096 8.37939 95.3638 8.37939 96.6642C8.37939 97.9646 9.42937 99.0189 10.7246 99.0189Z" fill="white"/>
<path opacity="0.84" d="M24.8481 96.6642C24.8481 97.965 23.7985 99.0189 22.5029 99.0189C21.2073 99.0189 20.1577 97.965 20.1577 96.6642C20.1577 95.3634 21.2073 94.3096 22.5029 94.3096C23.7985 94.3096 24.8481 95.3634 24.8481 96.6642Z" fill="white"/>
<path opacity="0.84" d="M34.2798 99.0189C35.575 99.0189 36.6249 97.9646 36.6249 96.6642C36.6249 95.3638 35.575 94.3096 34.2798 94.3096C32.9845 94.3096 31.9346 95.3638 31.9346 96.6642C31.9346 97.9646 32.9845 99.0189 34.2798 99.0189Z" fill="white"/>
</g>
<path d="M202.762 93.595C202.762 100.125 197.49 105.419 190.986 105.419H169.176C162.672 105.419 157.4 100.125 157.4 93.595V93.4362C157.4 86.9058 162.672 81.6123 169.176 81.6123H190.986C197.49 81.6123 202.762 86.9058 202.762 93.4362V93.595Z" fill="#00BCAA"/>
<path d="M175.426 102.44L166.715 103.177L180.353 118.731C180.404 118.788 180.487 118.802 180.553 118.764C180.619 118.727 180.65 118.647 180.626 118.575L175.426 102.44Z" fill="#00BCAA"/>
<g opacity="0.9">
<path opacity="0.84" d="M170.595 94.0778C170.595 95.3786 169.546 96.4324 168.25 96.4324C166.954 96.4324 165.905 95.3786 165.905 94.0778C165.905 92.777 166.954 91.7231 168.25 91.7231C169.543 91.7209 170.595 92.777 170.595 94.0778Z" fill="white"/>
<path opacity="0.84" d="M182.372 94.0778C182.372 95.3786 181.322 96.4324 180.026 96.4324C178.731 96.4324 177.681 95.3786 177.681 94.0778C177.681 92.777 178.731 91.7231 180.026 91.7231C181.322 91.7209 182.372 92.777 182.372 94.0778Z" fill="white"/>
<path opacity="0.84" d="M194.15 94.0778C194.15 95.3786 193.101 96.4324 191.805 96.4324C190.51 96.4324 189.46 95.3786 189.46 94.0778C189.46 92.777 190.51 91.7231 191.805 91.7231C193.099 91.7209 194.15 92.777 194.15 94.0778Z" fill="white"/>
</g>
<path d="M81.7914 106.204C81.7914 99.6734 76.5191 94.3799 70.0149 94.3799H48.2056C41.7015 94.3799 36.4292 99.6734 36.4292 106.204V106.363C36.4292 112.893 41.7015 118.186 48.2056 118.186H70.0149C76.5191 118.186 81.7914 112.893 81.7914 106.363V106.204Z" fill="#00A59D"/>
<path d="M63.1704 115.373L71.8814 116.11L58.2429 131.664C58.1924 131.721 58.1089 131.735 58.0431 131.697C57.9772 131.66 57.9464 131.58 57.9706 131.507L63.1704 115.373Z" fill="#00A59D"/>
<path opacity="0.84" d="M68.0034 107.011C68.0034 108.311 69.053 109.365 70.3486 109.365C71.6442 109.365 72.6938 108.311 72.6938 107.011C72.6938 105.71 71.6442 104.656 70.3486 104.656C69.053 104.656 68.0034 105.71 68.0034 107.011Z" fill="white"/>
<path opacity="0.84" d="M56.2246 107.011C56.2246 108.311 57.2742 109.365 58.5698 109.365C59.8654 109.365 60.915 108.311 60.915 107.011C60.915 105.71 59.8654 104.656 58.5698 104.656C57.2742 104.656 56.2246 105.71 56.2246 107.011Z" fill="white"/>
<path opacity="0.84" d="M44.4482 107.011C44.4482 108.311 45.4979 109.365 46.7934 109.365C48.089 109.365 49.1386 108.311 49.1386 107.011C49.1386 105.71 48.089 104.656 46.7934 104.656C45.4979 104.656 44.4482 105.71 44.4482 107.011Z" fill="white"/>
<path d="M234.865 107.835C234.865 101.885 229.496 97.1382 222.874 97.1382H200.761C194.138 97.1382 188.77 101.885 188.77 107.835C188.77 113.786 194.138 118.533 200.761 118.533H222.874C229.494 118.533 234.865 113.786 234.865 107.835Z" fill="#00A59D"/>
<path d="M216.312 116.108L225.181 116.78L211.292 130.95C211.242 131.003 211.156 131.014 211.088 130.981C211.02 130.945 210.989 130.875 211.014 130.809L216.312 116.108Z" fill="#00A59D"/>
<path opacity="0.84" d="M223.62 110.633C224.94 110.633 226.009 109.673 226.009 108.488C226.009 107.303 224.94 106.343 223.62 106.343C222.301 106.343 221.231 107.303 221.231 108.488C221.231 109.673 222.301 110.633 223.62 110.633Z" fill="white"/>
<path opacity="0.84" d="M211.628 110.633C212.948 110.633 214.017 109.673 214.017 108.488C214.017 107.303 212.948 106.343 211.628 106.343C210.309 106.343 209.239 107.303 209.239 108.488C209.239 109.673 210.309 110.633 211.628 110.633Z" fill="white"/>
<path opacity="0.84" d="M199.635 110.633C200.954 110.633 202.024 109.673 202.024 108.488C202.024 107.303 200.954 106.343 199.635 106.343C198.315 106.343 197.246 107.303 197.246 108.488C197.246 109.673 198.315 110.633 199.635 110.633Z" fill="white"/>
<path d="M125.625 211.268V207.963L129.005 204.834C135.72 198.577 138.882 195.138 138.926 191.348C138.926 188.793 137.564 186.544 133.834 186.544C131.333 186.544 129.181 187.823 127.731 188.923L126.15 185.089C128.214 183.413 131.33 182.137 134.929 182.137C141.249 182.137 144.323 186.147 144.323 190.819C144.323 195.843 140.724 199.898 135.764 204.526L133.263 206.686V206.774H144.982V211.27H125.625V211.268Z" fill="url(#paint9_linear)"/>
<path d="M161.049 211.268V203.996H148.144V200.471L159.776 182.622H166.139V199.898H169.826V203.996H166.139V211.268H161.049ZM161.049 199.898V192.097C161.049 190.466 161.093 188.793 161.225 187.117H161.049C160.171 188.925 159.424 190.378 158.548 191.965L153.324 199.81L153.28 199.898H161.049Z" fill="url(#paint10_linear)"/>
<path d="M171.146 213.029L181.855 181.078H185.629L174.92 213.029H171.146Z" fill="url(#paint11_linear)"/>
<path d="M207.094 182.622V186.103L195.024 211.268H189.316L201.343 187.205V187.117H187.911V182.622H207.094Z" fill="url(#paint12_linear)"/>
<path d="M100.856 212.888C92.0748 212.888 84.9316 205.716 84.9316 196.9C84.9316 188.083 92.0748 180.911 100.856 180.911C109.637 180.911 116.78 188.083 116.78 196.9C116.78 205.716 109.637 212.888 100.856 212.888ZM100.856 182.322C92.8499 182.322 86.337 188.861 86.337 196.9C86.337 204.938 92.8499 211.477 100.856 211.477C108.862 211.477 115.375 204.938 115.375 196.9C115.375 188.861 108.862 182.322 100.856 182.322Z" fill="url(#paint13_linear)"/>
<path d="M108.188 204.997C108.006 204.997 107.826 204.927 107.687 204.788L100.531 197.517C100.402 197.385 100.329 197.206 100.329 197.021V186.015C100.329 185.625 100.643 185.309 101.032 185.309C101.42 185.309 101.734 185.625 101.734 186.015V196.73L108.689 203.796C108.961 204.074 108.959 204.521 108.682 204.795C108.546 204.931 108.366 204.997 108.188 204.997Z" fill="url(#paint14_linear)"/>
<path d="M186.022 207.248C185.744 207.299 185.5 207.248 185.449 206.966C185.399 206.684 185.599 206.486 185.878 206.435C186.178 206.382 186.486 206.36 186.787 206.305C187.052 206.247 187.338 206.455 187.39 206.737C187.443 207.017 187.235 207.16 186.956 207.211C186.655 207.266 186.328 207.193 186.022 207.248C186.022 207.246 186.022 207.248 186.022 207.248ZM183.903 207.623C183.901 207.623 183.899 207.623 183.897 207.625C183.592 207.678 183.311 207.855 183.005 207.901C182.724 207.945 182.472 207.815 182.43 207.533C182.386 207.251 182.586 207.013 182.867 206.975C183.17 206.929 183.475 206.896 183.778 206.847C184.059 206.801 184.303 206.871 184.347 207.154C184.389 207.434 184.18 207.575 183.903 207.623ZM189.051 206.71C188.776 206.759 188.532 206.697 188.477 206.422C188.42 206.142 188.611 205.928 188.89 205.87C189.191 205.809 189.496 205.778 189.795 205.714C190.074 205.659 190.348 205.848 190.408 206.128C190.465 206.408 190.267 206.572 189.988 206.631C189.685 206.695 189.367 206.655 189.062 206.708C189.059 206.71 189.055 206.71 189.051 206.71ZM180.908 208.34C180.902 208.342 180.895 208.342 180.889 208.342C180.583 208.384 180.276 208.426 179.971 208.465C179.687 208.503 179.43 208.302 179.393 208.02C179.356 207.736 179.56 207.473 179.837 207.44C180.14 207.401 180.443 207.361 180.748 207.319C181.029 207.279 181.29 207.478 181.328 207.762C181.367 208.038 181.181 208.291 180.908 208.34ZM192.098 206.3C191.828 206.349 191.567 206.175 191.505 205.904C191.444 205.626 191.617 205.348 191.894 205.286C192.193 205.218 192.491 205.15 192.79 205.081C193.076 205.019 193.343 205.189 193.409 205.469C193.473 205.747 193.302 206.025 193.023 206.091C192.722 206.162 192.421 206.23 192.12 206.298C192.114 206.298 192.105 206.3 192.098 206.3ZM177.858 208.723C177.847 208.726 177.836 208.728 177.825 208.728C177.518 208.763 177.213 208.796 176.905 208.829C176.622 208.86 176.369 208.653 176.339 208.368C176.308 208.084 176.514 207.83 176.798 207.8C177.103 207.767 177.406 207.733 177.711 207.7C177.994 207.667 178.249 207.872 178.28 208.157C178.311 208.428 178.124 208.677 177.858 208.723ZM195.089 205.59C194.826 205.637 194.567 205.471 194.501 205.205C194.433 204.927 194.599 204.647 194.876 204.579C195.173 204.504 195.471 204.429 195.768 204.354C196.042 204.281 196.323 204.451 196.393 204.726C196.464 205.004 196.297 205.284 196.022 205.355C195.724 205.432 195.425 205.507 195.124 205.582C195.111 205.586 195.1 205.588 195.089 205.59ZM174.799 209.032C174.784 209.034 174.769 209.036 174.755 209.039C174.448 209.065 174.141 209.092 173.833 209.116C173.55 209.138 173.302 208.926 173.278 208.642C173.256 208.357 173.466 208.11 173.75 208.084C174.055 208.06 174.36 208.033 174.665 208.007C174.949 207.983 175.199 208.192 175.223 208.476C175.247 208.748 175.061 208.986 174.799 209.032ZM198.065 204.814C197.805 204.861 197.549 204.7 197.478 204.44C197.404 204.164 197.566 203.88 197.841 203.805C198.137 203.725 198.431 203.644 198.728 203.56C199.002 203.483 199.285 203.644 199.362 203.919C199.439 204.195 199.279 204.479 199.004 204.556C198.708 204.64 198.409 204.722 198.111 204.803C198.095 204.808 198.08 204.812 198.065 204.814ZM171.734 209.266C171.714 209.27 171.697 209.272 171.677 209.272C171.369 209.292 171.06 209.31 170.752 209.327C170.469 209.343 170.225 209.125 170.21 208.84C170.195 208.556 170.41 208.311 170.695 208.296C171.001 208.278 171.306 208.26 171.611 208.241C171.894 208.223 172.14 208.439 172.158 208.723C172.175 208.988 171.989 209.219 171.734 209.266ZM201.025 203.977C200.77 204.023 200.515 203.869 200.44 203.613C200.361 203.339 200.517 203.051 200.79 202.971C201.084 202.885 201.378 202.797 201.67 202.709C201.945 202.63 202.23 202.782 202.311 203.055C202.393 203.328 202.239 203.617 201.967 203.699C201.67 203.787 201.376 203.875 201.079 203.963C201.062 203.97 201.042 203.974 201.025 203.977ZM168.666 209.42C168.644 209.424 168.62 209.427 168.596 209.427C168.289 209.438 167.979 209.449 167.672 209.458C167.386 209.466 167.149 209.242 167.14 208.955C167.131 208.668 167.355 208.432 167.641 208.421C167.946 208.413 168.253 208.402 168.559 208.39C168.842 208.379 169.081 208.602 169.092 208.889C169.099 209.153 168.914 209.376 168.666 209.42ZM203.965 203.079C203.715 203.123 203.462 202.976 203.385 202.724C203.299 202.451 203.451 202.162 203.721 202.076C204.013 201.984 204.305 201.891 204.597 201.796C204.867 201.708 205.159 201.858 205.245 202.131C205.333 202.402 205.184 202.696 204.911 202.782C204.617 202.876 204.323 202.971 204.029 203.064C204.009 203.068 203.987 203.075 203.965 203.079ZM165.592 209.497C165.566 209.502 165.537 209.504 165.509 209.506C165.199 209.51 164.892 209.513 164.582 209.513C164.297 209.515 164.066 209.283 164.064 208.997C164.062 208.71 164.292 208.476 164.578 208.476C164.883 208.474 165.19 208.472 165.495 208.468C165.781 208.463 166.014 208.693 166.018 208.979C166.02 209.239 165.838 209.455 165.592 209.497ZM206.888 202.122C206.642 202.167 206.393 202.023 206.31 201.779C206.22 201.507 206.365 201.214 206.633 201.124L207.502 200.826C207.772 200.733 208.065 200.877 208.157 201.148C208.249 201.419 208.106 201.712 207.836 201.805L206.96 202.105C206.938 202.111 206.914 202.118 206.888 202.122ZM162.52 209.495C162.489 209.502 162.456 209.504 162.423 209.504C162.116 209.499 161.806 209.495 161.499 209.488C161.214 209.482 160.99 209.246 160.994 208.959C161.001 208.673 161.233 208.446 161.521 208.452C161.826 208.459 162.131 208.463 162.439 208.468C162.724 208.472 162.95 208.706 162.946 208.992C162.942 209.246 162.759 209.453 162.52 209.495ZM209.788 201.097C209.547 201.139 209.303 201.005 209.215 200.767C209.116 200.498 209.255 200.202 209.52 200.103C209.806 199.997 210.094 199.889 210.381 199.781C210.647 199.68 210.945 199.814 211.044 200.083C211.145 200.35 211.011 200.65 210.743 200.749C210.454 200.859 210.164 200.967 209.874 201.073C209.848 201.086 209.819 201.093 209.788 201.097ZM212.66 199.991C212.426 200.032 212.186 199.905 212.094 199.673C211.989 199.408 212.116 199.106 212.379 199.001C212.663 198.886 212.946 198.771 213.231 198.654C213.495 198.544 213.796 198.672 213.903 198.937C214.011 199.201 213.886 199.503 213.622 199.611C213.337 199.728 213.049 199.845 212.764 199.962C212.729 199.975 212.693 199.986 212.66 199.991ZM159.448 209.413C159.413 209.42 159.376 209.422 159.338 209.42C159.031 209.407 158.721 209.394 158.414 209.38C158.131 209.367 157.911 209.125 157.924 208.838C157.937 208.554 158.179 208.333 158.464 208.346C158.77 208.362 159.075 208.375 159.38 208.386C159.663 208.397 159.885 208.637 159.874 208.924C159.863 209.173 159.681 209.372 159.448 209.413ZM215.498 198.804C215.267 198.844 215.032 198.725 214.935 198.5C214.821 198.238 214.942 197.933 215.203 197.819C215.484 197.698 215.763 197.574 216.044 197.448C216.306 197.334 216.609 197.451 216.725 197.713C216.839 197.975 216.723 198.28 216.462 198.396C216.178 198.522 215.895 198.646 215.612 198.769C215.577 198.787 215.537 198.798 215.498 198.804ZM156.38 209.25C156.341 209.257 156.299 209.259 156.257 209.257C155.95 209.237 155.643 209.215 155.335 209.193C155.052 209.173 154.839 208.924 154.859 208.64C154.881 208.355 155.127 208.141 155.41 208.161C155.715 208.183 156.02 208.205 156.326 208.225C156.609 208.243 156.824 208.49 156.806 208.776C156.789 209.019 156.609 209.211 156.38 209.25ZM218.304 197.539C218.08 197.579 217.847 197.464 217.748 197.248C217.628 196.988 217.74 196.681 217.999 196.56C218.275 196.43 218.552 196.3 218.831 196.168C219.088 196.044 219.395 196.154 219.518 196.412C219.641 196.67 219.531 196.979 219.274 197.102C218.996 197.235 218.714 197.367 218.436 197.497C218.389 197.519 218.348 197.532 218.304 197.539ZM153.317 209.008C153.273 209.017 153.227 209.017 153.179 209.012C152.871 208.984 152.564 208.955 152.259 208.924C151.976 208.895 151.769 208.642 151.798 208.357C151.826 208.073 152.079 207.866 152.362 207.894C152.667 207.925 152.97 207.954 153.275 207.983C153.559 208.009 153.767 208.26 153.741 208.545C153.719 208.783 153.541 208.968 153.317 209.008ZM221.075 196.201C220.855 196.24 220.629 196.132 220.524 195.921C220.396 195.665 220.502 195.354 220.757 195.226C221.031 195.089 221.303 194.951 221.578 194.812C221.83 194.682 222.142 194.785 222.27 195.039C222.399 195.294 222.296 195.605 222.043 195.733C221.767 195.874 221.492 196.013 221.216 196.15C221.169 196.179 221.123 196.194 221.075 196.201ZM150.263 208.684C150.214 208.693 150.164 208.695 150.111 208.688C149.806 208.651 149.501 208.613 149.193 208.576C148.91 208.54 148.71 208.28 148.748 207.998C148.783 207.714 149.042 207.513 149.323 207.55C149.626 207.59 149.929 207.628 150.234 207.663C150.517 207.696 150.72 207.954 150.684 208.238C150.658 208.468 150.48 208.646 150.263 208.684ZM223.811 194.79C223.598 194.827 223.374 194.726 223.266 194.523C223.133 194.271 223.229 193.958 223.479 193.824C223.75 193.681 224.02 193.535 224.29 193.39C224.54 193.253 224.852 193.348 224.988 193.599C225.124 193.85 225.03 194.163 224.779 194.3C224.507 194.448 224.235 194.593 223.963 194.739C223.914 194.763 223.862 194.781 223.811 194.79ZM147.219 208.28C147.167 208.289 147.112 208.291 147.055 208.282C146.749 208.238 146.446 208.192 146.141 208.146C145.86 208.102 145.667 207.839 145.711 207.557C145.755 207.275 146.016 207.081 146.297 207.125C146.6 207.171 146.901 207.218 147.204 207.262C147.485 207.304 147.68 207.566 147.639 207.848C147.606 208.071 147.432 208.241 147.219 208.28ZM226.508 193.308C226.299 193.345 226.079 193.248 225.97 193.052C225.829 192.803 225.917 192.488 226.165 192.347C226.431 192.197 226.696 192.045 226.962 191.89C227.208 191.747 227.524 191.833 227.665 192.082C227.808 192.329 227.722 192.647 227.474 192.788C227.206 192.942 226.938 193.096 226.668 193.248C226.62 193.279 226.565 193.297 226.508 193.308ZM144.187 207.793C144.13 207.804 144.07 207.804 144.009 207.793C143.706 207.74 143.403 207.687 143.098 207.632C142.817 207.581 142.632 207.312 142.683 207.03C142.733 206.748 143.001 206.563 143.282 206.613C143.583 206.669 143.884 206.722 144.185 206.774C144.466 206.823 144.652 207.092 144.604 207.372C144.567 207.592 144.393 207.758 144.187 207.793ZM229.167 191.756C228.963 191.791 228.747 191.701 228.635 191.511C228.488 191.266 228.567 190.949 228.813 190.801C229.075 190.642 229.338 190.484 229.599 190.325C229.843 190.175 230.159 190.252 230.309 190.497C230.458 190.742 230.381 191.059 230.137 191.209C229.874 191.37 229.61 191.531 229.345 191.69C229.285 191.723 229.226 191.745 229.167 191.756ZM141.168 207.229C141.106 207.24 141.042 207.24 140.976 207.226C140.742 207.18 140.507 207.132 140.269 207.083L140.067 207.041C139.788 206.984 139.611 206.708 139.668 206.428C139.725 206.148 139.999 205.97 140.278 206.027L140.478 206.069C140.711 206.117 140.946 206.166 141.178 206.212C141.457 206.267 141.64 206.541 141.583 206.821C141.541 207.037 141.37 207.193 141.168 207.229ZM43.4669 223.993C43.4274 224 43.3878 224.002 43.3461 224C43.2539 223.993 43.1617 223.989 43.0672 223.982C42.784 223.96 42.571 223.713 42.5907 223.429C42.6105 223.144 42.8586 222.931 43.1419 222.95C43.2297 222.957 43.3176 222.964 43.4054 222.968C43.6887 222.986 43.9061 223.23 43.8885 223.515C43.8753 223.757 43.6953 223.951 43.4669 223.993ZM231.782 190.133C231.582 190.168 231.374 190.082 231.257 189.902C231.104 189.661 231.176 189.342 231.415 189.187C231.672 189.022 231.931 188.857 232.188 188.689C232.428 188.535 232.746 188.601 232.9 188.841C233.053 189.082 232.985 189.401 232.748 189.558C232.489 189.728 232.23 189.895 231.969 190.06C231.909 190.096 231.846 190.12 231.782 190.133ZM138.159 206.596C138.095 206.607 138.027 206.607 137.959 206.591C137.659 206.525 137.358 206.459 137.057 206.393C136.78 206.331 136.604 206.056 136.666 205.776C136.727 205.496 137.002 205.319 137.281 205.383C137.579 205.449 137.88 205.516 138.179 205.582C138.458 205.643 138.633 205.917 138.572 206.197C138.528 206.406 138.359 206.561 138.159 206.596ZM41.0558 223.729C41.0009 223.738 40.9438 223.74 40.8868 223.731C40.5793 223.682 40.2697 223.63 39.9601 223.568C39.6812 223.513 39.499 223.241 39.5517 222.961C39.6044 222.681 39.8745 222.496 40.1555 222.551C40.452 222.609 40.7506 222.662 41.047 222.708C41.3281 222.752 41.5214 223.017 41.4774 223.299C41.4401 223.521 41.2666 223.691 41.0558 223.729ZM234.358 188.436C234.165 188.471 233.958 188.389 233.842 188.215C233.681 187.979 233.745 187.657 233.98 187.496C234.235 187.324 234.487 187.15 234.742 186.976C234.975 186.813 235.298 186.875 235.458 187.108C235.618 187.344 235.559 187.666 235.326 187.827C235.071 188.003 234.815 188.178 234.558 188.352C234.494 188.398 234.426 188.425 234.358 188.436ZM135.16 205.923C135.094 205.934 135.026 205.934 134.955 205.919C134.655 205.851 134.356 205.78 134.055 205.71C133.778 205.646 133.605 205.368 133.671 205.088C133.734 204.81 134.011 204.636 134.29 204.702C134.589 204.773 134.887 204.841 135.186 204.909C135.463 204.973 135.636 205.251 135.572 205.529C135.524 205.738 135.357 205.888 135.16 205.923ZM38.0519 223.067C37.9772 223.081 37.8982 223.078 37.8213 223.054C37.5161 222.966 37.2153 222.873 36.9188 222.774C36.6487 222.684 36.5038 222.39 36.5938 222.119C36.6839 221.848 36.9759 221.703 37.246 221.793C37.5293 221.888 37.8169 221.976 38.1068 222.06C38.3813 222.139 38.5394 222.426 38.4603 222.699C38.4032 222.898 38.2407 223.034 38.0519 223.067ZM236.887 186.67C236.699 186.703 236.499 186.628 236.378 186.462C236.211 186.231 236.266 185.907 236.497 185.741C236.747 185.563 236.995 185.382 237.243 185.199C237.472 185.029 237.794 185.082 237.963 185.311C238.13 185.543 238.08 185.865 237.851 186.035C237.601 186.218 237.351 186.401 237.098 186.581C237.032 186.628 236.96 186.656 236.887 186.67ZM132.167 205.218C132.099 205.229 132.028 205.229 131.958 205.211L131.06 204.995C130.783 204.929 130.614 204.649 130.68 204.371C130.746 204.093 131.025 203.924 131.301 203.99L132.197 204.206C132.474 204.272 132.645 204.552 132.579 204.83C132.529 205.035 132.362 205.185 132.167 205.218ZM35.1731 221.991C35.0721 222.009 34.9623 221.998 34.8613 221.95C34.5671 221.808 34.2816 221.661 34.0115 221.509C33.7634 221.367 33.6755 221.052 33.8139 220.803C33.9544 220.554 34.2684 220.466 34.5165 220.605C34.7669 220.746 35.0304 220.882 35.3049 221.015C35.5618 221.138 35.6716 221.447 35.5486 221.705C35.4739 221.861 35.3312 221.965 35.1731 221.991ZM129.18 204.49C129.112 204.504 129.04 204.501 128.967 204.484L128.071 204.261C127.795 204.193 127.628 203.91 127.696 203.635C127.764 203.357 128.045 203.19 128.319 203.258L129.213 203.481C129.49 203.549 129.659 203.829 129.591 204.107C129.54 204.31 129.376 204.455 129.18 204.49ZM239.364 184.833C239.18 184.866 238.984 184.796 238.864 184.637C238.692 184.41 238.736 184.086 238.963 183.911C239.206 183.726 239.45 183.539 239.692 183.349C239.916 183.173 240.241 183.215 240.414 183.442C240.587 183.667 240.548 183.993 240.322 184.167C240.078 184.357 239.832 184.546 239.586 184.734C239.518 184.787 239.441 184.82 239.364 184.833ZM126.196 203.743C126.126 203.756 126.053 203.754 125.981 203.734L125.085 203.507C124.808 203.436 124.641 203.156 124.712 202.879C124.782 202.601 125.063 202.433 125.338 202.504L126.231 202.731C126.508 202.802 126.675 203.082 126.605 203.359C126.556 203.564 126.392 203.71 126.196 203.743ZM32.5952 220.329C32.4458 220.356 32.2855 220.316 32.1626 220.206C31.9101 219.981 31.6751 219.745 31.4665 219.504C31.2798 219.288 31.3018 218.962 31.5148 218.775C31.73 218.587 32.055 218.609 32.2416 218.823C32.4217 219.03 32.6259 219.236 32.8455 219.432C33.0585 219.621 33.0783 219.948 32.8894 220.161C32.8104 220.254 32.7072 220.309 32.5952 220.329ZM241.784 182.926C241.606 182.957 241.415 182.893 241.295 182.741C241.114 182.518 241.15 182.194 241.371 182.013C241.609 181.819 241.846 181.625 242.083 181.431C242.302 181.25 242.627 181.281 242.807 181.502C242.988 181.722 242.957 182.048 242.737 182.229C242.498 182.428 242.259 182.624 242.019 182.818C241.947 182.875 241.868 182.911 241.784 182.926ZM123.219 202.987C123.148 203 123.076 202.998 123.003 202.978L122.11 202.749C121.833 202.678 121.668 202.396 121.738 202.12C121.809 201.842 122.09 201.675 122.364 201.748L123.258 201.977C123.535 202.048 123.702 202.33 123.631 202.605C123.576 202.808 123.412 202.951 123.219 202.987ZM244.145 180.948C243.971 180.979 243.787 180.92 243.664 180.776C243.477 180.56 243.501 180.234 243.719 180.047C243.952 179.846 244.182 179.645 244.41 179.442C244.626 179.253 244.951 179.275 245.137 179.491C245.324 179.705 245.304 180.033 245.089 180.221C244.856 180.426 244.623 180.629 244.391 180.831C244.318 180.895 244.233 180.933 244.145 180.948ZM120.239 202.224C120.168 202.237 120.096 202.235 120.021 202.215L119.128 201.986C118.851 201.915 118.684 201.633 118.754 201.357C118.825 201.08 119.106 200.912 119.38 200.983L120.274 201.212C120.551 201.282 120.715 201.565 120.645 201.84C120.597 202.045 120.432 202.191 120.239 202.224ZM30.8648 217.824C30.6167 217.869 30.3686 217.725 30.2873 217.478C30.2061 217.234 30.1424 216.982 30.0985 216.729C30.0831 216.647 30.0721 216.566 30.0611 216.482C30.026 216.197 30.2258 215.944 30.5069 215.904C30.7902 215.869 31.0471 216.07 31.0822 216.352C31.091 216.418 31.0998 216.484 31.113 216.55C31.1481 216.755 31.2008 216.958 31.2645 217.154C31.3545 217.425 31.2096 217.719 30.9395 217.809C30.9131 217.816 30.889 217.82 30.8648 217.824ZM246.439 178.9C246.273 178.929 246.093 178.876 245.97 178.741C245.776 178.532 245.792 178.203 246 178.009C246.224 177.802 246.448 177.593 246.672 177.383C246.881 177.189 247.206 177.198 247.401 177.408C247.597 177.617 247.586 177.943 247.377 178.139C247.151 178.351 246.925 178.563 246.699 178.772C246.622 178.843 246.532 178.885 246.439 178.9ZM117.259 201.463C117.189 201.476 117.116 201.474 117.044 201.454L116.15 201.227C115.873 201.157 115.706 200.877 115.777 200.599C115.847 200.321 116.126 200.154 116.403 200.224L117.296 200.451C117.573 200.522 117.74 200.802 117.67 201.08C117.617 201.285 117.452 201.43 117.259 201.463ZM114.277 200.711C114.209 200.725 114.136 200.722 114.064 200.705L113.168 200.482C112.891 200.414 112.722 200.134 112.793 199.856C112.861 199.578 113.139 199.408 113.416 199.479L114.312 199.702C114.589 199.77 114.756 200.052 114.688 200.328C114.637 200.533 114.472 200.678 114.277 200.711ZM248.666 176.779C248.504 176.808 248.332 176.759 248.209 176.631C248.009 176.429 248.014 176.1 248.216 175.899C248.433 175.686 248.651 175.47 248.866 175.254C249.068 175.051 249.393 175.051 249.595 175.254C249.797 175.456 249.797 175.783 249.595 175.985C249.378 176.204 249.158 176.422 248.938 176.64C248.859 176.715 248.765 176.762 248.666 176.779ZM30.8297 214.786C30.7572 214.8 30.6804 214.797 30.6057 214.775C30.3312 214.7 30.1687 214.416 30.2434 214.14C30.3268 213.834 30.4322 213.519 30.5596 213.203C30.6672 212.939 30.968 212.813 31.2315 212.919C31.495 213.027 31.6224 213.329 31.5148 213.594C31.4028 213.869 31.3106 214.143 31.2381 214.409C31.1832 214.612 31.0207 214.753 30.8297 214.786ZM111.293 199.975C111.225 199.986 111.154 199.986 111.082 199.968L110.186 199.752C109.909 199.686 109.738 199.406 109.806 199.128C109.872 198.851 110.151 198.679 110.428 198.747L111.326 198.965C111.602 199.034 111.771 199.311 111.706 199.589C111.653 199.794 111.488 199.942 111.293 199.975ZM250.816 174.585C250.66 174.612 250.495 174.568 250.37 174.451C250.164 174.255 250.155 173.926 250.35 173.719C250.561 173.496 250.77 173.274 250.976 173.051C251.169 172.842 251.497 172.831 251.705 173.025C251.914 173.219 251.925 173.547 251.731 173.757C251.523 173.984 251.31 174.208 251.099 174.433C251.022 174.515 250.921 174.566 250.816 174.585ZM108.3 199.261C108.234 199.272 108.164 199.272 108.093 199.254L107.195 199.045C106.919 198.981 106.745 198.703 106.809 198.425C106.872 198.147 107.149 197.973 107.426 198.037L108.326 198.247C108.603 198.311 108.776 198.59 108.71 198.868C108.664 199.078 108.497 199.225 108.3 199.261ZM32.1516 212.015C32.0264 212.037 31.8903 212.013 31.7761 211.936C31.539 211.777 31.4753 211.455 31.6334 211.217C31.7607 211.025 31.8991 210.831 32.044 210.633C32.0923 210.567 32.1406 210.503 32.1889 210.439C32.3624 210.212 32.6852 210.167 32.9114 210.342C33.1375 210.516 33.1815 210.84 33.008 211.067C32.9619 211.127 32.9158 211.188 32.8718 211.248C32.7357 211.431 32.6083 211.614 32.4898 211.792C32.4085 211.916 32.2855 211.993 32.1516 212.015ZM105.305 198.575C105.241 198.586 105.173 198.586 105.103 198.571C104.804 198.505 104.503 198.438 104.205 198.372C103.926 198.311 103.75 198.035 103.811 197.757C103.873 197.477 104.147 197.301 104.424 197.362C104.725 197.429 105.026 197.495 105.327 197.561C105.603 197.623 105.779 197.898 105.717 198.178C105.671 198.388 105.502 198.54 105.305 198.575ZM252.887 172.315C252.737 172.341 252.579 172.301 252.456 172.193C252.243 172.004 252.221 171.677 252.41 171.464C252.612 171.234 252.812 171.003 253.009 170.774C253.194 170.557 253.521 170.533 253.736 170.721C253.952 170.908 253.976 171.234 253.789 171.45C253.587 171.684 253.385 171.918 253.181 172.149C253.104 172.24 252.999 172.295 252.887 172.315ZM102.299 197.925C102.235 197.936 102.171 197.936 102.103 197.922C101.802 197.859 101.501 197.797 101.203 197.735C100.924 197.678 100.744 197.404 100.801 197.124C100.858 196.844 101.13 196.664 101.409 196.721C101.71 196.783 102.013 196.844 102.314 196.908C102.593 196.966 102.771 197.241 102.714 197.521C102.67 197.735 102.501 197.889 102.299 197.925ZM34.1059 209.641C33.9456 209.669 33.7765 209.621 33.6536 209.497C33.4516 209.297 33.4516 208.968 33.6514 208.765C33.871 208.545 34.0993 208.322 34.3365 208.106C34.5473 207.914 34.8723 207.927 35.0655 208.139C35.2566 208.351 35.2434 208.677 35.0326 208.871C34.8086 209.076 34.5912 209.286 34.3848 209.495C34.3035 209.574 34.2069 209.621 34.1059 209.641ZM254.869 169.969C254.727 169.993 254.575 169.96 254.454 169.861C254.235 169.68 254.202 169.354 254.382 169.133C254.575 168.897 254.764 168.659 254.955 168.421C255.133 168.198 255.456 168.161 255.68 168.337C255.901 168.516 255.939 168.84 255.763 169.065C255.572 169.307 255.379 169.548 255.183 169.788C255.098 169.887 254.988 169.949 254.869 169.969ZM99.2858 197.316C99.2265 197.327 99.1628 197.327 99.0991 197.314C98.7983 197.257 98.4975 197.197 98.1966 197.142C97.9177 197.089 97.7333 196.818 97.786 196.538C97.8387 196.258 98.1088 196.073 98.3877 196.126C98.6907 196.183 98.9937 196.24 99.2968 196.3C99.5756 196.355 99.7601 196.626 99.7052 196.906C99.6591 197.122 99.49 197.281 99.2858 197.316ZM36.4335 207.623C36.2491 207.656 36.0515 207.586 35.9307 207.425C35.7594 207.196 35.8055 206.871 36.0339 206.699C36.2842 206.512 36.5389 206.327 36.7981 206.146C37.0308 205.983 37.3536 206.04 37.5161 206.276C37.6786 206.51 37.6215 206.834 37.3865 206.997C37.1384 207.171 36.8925 207.348 36.6531 207.528C36.5851 207.579 36.5104 207.61 36.4335 207.623ZM96.2621 196.758C96.205 196.769 96.1435 196.769 96.0842 196.758C95.7812 196.705 95.4803 196.653 95.1773 196.602C94.8962 196.553 94.7074 196.287 94.7557 196.004C94.804 195.722 95.0697 195.533 95.3508 195.581C95.6538 195.632 95.959 195.685 96.2621 195.738C96.5431 195.786 96.7298 196.055 96.6815 196.337C96.642 196.558 96.4707 196.721 96.2621 196.758ZM256.762 167.541C256.626 167.566 256.481 167.535 256.363 167.447C256.134 167.275 256.088 166.951 256.259 166.721C256.442 166.477 256.624 166.23 256.804 165.983C256.971 165.751 257.294 165.7 257.524 165.87C257.755 166.038 257.805 166.362 257.636 166.593C257.454 166.845 257.269 167.094 257.083 167.343C257.002 167.453 256.885 167.519 256.762 167.541ZM38.9917 205.91C38.7875 205.945 38.5723 205.855 38.4603 205.668C38.3132 205.423 38.3923 205.105 38.6382 204.958C38.9061 204.797 39.174 204.64 39.4463 204.484C39.6944 204.343 40.0084 204.431 40.1489 204.68C40.2895 204.929 40.2016 205.244 39.9535 205.385C39.6878 205.535 39.4265 205.69 39.1674 205.846C39.1103 205.877 39.051 205.899 38.9917 205.91ZM93.2296 196.256C93.1747 196.265 93.1176 196.267 93.0605 196.258C92.7575 196.212 92.4544 196.165 92.1514 196.119C91.8703 196.077 91.6749 195.815 91.7166 195.53C91.7583 195.248 92.0197 195.052 92.3029 195.094C92.6082 195.14 92.9134 195.186 93.2164 195.233C93.4975 195.277 93.6907 195.541 93.6468 195.824C93.6139 196.048 93.4404 196.218 93.2296 196.256ZM41.686 204.424C41.4687 204.462 41.2425 204.356 41.1371 204.149C41.0075 203.893 41.1085 203.582 41.3633 203.454C41.6399 203.313 41.9188 203.174 42.1955 203.037C42.4524 202.912 42.7598 203.02 42.885 203.276C43.0102 203.533 42.9026 203.842 42.6478 203.968C42.3734 204.102 42.1011 204.239 41.8288 204.376C41.7827 204.4 41.7344 204.415 41.686 204.424ZM90.1883 195.815C90.1378 195.824 90.0851 195.826 90.0302 195.817C89.7272 195.777 89.4241 195.738 89.1189 195.698C88.8357 195.663 88.6358 195.405 88.671 195.12C88.7061 194.836 88.963 194.635 89.2463 194.671C89.5515 194.71 89.8589 194.75 90.1642 194.79C90.4452 194.827 90.645 195.087 90.6077 195.369C90.5792 195.603 90.4035 195.777 90.1883 195.815ZM44.4594 203.093C44.2332 203.132 44.0005 203.015 43.9017 202.797C43.7831 202.537 43.8973 202.23 44.1564 202.111C44.4375 201.984 44.7207 201.856 44.9996 201.73C45.2587 201.615 45.5639 201.732 45.6803 201.992C45.7967 202.253 45.6781 202.559 45.419 202.676C45.1401 202.799 44.8613 202.925 44.5824 203.053C44.5429 203.073 44.5011 203.086 44.4594 203.093ZM87.1382 195.444C87.0921 195.453 87.0416 195.455 86.9933 195.449C86.6903 195.416 86.3851 195.385 86.082 195.356C85.7988 195.33 85.5902 195.076 85.6187 194.792C85.6451 194.507 85.8976 194.3 86.1809 194.327C86.4883 194.357 86.7957 194.388 87.1031 194.421C87.3864 194.452 87.5906 194.708 87.5599 194.99C87.5357 195.224 87.3578 195.405 87.1382 195.444ZM258.552 165.035C258.424 165.057 258.286 165.032 258.172 164.953C257.937 164.792 257.878 164.47 258.038 164.234C258.211 163.981 258.381 163.727 258.55 163.471C258.708 163.233 259.026 163.169 259.263 163.326C259.5 163.485 259.564 163.804 259.408 164.043C259.237 164.3 259.063 164.558 258.888 164.816C258.807 164.935 258.684 165.01 258.552 165.035ZM47.2701 201.845C47.0418 201.884 46.8046 201.765 46.708 201.54C46.5938 201.278 46.7146 200.974 46.9759 200.859L47.8213 200.491C48.0826 200.379 48.3856 200.498 48.4998 200.76C48.614 201.022 48.4932 201.327 48.2319 201.441L47.3865 201.809C47.3492 201.827 47.3097 201.838 47.2701 201.845ZM84.0772 195.171C84.0355 195.178 83.9938 195.18 83.9521 195.178C83.6468 195.156 83.3416 195.136 83.0386 195.118C82.7553 195.103 82.5379 194.858 82.5533 194.571C82.5709 194.287 82.8146 194.069 83.0979 194.084C83.4075 194.102 83.7149 194.122 84.0245 194.144C84.3078 194.163 84.523 194.41 84.5032 194.695C84.4834 194.939 84.3034 195.131 84.0772 195.171ZM50.0896 200.612C49.8591 200.654 49.6219 200.531 49.5275 200.306C49.4155 200.043 49.5363 199.739 49.7998 199.627C50.0852 199.503 50.3707 199.384 50.6562 199.265C50.9197 199.157 51.2205 199.283 51.3281 199.547C51.4357 199.812 51.3105 200.114 51.047 200.222C50.7659 200.339 50.4849 200.458 50.2038 200.577C50.1665 200.595 50.1291 200.606 50.0896 200.612ZM81.0074 195.017C80.9723 195.023 80.9371 195.025 80.902 195.023C80.5968 195.014 80.2915 195.006 79.9863 194.999C79.7009 194.992 79.4769 194.756 79.4813 194.472C79.4879 194.185 79.725 193.961 80.0061 193.965C80.3157 193.972 80.6253 193.978 80.9327 193.989C81.216 193.998 81.44 194.236 81.4312 194.523C81.4246 194.772 81.2424 194.975 81.0074 195.017ZM52.9442 199.466C52.7049 199.508 52.4612 199.375 52.3733 199.137C52.2745 198.87 52.4085 198.571 52.6763 198.471C52.9662 198.363 53.2583 198.255 53.5481 198.152C53.8182 198.057 54.1102 198.196 54.2069 198.465C54.3035 198.734 54.163 199.029 53.8951 199.126C53.6074 199.23 53.3219 199.333 53.0365 199.442C53.0057 199.453 52.975 199.461 52.9442 199.466ZM77.9332 194.979C77.9046 194.984 77.8761 194.988 77.8475 194.988C77.5423 194.99 77.2371 194.995 76.9319 194.999C76.6464 195.003 76.4114 194.776 76.4071 194.492C76.4027 194.205 76.6288 193.969 76.9121 193.965C77.2217 193.958 77.5313 193.956 77.841 193.952C78.1264 193.95 78.357 194.179 78.3592 194.465C78.3592 194.721 78.1769 194.935 77.9332 194.979ZM260.229 162.448C260.109 162.471 259.981 162.448 259.869 162.378C259.628 162.228 259.553 161.908 259.702 161.666C259.863 161.406 260.021 161.143 260.179 160.881C260.326 160.636 260.642 160.557 260.886 160.702C261.13 160.85 261.209 161.168 261.064 161.412C260.906 161.679 260.743 161.944 260.581 162.21C260.497 162.34 260.368 162.424 260.229 162.448ZM55.8472 198.454C55.5968 198.498 55.3465 198.352 55.2675 198.103C55.1796 197.832 55.329 197.539 55.599 197.453C55.8933 197.358 56.1897 197.263 56.4862 197.173C56.7607 197.089 57.0461 197.243 57.1296 197.515C57.213 197.788 57.0593 198.077 56.7892 198.161C56.4972 198.251 56.2073 198.344 55.9152 198.436C55.8933 198.443 55.8691 198.449 55.8472 198.454ZM74.8612 195.061C74.8392 195.065 74.8173 195.067 74.7953 195.067C74.4901 195.081 74.1848 195.098 73.8796 195.116C73.5964 195.131 73.3526 194.915 73.335 194.629C73.3175 194.344 73.5349 194.099 73.8203 194.082C74.1299 194.064 74.4374 194.047 74.747 194.033C75.0303 194.02 75.2718 194.241 75.285 194.527C75.2981 194.79 75.1115 195.017 74.8612 195.061ZM58.794 197.574C58.5349 197.62 58.278 197.462 58.2077 197.202C58.1331 196.926 58.2934 196.642 58.5701 196.567C58.8687 196.485 59.1673 196.406 59.4682 196.326C59.7426 196.256 60.0237 196.421 60.0962 196.697C60.1664 196.972 60.0018 197.254 59.7273 197.327C59.4308 197.404 59.1366 197.484 58.8423 197.563C58.8248 197.568 58.8094 197.57 58.794 197.574ZM71.7935 195.266C71.7782 195.268 71.7628 195.27 71.7474 195.272C71.4422 195.299 71.1392 195.328 70.8362 195.356C70.5529 195.385 70.3004 195.175 70.2718 194.891C70.2433 194.607 70.4541 194.353 70.7351 194.324C71.0426 194.294 71.3522 194.265 71.6596 194.238C71.9429 194.214 72.1932 194.424 72.2174 194.71C72.2393 194.981 72.0527 195.219 71.7935 195.266ZM68.7369 195.592C68.7281 195.594 68.7215 195.594 68.7128 195.596C68.4097 195.636 68.1067 195.676 67.8059 195.718C67.5248 195.757 67.2635 195.559 67.224 195.277C67.1844 194.995 67.3799 194.732 67.6631 194.693C67.9706 194.648 68.2758 194.609 68.5832 194.569C68.8665 194.534 69.1234 194.734 69.1585 195.017C69.1936 195.292 69.0048 195.546 68.7369 195.592ZM61.776 196.825C61.5059 196.873 61.2446 196.699 61.1853 196.43C61.1216 196.152 61.2973 195.874 61.574 195.81C61.877 195.742 62.1779 195.676 62.4809 195.61C62.762 195.552 63.032 195.729 63.0913 196.009C63.1506 196.289 62.9728 196.562 62.6939 196.622C62.3952 196.686 62.0966 196.752 61.8002 196.82C61.7914 196.822 61.7848 196.825 61.776 196.825ZM65.6737 195.916C65.6715 195.916 65.6715 195.916 65.6693 195.916C65.509 195.945 65.3487 195.971 65.1862 196L64.7668 196.075H64.7646C64.4857 196.123 64.231 196.002 64.1805 195.722C64.13 195.44 64.321 195.204 64.5999 195.153L65.0281 195.094C65.1906 195.065 65.3553 195.045 65.5178 195.017C65.7988 194.968 66.0536 195.098 66.1019 195.378C66.1502 195.66 65.9525 195.865 65.6737 195.916ZM261.78 159.792C261.668 159.812 261.549 159.794 261.442 159.734C261.193 159.596 261.103 159.28 261.24 159.031C261.387 158.764 261.532 158.495 261.674 158.229C261.808 157.977 262.12 157.88 262.373 158.017C262.623 158.151 262.717 158.465 262.583 158.718C262.439 158.991 262.291 159.263 262.14 159.534C262.063 159.675 261.927 159.765 261.78 159.792ZM263.196 157.065C263.093 157.082 262.983 157.069 262.88 157.02C262.625 156.895 262.518 156.586 262.643 156.328C262.777 156.055 262.908 155.779 263.036 155.504C263.157 155.246 263.464 155.133 263.721 155.254C263.978 155.376 264.09 155.684 263.969 155.942C263.837 156.222 263.703 156.502 263.569 156.782C263.495 156.937 263.354 157.036 263.196 157.065ZM264.47 154.265C264.375 154.282 264.274 154.271 264.18 154.231C263.919 154.119 263.796 153.817 263.908 153.552C264.026 153.272 264.143 152.99 264.257 152.708C264.364 152.443 264.663 152.316 264.929 152.424C265.192 152.532 265.32 152.832 265.212 153.098C265.096 153.387 264.977 153.674 264.856 153.958C264.784 154.123 264.637 154.236 264.47 154.265ZM265.59 151.396C265.504 151.412 265.414 151.405 265.326 151.374C265.058 151.277 264.92 150.982 265.016 150.713C265.12 150.426 265.221 150.137 265.317 149.849C265.41 149.577 265.702 149.434 265.972 149.524C266.242 149.617 266.384 149.91 266.294 150.181C266.196 150.477 266.092 150.77 265.987 151.063C265.921 151.244 265.765 151.365 265.59 151.396ZM266.545 148.468C266.468 148.482 266.389 148.477 266.31 148.455C266.038 148.374 265.882 148.087 265.961 147.814C266.046 147.52 266.13 147.227 266.211 146.932C266.286 146.656 266.571 146.493 266.846 146.57C267.12 146.645 267.28 146.932 267.206 147.207C267.122 147.507 267.039 147.807 266.951 148.107C266.894 148.299 266.731 148.435 266.545 148.468ZM267.327 145.481C267.261 145.492 267.19 145.492 267.122 145.474C266.846 145.41 266.672 145.133 266.736 144.855C266.804 144.557 266.87 144.257 266.933 143.96C266.993 143.68 267.265 143.501 267.544 143.561C267.823 143.62 268.001 143.894 267.941 144.174C267.878 144.48 267.81 144.784 267.739 145.089C267.691 145.298 267.524 145.448 267.327 145.481ZM267.924 142.449C267.869 142.458 267.81 142.46 267.75 142.449C267.469 142.403 267.28 142.136 267.327 141.854C267.377 141.552 267.423 141.25 267.467 140.946C267.509 140.664 267.77 140.467 268.051 140.509C268.332 140.551 268.528 140.814 268.486 141.096C268.44 141.407 268.394 141.715 268.341 142.024C268.306 142.247 268.135 142.412 267.924 142.449ZM268.332 139.389C268.286 139.398 268.24 139.4 268.189 139.394C267.906 139.365 267.7 139.112 267.728 138.827C267.759 138.523 267.785 138.221 267.812 137.914C267.836 137.63 268.084 137.418 268.367 137.44C268.651 137.465 268.861 137.714 268.839 137.998C268.813 138.309 268.787 138.62 268.754 138.929C268.73 139.167 268.552 139.35 268.332 139.389ZM268.545 136.312C268.51 136.318 268.473 136.32 268.435 136.318C268.152 136.307 267.93 136.067 267.941 135.78C267.952 135.474 267.963 135.169 267.97 134.865C267.977 134.579 268.211 134.352 268.497 134.358C268.782 134.365 269.006 134.601 269.002 134.887C268.995 135.198 268.987 135.509 268.973 135.822C268.96 136.069 268.778 136.27 268.545 136.312ZM268.576 133.225C268.55 133.229 268.523 133.232 268.497 133.234C268.211 133.24 267.977 133.013 267.972 132.727C267.966 132.42 267.957 132.116 267.946 131.812C267.935 131.527 268.157 131.285 268.44 131.274C268.723 131.263 268.965 131.485 268.976 131.77C268.987 132.081 268.998 132.392 269.004 132.705C269.006 132.965 268.822 133.183 268.576 133.225ZM268.418 130.145C268.402 130.147 268.387 130.149 268.37 130.152C268.086 130.176 267.836 129.964 267.814 129.68C267.79 129.375 267.761 129.071 267.731 128.767C267.702 128.483 267.906 128.227 268.192 128.2C268.475 128.172 268.727 128.379 268.756 128.663C268.787 128.972 268.815 129.283 268.842 129.594C268.864 129.861 268.677 130.099 268.418 130.145ZM268.069 127.087C268.064 127.087 268.058 127.089 268.053 127.089C267.772 127.14 267.509 126.933 267.469 126.648C267.425 126.346 267.37 126.002 267.32 125.702C267.274 125.422 267.454 125.116 267.731 125.067C267.733 125.067 267.735 125.067 267.735 125.067C268.016 125.017 268.288 125.25 268.334 125.533C268.385 125.839 268.438 126.17 268.482 126.481C268.525 126.756 268.343 127.038 268.069 127.087ZM267.502 123.921C267.23 123.969 266.977 123.855 266.92 123.581C266.857 123.282 266.795 123.015 266.727 122.717C266.663 122.439 266.837 122.177 267.114 122.111C267.39 122.047 267.669 122.226 267.733 122.506C267.803 122.81 267.86 123.057 267.926 123.361C267.985 123.641 267.799 123.868 267.52 123.917C267.515 123.919 267.509 123.919 267.502 123.921ZM266.789 121.048C266.532 121.095 266.275 120.936 266.204 120.678C266.121 120.382 266.038 120.091 265.95 119.798C265.868 119.525 266.022 119.236 266.294 119.154C266.569 119.073 266.854 119.227 266.936 119.501C267.026 119.798 267.111 120.098 267.195 120.398C267.272 120.673 267.111 120.958 266.839 121.035C266.821 121.042 266.804 121.046 266.789 121.048ZM265.866 118.107C265.623 118.151 265.377 118.01 265.291 117.768C265.19 117.479 265.087 117.192 264.981 116.906C264.883 116.639 265.019 116.339 265.284 116.24C265.552 116.141 265.849 116.277 265.948 116.544C266.055 116.835 266.161 117.128 266.264 117.424C266.358 117.693 266.215 117.988 265.948 118.083C265.919 118.096 265.893 118.103 265.866 118.107ZM264.764 115.23C264.531 115.272 264.294 115.148 264.2 114.921C264.081 114.641 263.962 114.361 263.84 114.081C263.725 113.819 263.842 113.515 264.103 113.4C264.364 113.285 264.667 113.402 264.782 113.665C264.907 113.949 265.027 114.233 265.148 114.52C265.258 114.782 265.135 115.087 264.874 115.197C264.839 115.212 264.801 115.223 264.764 115.23ZM263.495 112.428C263.275 112.467 263.047 112.357 262.944 112.146C262.81 111.872 262.673 111.599 262.535 111.328C262.406 111.074 262.507 110.761 262.759 110.631C263.012 110.501 263.323 110.602 263.453 110.856C263.594 111.134 263.734 111.411 263.87 111.689C263.995 111.945 263.89 112.256 263.635 112.381C263.587 112.404 263.541 112.419 263.495 112.428ZM262.065 109.698C261.857 109.736 261.637 109.639 261.527 109.443C261.378 109.176 261.226 108.911 261.073 108.647C260.93 108.4 261.011 108.082 261.257 107.939C261.503 107.796 261.819 107.879 261.962 108.124C262.118 108.393 262.274 108.664 262.425 108.935C262.566 109.185 262.478 109.5 262.23 109.641C262.175 109.67 262.12 109.69 262.065 109.698ZM260.486 107.048C260.287 107.084 260.076 106.998 259.962 106.815C259.799 106.557 259.632 106.299 259.465 106.041C259.309 105.803 259.375 105.481 259.615 105.324C259.852 105.168 260.172 105.234 260.328 105.472C260.5 105.732 260.666 105.994 260.833 106.259C260.985 106.499 260.915 106.819 260.673 106.973C260.614 107.013 260.55 107.037 260.486 107.048ZM258.771 104.48C258.58 104.513 258.381 104.438 258.26 104.268C258.084 104.017 257.904 103.768 257.724 103.518C257.557 103.287 257.608 102.963 257.838 102.795C258.069 102.628 258.392 102.678 258.558 102.91C258.741 103.164 258.923 103.417 259.103 103.671C259.268 103.904 259.213 104.226 258.98 104.392C258.914 104.438 258.844 104.467 258.771 104.48ZM256.933 101.995C256.751 102.028 256.558 101.96 256.437 101.803C256.251 101.561 256.062 101.32 255.871 101.082C255.693 100.86 255.728 100.533 255.952 100.355C256.174 100.176 256.499 100.211 256.677 100.436C256.87 100.679 257.063 100.924 257.252 101.168C257.428 101.393 257.386 101.719 257.162 101.894C257.092 101.947 257.015 101.98 256.933 101.995ZM254.992 99.6029C254.819 99.6338 254.632 99.5742 254.509 99.4287C254.312 99.195 254.112 98.9635 253.912 98.732C253.725 98.516 253.747 98.1897 253.96 98.0023C254.175 97.8149 254.5 97.8369 254.687 98.0508C254.891 98.2845 255.093 98.5204 255.293 98.7563C255.478 98.9746 255.451 99.3009 255.234 99.4861C255.164 99.5478 255.08 99.5875 254.992 99.6029ZM252.952 97.2924C252.785 97.321 252.608 97.2681 252.485 97.1336C252.278 96.9087 252.07 96.6839 251.859 96.4612C251.663 96.2539 251.672 95.9254 251.881 95.7292C252.087 95.533 252.414 95.5418 252.61 95.7513C252.823 95.9783 253.034 96.2054 253.242 96.4325C253.435 96.642 253.422 96.9705 253.214 97.1645C253.137 97.2328 253.047 97.2769 252.952 97.2924ZM250.827 95.0634C250.666 95.092 250.495 95.0435 250.372 94.9179C250.157 94.6996 249.94 94.4835 249.722 94.2675C249.52 94.0669 249.518 93.7383 249.718 93.5355C249.918 93.3327 250.243 93.3305 250.447 93.5311C250.667 93.7494 250.886 93.9676 251.103 94.1881C251.303 94.391 251.303 94.7172 251.101 94.9201C251.022 94.9994 250.928 95.0457 250.827 95.0634ZM248.622 92.9138C248.468 92.9402 248.302 92.8984 248.179 92.7815C247.957 92.5721 247.733 92.3626 247.507 92.1532C247.298 91.9591 247.285 91.6328 247.478 91.4212C247.671 91.2117 247.996 91.1985 248.207 91.3903C248.435 91.5998 248.662 91.8114 248.886 92.0253C249.092 92.2215 249.103 92.5478 248.908 92.7572C248.829 92.8432 248.728 92.8939 248.622 92.9138ZM246.349 90.8347C246.2 90.8612 246.042 90.8215 245.919 90.7135C245.691 90.5106 245.46 90.3078 245.227 90.1072C245.012 89.9198 244.988 89.5935 245.175 89.3774C245.361 89.1614 245.686 89.1371 245.901 89.3245C246.134 89.5273 246.367 89.7324 246.6 89.9374C246.813 90.127 246.835 90.4533 246.646 90.6672C246.565 90.7598 246.459 90.8171 246.349 90.8347ZM244.013 88.8284C243.868 88.8549 243.714 88.8174 243.594 88.716C243.356 88.5198 243.119 88.3236 242.882 88.1273C242.663 87.9465 242.63 87.6203 242.81 87.3998C242.99 87.1793 243.315 87.1462 243.534 87.327C243.774 87.5232 244.013 87.7217 244.252 87.9201C244.472 88.1031 244.501 88.4294 244.318 88.6477C244.239 88.7469 244.129 88.8086 244.013 88.8284ZM241.613 86.8817C241.475 86.9059 241.325 86.8728 241.204 86.778C240.963 86.5884 240.721 86.3988 240.478 86.2092C240.254 86.0351 240.212 85.7088 240.385 85.4839C240.559 85.2568 240.884 85.2171 241.108 85.3913C241.354 85.5809 241.598 85.7727 241.841 85.9645C242.065 86.1409 242.103 86.4672 241.927 86.6921C241.848 86.7957 241.734 86.8596 241.613 86.8817ZM239.167 84.9988C239.031 85.0231 238.888 84.9922 238.769 84.904C238.523 84.7188 238.277 84.5358 238.029 84.3529C237.801 84.1831 237.75 83.859 237.919 83.6297C238.089 83.4004 238.411 83.3497 238.64 83.5195C238.89 83.7047 239.138 83.8899 239.386 84.0751C239.615 84.247 239.661 84.5711 239.492 84.7982C239.408 84.9084 239.292 84.9768 239.167 84.9988ZM236.677 83.1777C236.545 83.202 236.407 83.1733 236.288 83.0895C236.038 82.911 235.787 82.7324 235.535 82.556C235.302 82.3907 235.245 82.0688 235.41 81.8351C235.572 81.6014 235.895 81.544 236.128 81.7094C236.38 81.888 236.633 82.0666 236.885 82.2473C237.118 82.4127 237.171 82.7368 237.006 82.9683C236.927 83.0829 236.806 83.1535 236.677 83.1777ZM234.151 81.4118C234.024 81.4338 233.888 81.4096 233.771 81.3302C233.519 81.156 233.264 80.984 233.01 80.8121C232.772 80.6533 232.711 80.3314 232.869 80.0933C233.027 79.8552 233.348 79.7935 233.585 79.9522C233.842 80.1242 234.096 80.2984 234.351 80.4725C234.586 80.6335 234.648 80.9554 234.487 81.1913C234.406 81.3125 234.283 81.3875 234.151 81.4118ZM231.591 79.6987C231.466 79.7207 231.334 79.6965 231.22 79.6215C230.963 79.454 230.706 79.2864 230.449 79.1188C230.21 78.9645 230.142 78.6448 230.295 78.4045C230.449 78.1642 230.77 78.0959 231.007 78.2502C231.266 78.4177 231.525 78.5875 231.782 78.7551C232.021 78.9116 232.087 79.2313 231.931 79.4716C231.852 79.5973 231.725 79.6744 231.591 79.6987ZM229.002 78.0363C228.881 78.0584 228.752 78.0363 228.64 77.9658C228.381 77.8026 228.122 77.6395 227.86 77.4785C227.619 77.3286 227.544 77.0089 227.693 76.7664C227.843 76.5239 228.161 76.4489 228.403 76.5988C228.664 76.762 228.925 76.9251 229.187 77.0905C229.428 77.2426 229.501 77.5623 229.349 77.8048C229.268 77.9305 229.14 78.0121 229.002 78.0363ZM226.387 76.4181C226.268 76.4401 226.141 76.4181 226.031 76.3519C225.77 76.1932 225.506 76.0344 225.245 75.8757C225.001 75.728 224.922 75.4105 225.067 75.1658C225.214 74.9211 225.53 74.8417 225.774 74.9872C226.038 75.1459 226.301 75.3047 226.565 75.4656C226.808 75.6133 226.885 75.9308 226.738 76.1755C226.659 76.31 226.53 76.3938 226.387 76.4181ZM223.752 74.8439C223.635 74.8637 223.512 74.8461 223.403 74.7822C223.139 74.6278 222.873 74.4735 222.61 74.3192C222.364 74.1759 222.281 73.8606 222.423 73.6114C222.566 73.3645 222.88 73.2807 223.128 73.424C223.394 73.5784 223.66 73.7327 223.923 73.8892C224.169 74.0326 224.252 74.35 224.108 74.597C224.028 74.7314 223.895 74.8196 223.752 74.8439ZM221.09 73.305C220.976 73.3248 220.855 73.3072 220.748 73.2455C220.48 73.0933 220.214 72.9412 219.946 72.7913C219.698 72.6524 219.61 72.3349 219.749 72.0858C219.889 71.8367 220.203 71.7485 220.449 71.8874C220.717 72.0395 220.985 72.1916 221.255 72.3437C221.503 72.4848 221.589 72.8001 221.448 73.0492C221.369 73.1904 221.235 73.2807 221.09 73.305ZM218.405 71.7992C218.293 71.819 218.174 71.8014 218.067 71.7418L217.259 71.2965C217.008 71.1598 216.916 70.8445 217.054 70.5954C217.191 70.3441 217.505 70.2515 217.753 70.3904L218.563 70.8357C218.813 70.9724 218.903 71.2877 218.765 71.539C218.688 71.6823 218.554 71.7727 218.405 71.7992ZM215.702 70.3264C215.592 70.3463 215.476 70.3308 215.368 70.2735L214.555 69.837C214.305 69.7025 214.209 69.3894 214.342 69.1381C214.476 68.8867 214.788 68.7897 215.039 68.9242L215.853 69.3607C216.104 69.4952 216.198 69.8083 216.064 70.0618C215.989 70.2052 215.853 70.3 215.702 70.3264ZM212.985 68.8801C212.878 68.9 212.761 68.8845 212.658 68.8294L211.841 68.4017C211.589 68.2694 211.49 67.9563 211.622 67.705C211.754 67.4515 212.065 67.3522 212.316 67.4845L213.135 67.9145C213.387 68.0467 213.484 68.3598 213.352 68.6133C213.275 68.7567 213.137 68.8515 212.985 68.8801ZM210.256 67.4581C210.148 67.4779 210.034 67.4625 209.931 67.4096L209.112 66.9885C208.859 66.8584 208.758 66.5475 208.888 66.2918C209.018 66.0382 209.327 65.9368 209.582 66.0669L210.405 66.4902C210.658 66.6203 210.759 66.9334 210.627 67.1869C210.548 67.3346 210.41 67.4316 210.256 67.4581ZM207.513 66.0581C207.408 66.0757 207.296 66.0625 207.193 66.0096L206.369 65.5929C206.115 65.465 206.011 65.1541 206.141 64.8984C206.268 64.6426 206.578 64.539 206.833 64.6691L207.658 65.0858C207.913 65.2137 208.014 65.5245 207.887 65.7803C207.81 65.9324 207.669 66.0316 207.513 66.0581ZM204.764 64.6757C204.659 64.6934 204.549 64.6801 204.446 64.6294L203.62 64.2171C203.365 64.0893 203.26 63.7806 203.387 63.5248C203.515 63.2691 203.822 63.1633 204.077 63.2911L204.902 63.7034C205.157 63.8313 205.26 64.1422 205.135 64.3979C205.061 64.5478 204.92 64.6471 204.764 64.6757Z" fill="#00BCAA"/>
<path d="M199.219 54.4436L198.218 60.2949L194.7 57.0981L199.219 54.4436Z" fill="#00BCAA"/>
<path d="M173.585 46.5574L186.951 63.1369C187.208 63.4544 187.581 63.6528 187.985 63.6881C188.392 63.7233 188.793 63.591 189.099 63.3221L205.172 49.2207C205.357 49.0597 205.425 48.8018 205.344 48.5703C205.265 48.3388 205.052 48.1778 204.808 48.1668L173.585 46.5574Z" fill="#0BB7A2"/>
<path d="M199.217 54.4437L173.585 46.5574L196.631 56.7277L196.422 58.3614L199.217 54.4437Z" fill="#00BCAA"/>
<path d="M195.087 58.0705L198.218 60.295L196.631 56.7278L195.087 58.0705Z" fill="#00BCAA"/>
</g>
<defs>
<linearGradient id="paint0_linear" x1="118.941" y1="219.404" x2="125.365" y2="219.05" gradientUnits="userSpaceOnUse">
<stop stop-color="#F9B776"/>
<stop offset="1" stop-color="#F47960"/>
</linearGradient>
<linearGradient id="paint1_linear" x1="109.112" y1="202.831" x2="134.442" y2="162.989" gradientUnits="userSpaceOnUse">
<stop stop-color="#2B3582"/>
<stop offset="0.2305" stop-color="#252A70"/>
<stop offset="0.7285" stop-color="#19164F"/>
<stop offset="1" stop-color="#150E42"/>
</linearGradient>
<linearGradient id="paint2_linear" x1="100.139" y1="219.88" x2="98.8676" y2="170.838" gradientUnits="userSpaceOnUse">
<stop stop-color="#2B3582"/>
<stop offset="1" stop-color="#150E42"/>
</linearGradient>
<linearGradient id="paint3_linear" x1="129.204" y1="154.783" x2="150.237" y2="153.625" gradientUnits="userSpaceOnUse">
<stop stop-color="#FF928E"/>
<stop offset="1" stop-color="#FEB3B1"/>
</linearGradient>
<linearGradient id="paint4_linear" x1="116.992" y1="114.09" x2="108.585" y2="142.733" gradientUnits="userSpaceOnUse">
<stop stop-color="#FF928E"/>
<stop offset="1" stop-color="#FEB3B1"/>
</linearGradient>
<linearGradient id="paint5_linear" x1="95.9996" y1="127.077" x2="96.5898" y2="165.439" gradientUnits="userSpaceOnUse">
<stop stop-color="#FF928E"/>
<stop offset="1" stop-color="#FEB3B1"/>
</linearGradient>
<linearGradient id="paint6_linear" x1="130.093" y1="107.769" x2="112.629" y2="119.462" gradientUnits="userSpaceOnUse">
<stop stop-color="#FF928E"/>
<stop offset="1" stop-color="#FEB3B1"/>
</linearGradient>
<linearGradient id="paint7_linear" x1="103.095" y1="133.366" x2="112.153" y2="115.375" gradientUnits="userSpaceOnUse">
<stop stop-color="#F9B776"/>
<stop offset="1" stop-color="#F47960"/>
</linearGradient>
<linearGradient id="paint8_linear" x1="172.553" y1="163.196" x2="110.846" y2="163.887" gradientUnits="userSpaceOnUse">
<stop stop-color="#53D8FF"/>
<stop offset="1" stop-color="#3840F7"/>
</linearGradient>
<linearGradient id="paint9_linear" x1="125.626" y1="196.702" x2="144.984" y2="196.702" gradientUnits="userSpaceOnUse">
<stop stop-color="#DAE3FE"/>
<stop offset="1" stop-color="#E9EFFD"/>
</linearGradient>
<linearGradient id="paint10_linear" x1="148.144" y1="196.944" x2="169.828" y2="196.944" gradientUnits="userSpaceOnUse">
<stop stop-color="#DAE3FE"/>
<stop offset="1" stop-color="#E9EFFD"/>
</linearGradient>
<linearGradient id="paint11_linear" x1="171.145" y1="197.054" x2="185.63" y2="197.054" gradientUnits="userSpaceOnUse">
<stop stop-color="#DAE3FE"/>
<stop offset="1" stop-color="#E9EFFD"/>
</linearGradient>
<linearGradient id="paint12_linear" x1="187.913" y1="196.944" x2="207.094" y2="196.944" gradientUnits="userSpaceOnUse">
<stop stop-color="#DAE3FE"/>
<stop offset="1" stop-color="#E9EFFD"/>
</linearGradient>
<linearGradient id="paint13_linear" x1="84.9312" y1="196.899" x2="116.781" y2="196.899" gradientUnits="userSpaceOnUse">
<stop stop-color="#DAE3FE"/>
<stop offset="1" stop-color="#E9EFFD"/>
</linearGradient>
<linearGradient id="paint14_linear" x1="100.328" y1="195.154" x2="108.892" y2="195.154" gradientUnits="userSpaceOnUse">
<stop stop-color="#DAE3FE"/>
<stop offset="1" stop-color="#E9EFFD"/>
</linearGradient>
<clipPath id="clip0">
<rect width="269" height="215" fill="white" transform="translate(0 9)"/>
</clipPath>
</defs>
</svg>
