<svg width="285" height="275" viewBox="0 0 285 275" fill="none" xmlns="http://www.w3.org/2000/svg">
<path d="M153.615 18.6352H190.822L199.441 23.6618C199.441 23.6618 204.708 29.8887 204.229 38.0287C203.751 46.1687 204.262 88.5474 204.262 88.5474V134.757V180.727V215.205L202.475 229.333L195.371 236.277L139.978 237.234L107.006 234.448C107.006 234.448 97.9322 228.132 98.5184 221.427C99.1046 214.722 98.5184 162.047 98.5184 162.047L98.4902 104.584V64.3571V31.8018C98.4902 31.8018 98.6215 19.1135 119.696 18.6306C140.771 18.1476 153.615 18.6352 153.615 18.6352Z" fill="white"/>
<path d="M204.872 168.522C204.872 168.522 209.5 170.758 210.138 165.169C210.776 159.585 208.384 138.353 216.366 138.194C224.347 138.034 219.24 150.483 224.825 145.537C230.411 140.59 232.807 124.305 245.258 123.667C257.708 123.03 250.683 139.629 242.064 144.421C233.445 149.208 236.798 155.594 243.499 154C250.205 152.406 250.683 163.58 240.465 166.928C230.246 170.28 224.661 174.27 226.256 177.782C227.85 181.295 233.121 179.377 233.918 178.739C234.716 178.101 245.412 174.43 246.21 182.41C247.007 190.391 225.956 210.825 205.988 205.715L202.466 190.55L204.872 168.522Z" fill="#00B37B"/>
<path d="M248.053 126.26C248.053 126.26 218.898 148.646 205.997 196.295" stroke="white" stroke-miterlimit="10" stroke-linecap="round"/>
<path d="M246.257 158.689C246.257 158.689 227.499 159.139 218.438 164.428" stroke="white" stroke-miterlimit="10" stroke-linecap="round"/>
<path d="M215.967 141.584C215.967 141.584 219.62 156.214 219.348 162.726" stroke="white" stroke-miterlimit="10" stroke-linecap="round"/>
<path d="M242.904 184.324C242.904 184.324 210.668 193.181 205.997 197.612" stroke="white" stroke-miterlimit="10" stroke-linecap="round"/>
<path d="M189.537 16H113.384C104.291 16 96.9189 23.371 96.9189 32.4629V224.372C96.9189 233.464 104.291 240.835 113.384 240.835H189.537C198.63 240.835 206.002 233.464 206.002 224.372V32.4629C205.997 23.371 198.625 16 189.537 16ZM201.326 219.758C201.326 226.768 195.642 232.446 188.636 232.446H114.284C107.273 232.446 101.594 226.763 101.594 219.758V34.1978C101.594 27.1878 107.278 21.5095 114.284 21.5095H132.053C133.825 21.5095 135.265 22.949 135.265 24.7214V29.1994C135.265 31.1312 136.831 32.702 138.768 32.702H167.885C169.817 32.702 171.388 31.1359 171.388 29.1994V24.7214C171.388 22.949 172.828 21.5095 174.601 21.5095H188.641C195.652 21.5095 201.331 27.1925 201.331 34.1978V219.758H201.326Z" fill="#2C3539"/>
<path d="M70.489 262.859V268.007H62.3902L59.7969 266.169V261.461H70.489V262.859Z" fill="#FFBF9E"/>
<path d="M100.066 261.677V269.025H91.9624L89.3691 266.404V259.684H100.066V261.677Z" fill="#FFBF9E"/>
<path d="M57.1992 138.832H90.007L105.332 193.425L102.697 260.467H85.4535L88.089 195.582L73.9595 156.073L75.6337 262.859H58.3997L57.1992 168.7C57.1992 168.7 57.0773 159.899 55.7642 156.251C54.4465 152.598 54.1464 141.523 57.1992 138.832Z" fill="#2C3539"/>
<path d="M85.4576 67.2971C85.4576 67.2971 86.8926 69.5993 86.9254 73.4912C86.9535 77.383 87.4928 81.514 81.8982 81.5421L82.1655 87.4689L79.1736 90.3432L75.5205 86.9906L73.2461 80.4683L74.8921 70.1104C74.8921 70.1104 80.7868 65.0558 85.4576 67.2971Z" fill="#FFBF9E"/>
<path d="M159.252 55.4856C158.83 52.9676 156.645 51.0452 154.004 51.0452C151.364 51.0452 149.179 52.9676 148.757 55.4856H159.252Z" fill="#00B37B"/>
<path d="M171.904 58.6787H135.326V63.588H171.904V58.6787Z" fill="#00B37B"/>
<path d="M127.486 77.894H114.674V81.4248H127.486V77.894Z" fill="#00B37B"/>
<path d="M157.896 90.4042H121.079V94.7133H157.896V90.4042Z" fill="#00B37B"/>
<path d="M134.248 110.159H114.674V114.35H134.248V110.159Z" fill="#00B37B"/>
<path d="M156.279 124.104H119.701V128.413H156.279V124.104Z" fill="#00B37B"/>
<path d="M134.247 144.876H113.834V148.828H134.247V144.876Z" fill="#00B37B"/>
<path d="M179.928 206.521H123.771C122.777 206.521 121.975 205.719 121.975 204.725V191.746C121.975 190.752 122.777 189.95 123.771 189.95H179.923C180.917 189.95 181.719 190.752 181.719 191.746V204.725C181.724 205.719 180.917 206.521 179.928 206.521Z" fill="#00B37B"/>
<path d="M187.23 132.605H116.47C115.476 132.605 114.674 131.803 114.674 130.809V121.15C114.674 120.155 115.476 119.354 116.47 119.354H187.23C188.224 119.354 189.026 120.155 189.026 121.15V130.809C189.026 131.803 188.224 132.605 187.23 132.605Z" stroke="#00B37B" stroke-miterlimit="10"/>
<path d="M191.901 99.1819H116.47C115.476 99.1819 114.674 98.3801 114.674 97.386V87.7268C114.674 86.7327 115.476 85.9309 116.47 85.9309H191.901C192.895 85.9309 193.697 86.7327 193.697 87.7268V97.386C193.697 98.3801 192.89 99.1819 191.901 99.1819Z" stroke="#00B37B" stroke-miterlimit="10"/>
<path d="M187.23 167.903H116.47C115.476 167.903 114.674 167.101 114.674 166.107V156.448C114.674 155.454 115.476 154.652 116.47 154.652H187.23C188.224 154.652 189.026 155.454 189.026 156.448V166.107C189.026 167.097 188.224 167.903 187.23 167.903Z" stroke="#00B37B" stroke-miterlimit="10"/>
<path d="M112.118 88.9693L113.356 89.3304L131.556 71.85C131.556 71.85 134.848 67.841 131.884 63.4381C128.92 59.0398 134.219 62.4815 134.43 64.7228C134.641 66.9642 135.837 68.4037 137.155 66.936C138.473 65.4684 142.215 60.1136 143.111 61.0983C144.006 62.0877 138.022 67.8644 139.983 67.9535C141.943 68.0426 144.396 71.7563 142.332 73.4302C140.269 75.1042 124.732 93.5739 124.732 93.5739L119.583 98.9193C119.583 98.9193 117.389 101.554 112.122 100.795C106.856 100.035 109.567 91.1356 109.567 91.1356L112.118 88.9693Z" fill="#FFBF9E"/>
<path d="M46.8772 123.002C46.8772 123.002 41.3155 141.945 40.0399 149.926C38.7644 157.906 38.6425 161.221 36.8464 163.913C35.0503 166.604 32.2366 172.414 33.1932 172.053C34.1499 171.692 34.45 171.753 35.2285 169.896C36.0069 168.039 36.4853 167.111 37.0855 167.021C37.6858 166.932 35.0784 174.294 35.7678 174.144C36.4571 173.994 36.8745 175.011 37.8921 169.713C38.9098 164.414 39.7163 169.835 39.1489 171.359C38.5815 172.887 38.3095 175.701 38.9989 175.34C39.6882 174.979 40.3166 174.083 40.4948 170.552C40.673 167.021 42.591 167.411 42.5301 168.128C42.4691 168.845 40.3729 175.851 41.5734 175.19C42.7739 174.528 43.5195 172.855 43.7587 169.624C43.9979 166.393 45.9159 165.432 46.6005 166.271C47.2899 167.111 48.2184 169.952 50.1646 169.474C50.1646 169.474 50.943 168.667 49.3251 167.65C47.7073 166.632 46.9616 157.742 48.5186 153.016C50.0755 148.284 52.3217 140.088 51.5292 138.41L55.7592 126.204L55.1683 122.491L46.8772 123.002Z" fill="#FFBF9E"/>
<path d="M82.0717 85.4339C82.0717 85.4339 86.5736 84.4773 99.3478 86.3951C112.117 88.3129 112.117 88.3129 112.117 88.3129V102.122L91.7649 101.245C91.7649 101.245 93.922 106.75 91.2068 109.863C88.4916 112.977 87.216 118.561 88.1727 122.153C89.1294 125.745 90.8082 135.08 90.0063 138.832C89.2091 142.583 57.1985 138.832 57.1985 138.832C57.1985 138.832 55.8432 132.844 61.5082 126.622C67.1731 120.399 62.3054 109.863 62.3054 109.863C62.3054 109.863 59.5995 112.362 59.3932 114.623C59.1916 116.883 56.2372 126.382 56.2372 126.382L45.6201 122.552C45.6201 122.552 50.0283 101.798 54.8069 98.6098C59.5855 95.4166 78.864 86.9578 78.864 86.9578C78.864 86.9578 80.918 89.4242 82.0717 85.4339Z" fill="#00B37B"/>
<path d="M83.1417 69.4727C83.1417 69.4727 91.9204 66.2796 89.1302 59.8135C86.3352 53.3475 73.3265 55.9826 71.1694 59.8135C69.0122 63.6444 69.7344 63.4052 67.8961 64.0429C66.0578 64.6806 65.8984 68.5912 65.8186 71.4655C65.7389 74.3398 64.1445 82.2407 59.9099 84.4727C55.6752 86.7046 57.673 92.0547 54.0011 96.7624C50.3292 101.47 50.8075 109.934 54.9577 112.724C59.1079 115.518 71.3991 117.67 77.2282 113.202C83.0573 108.733 82.0162 102.506 81.219 97.8783C80.4218 93.2503 79.2212 87.3423 79.784 82.3955L80.9001 83.9897C80.9001 83.9897 80.342 76.7265 82.8978 75.9294C82.8978 75.9294 79.3479 75.3714 79.587 72.4361C79.8262 69.5009 81.5613 70.0729 81.7442 71.0295C81.7442 71.0388 81.6317 70.1667 83.1417 69.4727Z" fill="#2C3539"/>
<path d="M59.9566 270H78.8741C78.8741 270 79.9527 267.684 76.1589 267.126C72.3651 266.568 71.3709 266.446 70.4893 265.091C70.4893 265.091 69.3309 269.442 59.7925 266.169C59.7972 266.169 57.64 269.081 59.9566 270Z" fill="#00B37B"/>
<path d="M89.5289 270H108.446C108.446 270 109.525 267.684 105.731 267.126C101.937 266.568 100.943 266.446 100.062 265.091C100.062 265.091 98.9032 269.442 89.3648 266.169C89.3694 266.169 87.2123 269.081 89.5289 270Z" fill="#00B37B"/>
<path d="M154.004 50.3605C155.543 50.3605 156.79 49.1135 156.79 47.5753C156.79 46.037 155.543 44.79 154.004 44.79C152.466 44.79 151.219 46.037 151.219 47.5753C151.219 49.1135 152.466 50.3605 154.004 50.3605Z" fill="#00B37B"/>
<path d="M121.136 158.689L121.708 160.443H123.551L122.06 161.526L122.627 163.28L121.136 162.197L119.649 163.28L120.217 161.526L118.726 160.443H120.569L121.136 158.689Z" fill="#00B37B"/>
<path d="M126.885 158.689L127.452 160.443H129.295L127.809 161.526L128.376 163.28L126.885 162.197L125.394 163.28L125.966 161.526L124.475 160.443H126.318L126.885 158.689Z" fill="#00B37B"/>
<path d="M132.724 158.689L133.291 160.443H135.134L133.643 161.526L134.215 163.28L132.724 162.197L131.232 163.28L131.8 161.526L130.309 160.443H132.152L132.724 158.689Z" fill="#00B37B"/>
<path d="M261 272H17" stroke="#2C3539" stroke-width="4" stroke-miterlimit="10" stroke-linecap="round"/>
</svg>
