<svg width="336" height="262" viewBox="0 0 336 262" fill="none" xmlns="http://www.w3.org/2000/svg">
<path d="M328.629 248.63H7.37109" stroke="#2C3539" stroke-width="3" stroke-miterlimit="10" stroke-linecap="round"/>
<path opacity="0.33" d="M104.261 204.242L64.9131 234.075L145.747 226.311L224.512 238.678L287.288 227.749L246.715 194.144L104.261 204.242Z" fill="#00B37B"/>
<path d="M233.456 151.495L198.85 154.81L200.53 159.992L200.618 160.264L200.53 159.992L199.711 157.468L199.709 157.464L198.848 154.81L162.137 151.621L123.337 154.945L56 224.846L143.428 210.036L221.463 224.55L290 209.775L233.456 151.495ZM147.72 196.631L148.41 194.477L147.72 196.631ZM155.135 173.479L157.826 165.078L155.135 173.479ZM202.442 165.885L205.279 174.635L202.442 165.885ZM209.119 186.477L208.288 183.915L208.144 183.47L208.29 183.915L209.128 186.502L209.119 186.477Z" fill="#BDBDBD"/>
<path d="M162.137 147.448L160.931 151.211L160.753 151.769L159.834 154.641L155.135 169.306L152.862 176.409L152.271 178.25L148.999 188.469L147.72 192.458L143.428 205.864L56 220.673L123.337 150.772L162.137 147.448Z" fill="#EEEEEE"/>
<path d="M290 205.604L221.463 220.379L215.316 201.419L214.451 198.752L210.177 185.576L209.539 183.604L208.288 179.742L207.724 178.012L206.807 175.176L202.442 161.712L200.839 156.772L200.532 155.821L198.85 150.637L233.456 147.322L290 205.604Z" fill="#EEEEEE"/>
<path d="M209.119 182.304L208.288 179.742L202.442 161.714V161.712L202.032 160.446L200.532 155.821L199.713 153.297L199.711 153.291L198.85 150.637L162.138 147.448L160.818 151.569L160.753 151.769L160.337 153.067L155.137 169.306H155.135L153.85 173.325L147.722 192.458H147.72L143.428 205.864L221.463 220.379L209.119 182.304Z" fill="#E0E0E0"/>
<path d="M263.402 189.937L240.441 175.78L249.345 172.714L233.736 163.716L239.624 161.473L231.724 157.311L234.064 155.81L232.28 155.108L230.109 156.462L225.186 153.867L230.052 151.094L228.442 150.492L223.738 153.106L220.047 151.161L218.791 151.556L222.727 153.668L217.69 156.465L214.351 152.016L212.634 152.087L216.081 156.866L204.262 156.072L204.113 152.697L202.308 152.561L202.358 155.944L200.536 155.821L200.843 156.772L202.373 156.876L202.446 161.712L206.811 175.176L207.293 173.79L223.542 167.599L227.376 175.79L207.728 178.012L208.29 179.744L208.363 179.748L228.155 177.462L230.042 181.489L209.539 183.604L210.177 185.574L230.93 183.386L237.664 197.766L214.451 198.752L215.316 201.42L255.536 199.669L253.574 197.091L240.708 197.638L233.778 183.71L262.891 191.515L263.402 189.937ZM204.301 157.006L215.352 157.762L204.602 163.732L204.301 157.006ZM206.953 172.016L204.75 165.511L209.123 163.02L214.155 169.333L206.953 172.016ZM215.929 168.675L210.571 162.194L217.197 158.418L222.757 166.132L215.929 168.675ZM218.565 157.639L224.173 154.444L236.462 161.033L224.463 165.498L218.565 157.639ZM232.276 164.272L245.419 171.997L238.22 174.411L225.786 166.744L232.276 164.272ZM229.703 175.527L226.287 168.662L236.049 174.81L229.703 175.527ZM232.783 181.714L230.529 177.188L238.385 176.281L257.208 188.134L232.783 181.714ZM160.425 150.927L157.617 152.015L155.741 149.79L142.248 154.613L140.25 151.593L138.472 152.02L142.216 157.984L132.273 161.839L128.047 153.783L126.124 154.264L130.142 162.479L122.907 164.052L122.13 160.861L119.919 161.409L120.581 164.558L116.998 165.337L116.948 166.462L120.799 165.613L121.795 170.355L108.697 173.682L108.722 182.523L97.4344 186.072L97.3097 187.837L108.726 184.18L108.733 187.549L90.3359 194.106L90.2151 196.131L108.739 189.402L108.751 194.06L80.2185 205.575L80.021 208.022L125.153 189.426L122.443 200.064L124.259 200.944L147.716 192.46L148.994 188.473L146.872 180.477L152.266 178.252L152.855 176.411L152.492 176.402L146.328 178.891L143.911 172.906L155.129 169.312L159.826 154.646L158.238 152.764L160.745 151.775L161.438 151.503L160.925 151.217L160.425 150.927ZM154.799 151.029L156.083 152.609L144.018 157.286L142.764 155.393L154.799 151.029ZM111.451 174.315L122.054 171.577L123.381 177.907L111.714 181.577L111.451 174.315ZM111.775 183.2L123.692 179.382L124.246 182.019L111.892 186.421L111.775 183.2ZM112.118 192.698L111.957 188.232L124.585 183.645L125.364 187.352L112.118 192.698ZM123.162 165.089L130.616 163.446L135.781 174.006L126.08 177.059L123.162 165.089ZM141.517 173.669L143.827 179.899L128.301 186.166L126.432 178.503L141.517 173.669ZM144.298 181.535L146.427 190.677L126.189 197.834L128.377 188.098L144.298 181.535ZM138.241 173.23L133.477 164.142L150.003 169.531L138.241 173.23ZM154.504 168.113L152.644 168.698L147.931 167.195L155.603 164.813L154.504 168.113ZM156.067 163.43L145.873 166.541L140.083 164.694L158.288 156.77L156.067 163.43ZM158.467 155.556L138.374 164.148L133.381 162.556L156.694 153.37L158.467 155.556Z" fill="#FFCC80"/>
<path d="M214.45 198.752L198.38 199.436L202.929 186.341L210.177 185.575L209.538 183.606L203.669 184.21L205.252 179.654L208.227 179.742L208.288 179.744L207.726 178.012L207.657 178.02L205.839 177.966L206.807 175.178L202.442 161.714L202.482 164.404L194.267 162.784L193.89 156.296L200.838 156.772L200.532 155.821L193.838 155.37L193.692 152.875L191.903 152.81L191.974 155.245L185.587 154.816L186.475 152.189L184.737 152.024L183.732 154.756L173.762 154.931L177.41 151.347L175.853 151.023L171.71 154.967L167.884 155.034L168.829 150.645L167.116 150.639L166.031 155.067L160.279 155.167L159.838 154.643L155.141 169.31L155.392 169.229L162.325 169.879L159.796 176.618L152.868 176.413L152.279 178.254L152.707 178.077L159.174 178.273L154.949 189.53L149.408 189.992L149.005 188.473L147.728 192.46L148.219 192.281L167.817 190.604L166.783 200.953L169.915 201.203L173.102 191.769L195.522 202.064L196.343 201.82L196.431 202.246L215.319 201.425L214.45 198.752ZM192.858 177.584L178.036 177.149L179.936 171.528L192.505 172.708L192.858 177.584ZM192.432 171.248L180.404 170.14L183.235 161.762L192.209 163.562L192.432 171.248ZM185.282 155.708L191.998 156.166L192.177 162.372L183.6 160.68L185.282 155.708ZM173.152 155.853L183.392 155.673L181.639 160.444L172.861 159.992L173.152 155.853ZM172.784 161.067L181.244 161.51L178.147 169.931L172.197 169.384L172.784 161.067ZM172.096 170.792L177.639 171.312L175.519 177.074L171.66 176.961L172.096 170.792ZM167.68 155.949L171.28 155.886L170.88 159.89L166.875 159.683L167.68 155.949ZM160.392 156.08L165.803 155.984L164.92 159.585L159.412 159.301L160.392 156.08ZM159.09 160.354L164.66 160.644L164.103 162.916L158.244 163.135L159.09 160.354ZM156.775 167.963L157.887 164.306L163.818 164.084L162.734 168.512L156.775 167.963ZM168.028 188.427L157.891 189.276L161.675 178.344L169.015 178.564L168.028 188.427ZM169.18 176.888L162.247 176.683L164.533 170.082L169.811 170.577L169.18 176.888ZM164.926 168.715L166.645 160.747L170.772 160.962L169.951 169.177L164.926 168.715ZM170.732 190.084L171.539 178.641L174.905 178.743L170.732 190.084ZM181.858 193.056L173.868 189.486L177.472 178.819L183.525 179.002L181.858 193.056ZM184.72 194.335L186.081 179.076L192.984 179.283L194.386 198.656L184.72 194.335ZM194.338 163.986L202.641 165.653L204.724 172.38L194.774 171.463L194.338 163.986ZM195.374 177.657L194.893 172.932L204.655 173.849L203.123 177.886L195.374 177.657ZM195.549 179.36L202.486 179.569L197.033 193.948L195.549 179.36Z" fill="#FFB74D"/>
<path d="M290 205.604V209.776L284.576 206.771L290 205.604Z" fill="#BDBDBD"/>
<path d="M56 220.673V224.846L64.9129 219.164L56 220.673Z" fill="#BDBDBD"/>
<path d="M140.482 145.938C140.483 145.94 140.485 145.94 140.486 145.942C140.599 146.075 140.715 146.201 140.834 146.325C140.873 146.365 140.914 146.403 140.953 146.443C141.036 146.525 141.12 146.607 141.206 146.685C141.254 146.728 141.301 146.77 141.35 146.812C141.432 146.883 141.515 146.953 141.6 147.02C141.65 147.059 141.699 147.098 141.75 147.137C141.839 147.204 141.928 147.269 142.019 147.331C142.067 147.364 142.113 147.397 142.161 147.429C142.269 147.501 142.379 147.569 142.489 147.635C142.521 147.653 142.551 147.674 142.583 147.693C142.73 147.777 142.879 147.857 143.029 147.932C143.042 147.939 143.055 147.945 143.069 147.95C143.205 148.017 143.343 148.08 143.482 148.138C143.522 148.155 143.561 148.17 143.601 148.186C143.717 148.232 143.832 148.276 143.949 148.317C143.994 148.333 144.038 148.348 144.083 148.363C144.2 148.401 144.317 148.437 144.434 148.47C144.476 148.481 144.517 148.494 144.559 148.504C144.69 148.539 144.822 148.571 144.955 148.598C144.982 148.604 145.01 148.611 145.039 148.617C145.536 148.717 146.041 148.771 146.547 148.78C146.571 148.78 146.595 148.78 146.619 148.78C146.763 148.781 146.907 148.779 147.051 148.774C147.08 148.773 147.109 148.771 147.137 148.77C147.282 148.762 147.426 148.751 147.571 148.736C147.594 148.734 147.616 148.733 147.639 148.73C149.742 148.495 151.78 147.476 153.247 145.679C166.373 129.595 194.906 92.3444 194.906 72.1506C194.906 46.0508 173.627 24.3167 146.881 23.5921C144.287 23.5222 141.738 23.6525 139.245 23.9679C139.242 23.9679 139.238 23.9688 139.235 23.9688C138.162 24.1049 137.1 24.2755 136.049 24.4797C136.018 24.4854 135.987 24.4912 135.956 24.4969C135.669 24.5525 135.386 24.6129 135.102 24.6742C135.011 24.6934 134.919 24.7126 134.829 24.7327C134.565 24.7912 134.303 24.8525 134.041 24.9148C133.932 24.9407 133.823 24.9666 133.714 24.9925C133.461 25.0548 133.208 25.119 132.957 25.1851C132.842 25.2148 132.726 25.2455 132.612 25.2762C132.363 25.3432 132.116 25.4123 131.87 25.4822C131.755 25.5158 131.639 25.5493 131.525 25.5829C131.277 25.6557 131.031 25.7295 130.786 25.8062C130.676 25.8407 130.568 25.8752 130.459 25.9107C130.208 25.9912 129.958 26.0717 129.708 26.156C129.613 26.1886 129.519 26.2212 129.424 26.2538C129.162 26.3439 128.9 26.4349 128.64 26.5298C128.584 26.5499 128.529 26.571 128.473 26.5921C127.235 27.0474 126.02 27.5525 124.831 28.1027C124.751 28.1391 124.67 28.1755 124.591 28.2129C124.356 28.3231 124.124 28.4362 123.891 28.5503C123.786 28.602 123.682 28.6519 123.577 28.7046C123.355 28.8148 123.136 28.9269 122.917 29.041C122.804 29.0995 122.692 29.157 122.58 29.2164C122.366 29.3295 122.154 29.4435 121.941 29.5595C121.825 29.6228 121.711 29.686 121.596 29.7493C121.387 29.8653 121.179 29.9832 120.972 30.103C120.858 30.1691 120.745 30.2352 120.631 30.3023C120.424 30.424 120.217 30.5467 120.012 30.6713C119.903 30.7375 119.796 30.8046 119.688 30.8716C119.48 31.0001 119.271 31.1295 119.065 31.2617C118.97 31.3231 118.875 31.3854 118.781 31.4467C118.563 31.5876 118.346 31.7295 118.131 31.8742C118.086 31.9039 118.043 31.9346 117.999 31.9643C117.237 32.4809 116.49 33.0186 115.76 33.5755C115.671 33.6426 115.583 33.7096 115.494 33.7777C115.309 33.9215 115.126 34.0672 114.943 34.2138C114.834 34.301 114.725 34.3863 114.617 34.4745C114.444 34.6144 114.273 34.7572 114.102 34.9001C113.987 34.9969 113.871 35.0927 113.756 35.1905C113.591 35.3314 113.427 35.4732 113.264 35.616C113.146 35.7186 113.03 35.8211 112.913 35.9246C112.754 36.0675 112.595 36.2103 112.437 36.355C112.32 36.4623 112.203 36.5706 112.087 36.679C111.932 36.8237 111.778 36.9684 111.625 37.1151C111.509 37.2262 111.395 37.3384 111.28 37.4505C111.13 37.5981 110.979 37.7457 110.83 37.8952C110.716 38.0093 110.605 38.1243 110.493 38.2393C110.346 38.3908 110.198 38.5412 110.052 38.6946C109.943 38.8096 109.836 38.9265 109.729 39.0416C109.583 39.1978 109.436 39.354 109.292 39.5122C109.221 39.5917 109.15 39.6732 109.079 39.7527C108.781 40.0853 108.488 40.4227 108.199 40.7639C108.087 40.8952 107.975 41.0256 107.866 41.1588C107.742 41.3083 107.62 41.4607 107.498 41.6112C107.385 41.7511 107.271 41.8911 107.159 42.0329C107.04 42.1834 106.924 42.3367 106.806 42.4891C106.696 42.6339 106.584 42.7776 106.474 42.9243C106.36 43.0767 106.247 43.23 106.134 43.3843C106.025 43.5339 105.916 43.6834 105.808 43.8348C105.698 43.9882 105.59 44.1415 105.483 44.2958C105.375 44.4501 105.269 44.6045 105.163 44.7607C105.058 44.915 104.954 45.0703 104.851 45.2255C104.745 45.3846 104.641 45.5457 104.537 45.7057C104.437 45.86 104.337 46.0144 104.24 46.1696C104.135 46.3364 104.033 46.5041 103.93 46.6719C103.836 46.8243 103.743 46.9757 103.651 47.129C103.543 47.3102 103.438 47.4923 103.332 47.6744C103.249 47.8172 103.165 47.9591 103.084 48.1028C102.955 48.331 102.83 48.56 102.705 48.7901C102.629 48.9309 102.553 49.0709 102.477 49.2127C102.325 49.4993 102.176 49.7859 102.03 50.0763C101.963 50.2095 101.898 50.3437 101.832 50.4779C101.731 50.684 101.629 50.8891 101.53 51.0971C101.46 51.2456 101.392 51.3961 101.322 51.5466C101.233 51.7411 101.142 51.9367 101.055 52.1332C100.986 52.2884 100.919 52.4447 100.852 52.6009C100.768 52.7945 100.685 52.9881 100.604 53.1836C100.538 53.3418 100.473 53.5009 100.409 53.66C100.33 53.8555 100.253 54.052 100.176 54.2494C100.114 54.4095 100.053 54.5696 99.9929 54.7296C99.9185 54.929 99.845 55.1303 99.7725 55.3306C99.7152 55.4897 99.6579 55.6488 99.6026 55.8079C99.5301 56.0159 99.4604 56.2239 99.3917 56.4328C99.3401 56.5881 99.2886 56.7424 99.238 56.8986C99.1674 57.12 99.0996 57.3433 99.0319 57.5657C98.988 57.7104 98.9431 57.8542 98.9002 57.9999C98.8229 58.2625 98.7503 58.527 98.6778 58.7906C98.6482 58.898 98.6177 59.0044 98.5881 59.1117C98.4888 59.4826 98.3943 59.8555 98.3046 60.2302C98.2817 60.3261 98.2607 60.4229 98.2388 60.5197C98.1729 60.8005 98.108 61.0823 98.0479 61.365C98.0174 61.5088 97.9897 61.6526 97.9601 61.7964C97.9114 62.034 97.8628 62.2727 97.8179 62.5114C97.7883 62.6685 97.7606 62.8277 97.733 62.9858C97.6929 63.2139 97.6528 63.4411 97.6156 63.6701C97.5889 63.834 97.564 63.9989 97.5392 64.1628C97.5049 64.388 97.4715 64.6133 97.4409 64.8395C97.418 65.0072 97.3961 65.1749 97.3751 65.3427C97.3464 65.5679 97.3197 65.7941 97.2949 66.0212C97.2758 66.189 97.2577 66.3577 97.2405 66.5254C97.2176 66.7564 97.1966 66.9874 97.1766 67.2184C97.1622 67.3832 97.1479 67.549 97.1355 67.7148C97.1174 67.9554 97.1021 68.1979 97.0878 68.4394C97.0783 68.5966 97.0678 68.7538 97.0601 68.912C97.0468 69.1784 97.0372 69.4458 97.0286 69.7142C97.0239 69.8474 97.0172 69.9806 97.0143 70.1148C97.0057 70.5174 97 70.9199 97 71.3244C97 72.3078 97.0668 73.3295 97.1956 74.3857C98.4249 84.4582 105.28 97.6015 113.514 110.244C114.008 111.003 114.507 111.76 115.01 112.514C115.49 113.234 115.974 113.953 116.461 114.667C117.347 115.969 118.243 117.26 119.144 118.537C119.745 119.388 120.347 120.233 120.95 121.07C121.377 121.662 121.803 122.248 122.229 122.832C122.581 123.315 122.934 123.794 123.286 124.272C123.713 124.849 124.139 125.424 124.562 125.991C125.761 127.594 126.95 129.158 128.12 130.674C128.538 131.216 128.953 131.749 129.365 132.278C133.561 137.656 137.446 142.358 140.482 145.938Z" fill="#008458"/>
<path d="M146.88 159.394C141.344 159.534 136.839 164.073 136.839 169.53C136.839 174.987 141.344 179.261 146.88 179.078C152.393 178.896 156.844 174.359 156.844 168.945C156.844 163.529 152.393 159.253 146.88 159.394Z" fill="#008458"/>
<path d="M199 72.1859C199 92.3472 170.56 129.536 157.478 145.593C154.202 149.615 148.055 149.748 144.754 145.851C131.405 130.087 101.416 92.3002 101.416 71.3617C101.416 44.2995 123.91 22.9709 151.131 23.708C177.79 24.4307 199 46.1293 199 72.1859Z" fill="#00B37B"/>
<g opacity="0.2">
<path opacity="0.2" d="M150.916 125.987C154.007 105.885 167.364 99.4319 165.082 80.5742C162.444 58.7846 142.818 52.6734 142.341 33.1333C142.263 29.9867 142.7 26.9656 143.52 24.0845C119.835 27.0835 101.416 46.893 101.416 71.3615C101.416 92.3 131.405 130.087 144.753 145.851C146.696 148.147 149.629 149.043 152.38 148.57C150.016 139.82 149.944 132.305 150.916 125.987Z" fill="#00B37B"/>
</g>
<path d="M161.062 168.82C161.062 174.226 156.625 178.755 151.131 178.937C145.613 179.12 141.123 174.852 141.123 169.404C141.123 163.957 145.613 159.426 151.131 159.285C156.626 159.145 161.062 163.414 161.062 168.82Z" fill="#00B37B"/>
<path fill-rule="evenodd" clip-rule="evenodd" d="M166.386 100.203C177.006 94.6316 184.188 83.6123 184.188 70.9572C184.188 52.7465 169.316 37.6594 150.729 37.252C131.87 36.8408 116.378 51.6577 116.378 70.3543C116.378 83.7036 124.275 95.2156 135.657 100.681C135.817 94.173 135.977 87.7017 136.137 81.2826C132.363 79.9162 129.555 74.9169 129.555 68.9722C129.555 61.9918 133.427 56.3876 138.187 56.4557C142.931 56.5237 146.762 62.2007 146.762 69.1352C146.762 75.0419 143.982 79.9834 140.227 81.3048C140.402 88.3222 140.578 95.4593 140.753 102.646C143.915 103.584 147.265 104.081 150.729 104.067C154.469 104.052 158.059 103.44 161.407 102.323C161.576 95.3782 161.744 88.4741 161.913 81.6299C159.153 81.2428 157.356 80.1351 156.382 79.291C155.738 78.7341 155.222 77.9932 155.182 77.214C154.855 70.8738 156.584 57.2272 156.584 57.2272L157.8 57.2569V72.1639L160.48 72.1869V57.3097L162.155 57.348V72.2013L165.169 72.2243V57.3892L166.844 57.4007V72.2396L168.519 72.254V57.4122L170.651 57.4266C170.651 57.4266 172.614 71.03 172.293 77.3233C172.253 78.0967 171.951 78.828 171.316 79.3744C170.357 80.199 168.623 81.2773 165.933 81.6431C166.084 87.7543 166.235 93.9566 166.386 100.203Z" fill="white"/>
</svg>
