<svg width="326" height="285" viewBox="0 0 326 285" fill="none" xmlns="http://www.w3.org/2000/svg">
<path opacity="0.27" d="M31.4583 282.723C31.4583 282.723 -5.52254 244.431 25.2044 202.973C52.468 166.189 84.2539 168.703 107.574 183.631C117.506 189.988 146.144 184.414 170.517 146.985C203.756 95.9421 318.976 126.9 297.967 205.43C287.801 243.434 328.908 244.815 307.962 282.803L31.4583 282.723Z" fill="#2B9375"/>
<path d="M198.828 245.244H184.861C184.475 245.244 184.158 244.942 184.158 244.573C184.158 244.204 184.475 243.902 184.861 243.902H198.828C199.214 243.902 199.53 244.204 199.53 244.573C199.53 244.942 199.214 245.244 198.828 245.244Z" fill="#FCECDB"/>
<path d="M198.828 247.871H184.861C184.475 247.871 184.158 247.569 184.158 247.2C184.158 246.831 184.475 246.529 184.861 246.529H198.828C199.214 246.529 199.53 246.831 199.53 247.2C199.53 247.569 199.214 247.871 198.828 247.871Z" fill="#FCECDB"/>
<path d="M201.768 134.47V278.885C201.768 281.114 199.888 282.944 197.568 283.001C197.531 283.002 197.495 283.002 197.457 283.002H121.836C119.466 283.002 117.525 281.15 117.525 278.885V134.47C117.525 132.205 119.466 130.354 121.836 130.354H197.457C199.829 130.354 201.768 132.205 201.768 134.47Z" fill="#00B37B"/>
<path d="M206.222 134.47V278.886C206.222 281.149 204.281 283.001 201.91 283.001H126.289C123.917 283.001 121.979 281.149 121.979 278.886V134.47C121.979 132.205 123.918 130.354 126.289 130.354H201.91C204.28 130.354 206.222 132.205 206.222 134.47Z" fill="#1C936B"/>
<path d="M176.445 136.131H154.546C154.077 136.131 153.695 135.765 153.695 135.318C153.695 134.87 154.079 134.504 154.546 134.504H176.445C176.914 134.504 177.296 134.87 177.296 135.318C177.296 135.766 176.914 136.131 176.445 136.131Z" fill="#E8F9ED"/>
<path d="M150.657 136.131C150.188 136.131 149.805 135.765 149.805 135.318C149.805 134.87 150.189 134.504 150.657 134.504C151.125 134.504 151.508 134.87 151.508 135.318C151.508 135.766 151.125 136.131 150.657 136.131Z" fill="#E8F9ED"/>
<path d="M170.638 274.568C170.638 276.008 170.03 277.314 169.044 278.262C168.049 279.222 166.668 279.815 165.142 279.815C162.108 279.815 159.646 277.465 159.646 274.566C159.646 272.703 160.662 271.068 162.197 270.137C163.047 269.62 164.058 269.319 165.142 269.319C168.177 269.32 170.638 271.669 170.638 274.568Z" fill="#1ED89A"/>
<path d="M201.726 139.757H127.022V266.74H201.726V139.757Z" fill="#E8F9ED"/>
<path d="M169.044 278.262C168.049 279.222 166.668 279.815 165.142 279.815C162.108 279.815 159.646 277.465 159.646 274.566C159.646 272.703 160.662 271.068 162.197 270.137C162.735 272.372 164.332 276.109 169.044 278.262Z" fill="#1ED89A"/>
<path d="M201.768 150.041V199.995H130.616C129.82 199.995 129.167 199.333 129.167 198.525V151.513C129.167 150.702 129.82 150.041 130.616 150.041H201.768Z" fill="#1ED89A"/>
<path d="M181.475 210.04V257.052C181.475 257.86 180.885 258.522 180.164 258.522H127.022V208.568H180.166C180.886 208.568 181.475 209.229 181.475 210.04Z" fill="#1ED89A"/>
<path d="M234.459 147.359V194.371C234.459 195.18 233.767 195.841 232.918 195.841H133.224C132.378 195.841 131.685 195.18 131.685 194.371V147.359C131.685 146.549 132.378 145.887 133.224 145.887H232.918C233.767 145.886 234.459 146.549 234.459 147.359Z" fill="#FFFBF8"/>
<path d="M234.459 147.359V194.371C234.459 195.179 233.653 195.842 232.668 195.842H183.073V145.886H232.668C233.653 145.886 234.459 146.548 234.459 147.359Z" fill="#00B37B"/>
<path d="M212.473 152.389H193.81C193.502 152.389 193.251 152.149 193.251 151.855C193.251 151.561 193.502 151.321 193.81 151.321H212.473C212.78 151.321 213.032 151.561 213.032 151.855C213.03 152.149 212.779 152.389 212.473 152.389Z" fill="#FCECDB"/>
<path d="M212.473 154.445H193.81C193.502 154.445 193.251 154.205 193.251 153.911C193.251 153.617 193.502 153.377 193.81 153.377H212.473C212.78 153.377 213.032 153.617 213.032 153.911C213.03 154.205 212.779 154.445 212.473 154.445Z" fill="#FCECDB"/>
<path d="M190.424 152.503H189.955C189.59 152.503 189.292 152.218 189.292 151.869V151.841C189.292 151.492 189.59 151.207 189.955 151.207H190.424C190.789 151.207 191.088 151.492 191.088 151.841V151.869C191.088 152.218 190.789 152.503 190.424 152.503Z" fill="#FCECDB"/>
<path d="M212.473 159.959H193.81C193.502 159.959 193.251 159.719 193.251 159.425C193.251 159.131 193.502 158.891 193.81 158.891H212.473C212.78 158.891 213.032 159.131 213.032 159.425C213.03 159.717 212.779 159.959 212.473 159.959Z" fill="#FCECDB"/>
<path d="M212.473 162.015H193.81C193.502 162.015 193.251 161.775 193.251 161.481C193.251 161.187 193.502 160.947 193.81 160.947H212.473C212.78 160.947 213.032 161.187 213.032 161.481C213.03 161.775 212.779 162.015 212.473 162.015Z" fill="#FCECDB"/>
<path d="M190.424 160.073H189.955C189.59 160.073 189.292 159.788 189.292 159.439V159.41C189.292 159.062 189.59 158.776 189.955 158.776H190.424C190.789 158.776 191.088 159.062 191.088 159.41V159.439C191.088 159.788 190.789 160.073 190.424 160.073Z" fill="#FCECDB"/>
<path d="M212.473 167.443H193.81C193.502 167.443 193.251 167.203 193.251 166.91C193.251 166.616 193.502 166.376 193.81 166.376H212.473C212.78 166.376 213.032 166.616 213.032 166.91C213.03 167.203 212.779 167.443 212.473 167.443Z" fill="#FCECDB"/>
<path d="M212.473 169.5H193.81C193.502 169.5 193.251 169.26 193.251 168.966C193.251 168.672 193.502 168.432 193.81 168.432H212.473C212.78 168.432 213.032 168.672 213.032 168.966C213.03 169.26 212.779 169.5 212.473 169.5Z" fill="#FCECDB"/>
<path d="M190.424 167.558H189.955C189.59 167.558 189.292 167.273 189.292 166.924V166.895C189.292 166.547 189.59 166.261 189.955 166.261H190.424C190.789 166.261 191.088 166.547 191.088 166.895V166.924C191.088 167.273 190.789 167.558 190.424 167.558Z" fill="#FCECDB"/>
<path d="M185.232 205.098V252.11C185.232 252.92 184.923 253.581 184.544 253.581H140.04C139.662 253.581 139.352 252.92 139.352 252.11V205.098C139.352 204.29 139.66 203.628 140.04 203.628H184.544C184.923 203.628 185.232 204.29 185.232 205.098Z" fill="#FFFBF8"/>
<path d="M185.291 205.097V252.109C185.291 252.92 184.597 253.581 183.749 253.581H139.352V203.626H183.748C184.595 203.626 185.291 204.289 185.291 205.097Z" fill="#00B37B"/>
<path d="M143.325 150.982C140.667 151.347 138.255 151.647 136.564 152.711C135.006 153.691 134.052 155.009 134.052 156.458C134.052 158.07 135.088 159.794 137.107 160.522C138.804 161.133 141.476 162.385 143.325 161.935C145.644 161.369 147.706 161.447 149.323 160.636L148.573 160.113L143.335 156.46L151.772 156.905L152.562 156.947C152.586 156.787 152.598 156.624 152.598 156.461C152.598 154.909 151.506 153.508 149.75 152.511C148.084 151.564 145.813 150.64 143.325 150.982Z" fill="#FFE4CC"/>
<path d="M151.772 156.904L143.335 156.459L148.573 160.112C148.053 160.337 147.484 160.529 146.876 160.682C145.798 160.954 144.551 160.768 143.334 161.106C141.319 161.666 139.458 160.38 137.965 160.055C136.357 159.704 134.676 157.865 134.858 156.459C135.048 154.997 136.137 153.304 138.089 152.807C139.556 152.434 141.49 151.569 143.47 151.569C145.078 151.569 146.427 152.332 147.725 152.483C150.174 152.767 151.808 154.774 151.808 156.459C151.81 156.61 151.797 156.758 151.772 156.904Z" fill="#F77548"/>
<path d="M138.884 155.955C138.884 156.115 138.706 156.244 138.488 156.244C138.269 156.244 138.091 156.115 138.091 155.955C138.091 155.795 138.269 155.666 138.488 155.666C138.706 155.666 138.884 155.796 138.884 155.955Z" fill="#B5453C"/>
<path d="M141.295 154.564C141.295 154.724 141.117 154.853 140.898 154.853C140.679 154.853 140.502 154.723 140.502 154.564C140.502 154.404 140.679 154.275 140.898 154.275C141.117 154.275 141.295 154.404 141.295 154.564Z" fill="#B5453C"/>
<path d="M139.479 154.036C139.659 154.036 139.805 153.929 139.805 153.797C139.805 153.666 139.659 153.559 139.479 153.559C139.299 153.559 139.153 153.666 139.153 153.797C139.153 153.929 139.299 154.036 139.479 154.036Z" fill="#B5453C"/>
<path d="M142.76 153.206C142.76 153.353 142.597 153.472 142.396 153.472C142.195 153.472 142.032 153.353 142.032 153.206C142.032 153.059 142.195 152.94 142.396 152.94C142.597 152.94 142.76 153.059 142.76 153.206Z" fill="#B5453C"/>
<path d="M142.76 155.955C142.76 156.186 142.502 156.374 142.186 156.374C141.87 156.374 141.612 156.186 141.612 155.955C141.612 155.723 141.87 155.536 142.186 155.536C142.502 155.536 142.76 155.724 142.76 155.955Z" fill="#B5453C"/>
<path d="M144.008 154.424C144.008 154.584 143.83 154.713 143.611 154.713C143.392 154.713 143.215 154.583 143.215 154.424C143.215 154.264 143.392 154.135 143.611 154.135C143.83 154.135 144.008 154.264 144.008 154.424Z" fill="#B5453C"/>
<path d="M145.843 154.569C145.843 154.649 145.754 154.713 145.644 154.713C145.534 154.713 145.445 154.649 145.445 154.569C145.445 154.489 145.534 154.424 145.644 154.424C145.754 154.424 145.843 154.489 145.843 154.569Z" fill="#B5453C"/>
<path d="M145.012 153.327C145.012 153.407 144.923 153.471 144.813 153.471C144.703 153.471 144.614 153.407 144.614 153.327C144.614 153.247 144.703 153.182 144.813 153.182C144.923 153.182 145.012 153.247 145.012 153.327Z" fill="#B5453C"/>
<path d="M142.76 157.991C142.76 158.071 142.671 158.135 142.562 158.135C142.452 158.135 142.363 158.071 142.363 157.991C142.363 157.911 142.452 157.846 142.562 157.846C142.671 157.846 142.76 157.911 142.76 157.991Z" fill="#B5453C"/>
<path d="M144.118 158.648C144.118 158.728 144.029 158.793 143.92 158.793C143.811 158.793 143.721 158.728 143.721 158.648C143.721 158.568 143.81 158.504 143.92 158.504C144.03 158.504 144.118 158.568 144.118 158.648Z" fill="#B5453C"/>
<path d="M141.116 157.514C141.116 157.694 140.916 157.841 140.668 157.841C140.421 157.841 140.221 157.694 140.221 157.514C140.221 157.334 140.421 157.187 140.668 157.187C140.915 157.187 141.116 157.334 141.116 157.514Z" fill="#B5453C"/>
<path d="M138.545 157.595C138.545 157.595 138.251 157.453 137.966 157.739C137.966 157.739 138.339 158.024 138.545 157.595Z" fill="#82B378"/>
<path d="M140.806 155.53C140.806 155.53 140.408 155.337 140.022 155.724C140.021 155.724 140.525 156.11 140.806 155.53Z" fill="#82B378"/>
<path d="M145.094 154.429C145.094 154.429 144.684 154.431 144.359 154.987C144.36 154.987 144.898 155.124 145.094 154.429Z" fill="#82B378"/>
<path d="M146.999 154.846C146.999 154.846 146.652 154.43 146.222 154.571C146.222 154.571 146.639 155.234 146.999 154.846Z" fill="#82B378"/>
<path d="M143.947 156.032C143.947 156.032 143.754 155.483 143.396 155.311C143.396 155.311 143.599 156.095 143.947 156.032Z" fill="#82B378"/>
<path d="M143.274 156.813C143.274 156.813 142.928 156.765 142.636 157.196C142.636 157.195 143.085 157.375 143.274 156.813Z" fill="#82B378"/>
<path d="M143.599 159.267C143.599 159.267 143.315 158.887 142.949 158.972C142.949 158.972 143.285 159.565 143.599 159.267Z" fill="#82B378"/>
<path d="M144.101 157.621C144.101 157.621 143.755 157.595 143.471 158.043C143.471 158.043 143.923 158.194 144.101 157.621Z" fill="#82B378"/>
<path d="M142.516 154.586C142.516 154.586 142.179 154.438 141.856 154.777C141.856 154.777 142.285 155.087 142.516 154.586Z" fill="#82B378"/>
<path d="M141.651 153.868C141.651 153.868 141.392 153.427 141.023 153.427C141.023 153.427 141.321 154.092 141.651 153.868Z" fill="#82B378"/>
<path d="M139.081 157.957C138.691 158.146 138.496 158.527 138.647 158.805C138.761 159.014 139.011 158.97 139.295 158.855L139.439 159.12C139.459 159.157 139.518 159.167 139.569 159.142L139.845 159.008C139.897 158.983 139.923 158.933 139.903 158.896L139.76 158.632C140.022 158.486 140.183 158.334 140.065 158.118C139.913 157.843 139.471 157.77 139.081 157.957Z" fill="#EFCBAB"/>
<path d="M146.481 153.102C146.798 153.256 146.958 153.567 146.834 153.793C146.742 153.964 146.538 153.927 146.307 153.834L146.189 154.05C146.173 154.08 146.125 154.088 146.084 154.068L145.859 153.959C145.818 153.939 145.797 153.898 145.813 153.869L145.929 153.654C145.717 153.536 145.584 153.411 145.68 153.236C145.803 153.008 146.163 152.948 146.481 153.102Z" fill="#EFCBAB"/>
<path d="M141.947 156.777C142.265 156.931 142.425 157.242 142.301 157.469C142.209 157.639 142.005 157.604 141.774 157.509L141.656 157.725C141.64 157.755 141.592 157.764 141.551 157.743L141.326 157.635C141.285 157.614 141.263 157.574 141.28 157.544L141.396 157.329C141.183 157.211 141.051 157.087 141.147 156.911C141.27 156.683 141.63 156.623 141.947 156.777Z" fill="#EFCBAB"/>
<path d="M139.26 154.426C138.943 154.58 138.783 154.891 138.907 155.118C138.999 155.288 139.203 155.253 139.434 155.158L139.552 155.374C139.568 155.404 139.616 155.413 139.657 155.392L139.882 155.284C139.923 155.263 139.944 155.223 139.928 155.193L139.812 154.978C140.024 154.86 140.157 154.736 140.061 154.56C139.939 154.332 139.578 154.273 139.26 154.426Z" fill="#EFCBAB"/>
<path d="M153.089 156.445L145.807 156.062L144.813 155.533V156.01L150.497 159.975C152.212 159.114 153.364 157.872 153.571 156.472V155.995L153.089 156.445Z" fill="#FFE4CC"/>
<path d="M153.571 155.993C153.362 157.393 152.212 158.636 150.495 159.496L147.92 157.699L147.384 157.325L144.813 155.531L153.571 155.993Z" fill="#FF7D5A"/>
<path d="M147.726 156.387C147.726 156.547 147.548 156.676 147.329 156.676C147.111 156.676 146.933 156.547 146.933 156.387C146.933 156.227 147.111 156.098 147.329 156.098C147.548 156.098 147.726 156.227 147.726 156.387Z" fill="#B5453C"/>
<path d="M148.145 157.439C148.145 157.554 148.053 157.654 147.92 157.7L147.383 157.326C147.443 157.223 147.585 157.151 147.748 157.151C147.968 157.15 148.145 157.279 148.145 157.439Z" fill="#B5453C"/>
<path d="M149.563 157.505C149.563 157.585 149.474 157.649 149.364 157.649C149.254 157.649 149.165 157.585 149.165 157.505C149.165 157.425 149.254 157.36 149.364 157.36C149.474 157.36 149.563 157.425 149.563 157.505Z" fill="#B5453C"/>
<path d="M150.626 156.677C150.626 156.757 150.538 156.822 150.429 156.822C150.32 156.822 150.23 156.757 150.23 156.677C150.23 156.597 150.319 156.533 150.429 156.533C150.539 156.533 150.626 156.597 150.626 156.677Z" fill="#B5453C"/>
<path d="M148.612 156.458C148.612 156.538 148.523 156.603 148.413 156.603C148.303 156.603 148.216 156.538 148.216 156.458C148.216 156.378 148.305 156.314 148.413 156.314C148.523 156.314 148.612 156.38 148.612 156.458Z" fill="#B5453C"/>
<path d="M149.628 156.204C149.628 156.335 149.481 156.443 149.301 156.443C149.121 156.443 148.975 156.337 148.975 156.204C148.975 156.073 149.121 155.965 149.301 155.965C149.481 155.965 149.628 156.073 149.628 156.204Z" fill="#B5453C"/>
<path d="M149.301 156.978C149.301 157.068 149.203 157.139 149.08 157.139C148.958 157.139 148.859 157.068 148.859 156.978C148.859 156.889 148.958 156.817 149.08 156.817C149.203 156.817 149.301 156.89 149.301 156.978Z" fill="#B5453C"/>
<path d="M146.402 156.098C146.402 156.156 146.337 156.204 146.257 156.204C146.177 156.204 146.112 156.156 146.112 156.098C146.112 156.039 146.177 155.992 146.257 155.992C146.337 155.992 146.402 156.039 146.402 156.098Z" fill="#B5453C"/>
<path d="M148.082 156.479C148.082 156.479 147.797 156.48 147.572 156.867C147.572 156.867 147.946 156.961 148.082 156.479Z" fill="#82B378"/>
<path d="M151.367 156.844C151.367 156.844 151.149 156.492 150.847 156.506C150.848 156.506 151.099 157.041 151.367 156.844Z" fill="#82B378"/>
<path d="M148.776 157.436C148.776 157.436 148.554 157.097 148.251 157.131C148.251 157.132 148.512 157.65 148.776 157.436Z" fill="#82B378"/>
<path d="M150.495 157.78C150.495 157.78 150.213 157.714 149.964 158.043C149.964 158.043 150.328 158.226 150.495 157.78Z" fill="#82B378"/>
<path d="M146.128 155.773C146.128 155.773 145.882 155.669 145.648 155.92C145.648 155.92 145.962 156.14 146.128 155.773Z" fill="#82B378"/>
<path d="M166.64 165.469C163.982 165.834 161.57 166.134 159.879 167.197C158.321 168.178 157.367 169.496 157.367 170.945C157.367 172.557 158.403 174.281 160.422 175.008C162.119 175.62 164.791 176.872 166.64 176.422C168.959 175.856 171.021 175.934 172.638 175.122L171.887 174.599L166.65 170.945L175.087 171.391L175.877 171.433C175.901 171.273 175.913 171.11 175.913 170.947C175.913 169.394 174.821 167.994 173.065 166.997C171.399 166.05 169.128 165.127 166.64 165.469Z" fill="#FFE4CC"/>
<path d="M175.087 171.391L166.65 170.946L171.887 174.599C171.367 174.824 170.798 175.016 170.191 175.169C169.113 175.441 167.865 175.255 166.649 175.592C164.633 176.152 162.773 174.867 161.28 174.542C159.672 174.191 157.989 172.352 158.173 170.946C158.363 169.484 159.452 167.791 161.404 167.294C162.87 166.921 164.804 166.056 166.785 166.056C168.393 166.056 169.742 166.819 171.04 166.97C173.489 167.254 175.123 169.261 175.123 170.946C175.124 171.096 175.112 171.244 175.087 171.391Z" fill="#F77548"/>
<path d="M162.199 170.441C162.199 170.601 162.021 170.73 161.803 170.73C161.584 170.73 161.406 170.6 161.406 170.441C161.406 170.281 161.584 170.152 161.803 170.152C162.021 170.152 162.199 170.281 162.199 170.441Z" fill="#B5453C"/>
<path d="M164.61 169.05C164.61 169.21 164.432 169.339 164.213 169.339C163.994 169.339 163.817 169.209 163.817 169.05C163.817 168.89 163.994 168.761 164.213 168.761C164.432 168.76 164.61 168.89 164.61 169.05Z" fill="#B5453C"/>
<path d="M163.12 168.284C163.12 168.415 162.974 168.523 162.794 168.523C162.614 168.523 162.468 168.416 162.468 168.284C162.468 168.152 162.614 168.045 162.794 168.045C162.974 168.045 163.12 168.152 163.12 168.284Z" fill="#B5453C"/>
<path d="M166.075 167.692C166.075 167.838 165.912 167.958 165.711 167.958C165.51 167.958 165.347 167.838 165.347 167.692C165.347 167.545 165.51 167.425 165.711 167.425C165.912 167.425 166.075 167.545 166.075 167.692Z" fill="#B5453C"/>
<path d="M166.075 170.441C166.075 170.673 165.817 170.86 165.501 170.86C165.185 170.86 164.927 170.673 164.927 170.441C164.927 170.209 165.185 170.022 165.501 170.022C165.817 170.022 166.075 170.209 166.075 170.441Z" fill="#B5453C"/>
<path d="M167.322 168.911C167.322 169.071 167.145 169.199 166.926 169.199C166.707 169.199 166.53 169.069 166.53 168.911C166.53 168.751 166.707 168.622 166.926 168.622C167.145 168.62 167.322 168.751 167.322 168.911Z" fill="#B5453C"/>
<path d="M169.158 169.055C169.158 169.135 169.069 169.2 168.961 169.2C168.851 169.2 168.762 169.135 168.762 169.055C168.762 168.975 168.851 168.911 168.961 168.911C169.069 168.911 169.158 168.975 169.158 169.055Z" fill="#B5453C"/>
<path d="M168.326 167.813C168.326 167.893 168.238 167.958 168.128 167.958C168.018 167.958 167.93 167.893 167.93 167.813C167.93 167.733 168.019 167.669 168.128 167.669C168.238 167.669 168.326 167.733 168.326 167.813Z" fill="#B5453C"/>
<path d="M166.075 172.476C166.075 172.556 165.986 172.621 165.876 172.621C165.766 172.621 165.677 172.556 165.677 172.476C165.677 172.396 165.766 172.332 165.876 172.332C165.986 172.332 166.075 172.397 166.075 172.476Z" fill="#B5453C"/>
<path d="M167.432 173.135C167.432 173.215 167.344 173.279 167.234 173.279C167.124 173.279 167.036 173.215 167.036 173.135C167.036 173.055 167.125 172.99 167.234 172.99C167.342 172.99 167.432 173.055 167.432 173.135Z" fill="#B5453C"/>
<path d="M164.431 172C164.431 172.181 164.231 172.328 163.983 172.328C163.736 172.328 163.536 172.181 163.536 172C163.536 171.82 163.736 171.673 163.983 171.673C164.231 171.673 164.431 171.819 164.431 172Z" fill="#B5453C"/>
<path d="M161.86 172.082C161.86 172.082 161.566 171.94 161.281 172.225C161.281 172.225 161.654 172.51 161.86 172.082Z" fill="#82B378"/>
<path d="M164.121 170.015C164.121 170.015 163.723 169.823 163.337 170.21C163.336 170.21 163.84 170.597 164.121 170.015Z" fill="#82B378"/>
<path d="M168.409 168.914C168.409 168.914 167.999 168.916 167.674 169.473C167.675 169.474 168.213 169.61 168.409 168.914Z" fill="#82B378"/>
<path d="M170.314 169.332C170.314 169.332 169.967 168.917 169.537 169.057C169.537 169.057 169.954 169.72 170.314 169.332Z" fill="#82B378"/>
<path d="M167.263 170.519C167.263 170.519 167.069 169.97 166.711 169.798C166.711 169.798 166.914 170.582 167.263 170.519Z" fill="#82B378"/>
<path d="M166.589 171.298C166.589 171.298 166.243 171.251 165.951 171.682C165.951 171.682 166.4 171.861 166.589 171.298Z" fill="#82B378"/>
<path d="M166.914 173.754C166.914 173.754 166.63 173.374 166.264 173.459C166.264 173.459 166.6 174.051 166.914 173.754Z" fill="#82B378"/>
<path d="M167.416 172.107C167.416 172.107 167.07 172.08 166.786 172.528C166.786 172.529 167.237 172.681 167.416 172.107Z" fill="#82B378"/>
<path d="M165.831 169.073C165.831 169.073 165.493 168.925 165.171 169.264C165.171 169.264 165.6 169.573 165.831 169.073Z" fill="#82B378"/>
<path d="M164.966 168.354C164.966 168.354 164.707 167.914 164.338 167.914C164.338 167.914 164.635 168.579 164.966 168.354Z" fill="#82B378"/>
<path d="M162.397 172.444C162.007 172.632 161.812 173.013 161.963 173.292C162.077 173.5 162.327 173.456 162.611 173.342L162.754 173.607C162.774 173.644 162.832 173.653 162.884 173.628L163.161 173.495C163.212 173.469 163.238 173.419 163.218 173.382L163.076 173.118C163.337 172.973 163.498 172.821 163.381 172.605C163.228 172.328 162.787 172.255 162.397 172.444Z" fill="#EFCBAB"/>
<path d="M169.795 167.589C170.113 167.743 170.273 168.053 170.149 168.28C170.057 168.451 169.853 168.414 169.622 168.321L169.504 168.537C169.488 168.567 169.44 168.575 169.399 168.555L169.174 168.446C169.133 168.426 169.112 168.385 169.128 168.355L169.244 168.141C169.032 168.022 168.899 167.898 168.995 167.723C169.118 167.495 169.478 167.435 169.795 167.589Z" fill="#EFCBAB"/>
<path d="M165.262 171.264C165.58 171.418 165.739 171.728 165.616 171.955C165.524 172.126 165.32 172.089 165.089 171.996L164.971 172.212C164.955 172.242 164.907 172.25 164.866 172.23L164.641 172.121C164.6 172.101 164.578 172.06 164.595 172.03L164.711 171.815C164.498 171.697 164.366 171.573 164.462 171.397C164.585 171.169 164.945 171.11 165.262 171.264Z" fill="#EFCBAB"/>
<path d="M162.575 168.913C162.258 169.067 162.099 169.378 162.222 169.604C162.314 169.775 162.518 169.738 162.749 169.645L162.867 169.861C162.883 169.891 162.93 169.899 162.972 169.879L163.197 169.77C163.238 169.75 163.259 169.71 163.243 169.68L163.127 169.465C163.339 169.347 163.472 169.222 163.376 169.047C163.254 168.819 162.893 168.759 162.575 168.913Z" fill="#EFCBAB"/>
<path d="M176.404 170.93L169.122 170.547L168.128 170.018V170.494L173.812 174.459C175.527 173.598 176.679 172.357 176.886 170.956V170.48L176.404 170.93Z" fill="#FFE4CC"/>
<path d="M176.886 170.48C176.677 171.88 175.527 173.123 173.81 173.983L171.235 172.186L170.699 171.812L168.128 170.018L176.886 170.48Z" fill="#FF7D5A"/>
<path d="M171.041 170.873C171.041 171.033 170.863 171.162 170.644 171.162C170.426 171.162 170.248 171.032 170.248 170.873C170.248 170.713 170.426 170.584 170.644 170.584C170.863 170.584 171.041 170.713 171.041 170.873Z" fill="#B5453C"/>
<path d="M171.46 171.924C171.46 172.04 171.368 172.139 171.235 172.186L170.698 171.812C170.758 171.708 170.9 171.635 171.063 171.635C171.283 171.635 171.46 171.765 171.46 171.924Z" fill="#B5453C"/>
<path d="M172.877 171.991C172.877 172.071 172.789 172.136 172.68 172.136C172.57 172.136 172.481 172.071 172.481 171.991C172.481 171.911 172.57 171.847 172.68 171.847C172.789 171.847 172.877 171.911 172.877 171.991Z" fill="#B5453C"/>
<path d="M173.941 171.163C173.941 171.243 173.853 171.307 173.744 171.307C173.634 171.307 173.545 171.243 173.545 171.163C173.545 171.083 173.634 171.018 173.744 171.018C173.853 171.018 173.941 171.083 173.941 171.163Z" fill="#B5453C"/>
<path d="M171.927 170.945C171.927 171.025 171.839 171.09 171.73 171.09C171.621 171.09 171.532 171.025 171.532 170.945C171.532 170.865 171.621 170.801 171.73 170.801C171.839 170.801 171.927 170.865 171.927 170.945Z" fill="#B5453C"/>
<path d="M172.943 170.689C172.943 170.821 172.796 170.928 172.616 170.928C172.436 170.928 172.29 170.822 172.29 170.689C172.29 170.558 172.436 170.451 172.616 170.451C172.796 170.451 172.943 170.558 172.943 170.689Z" fill="#B5453C"/>
<path d="M172.616 171.464C172.616 171.554 172.518 171.626 172.395 171.626C172.273 171.626 172.174 171.554 172.174 171.464C172.174 171.375 172.273 171.303 172.395 171.303C172.518 171.303 172.616 171.375 172.616 171.464Z" fill="#B5453C"/>
<path d="M169.717 170.583C169.717 170.642 169.652 170.69 169.572 170.69C169.492 170.69 169.425 170.642 169.425 170.583C169.425 170.525 169.49 170.477 169.572 170.477C169.652 170.477 169.717 170.525 169.717 170.583Z" fill="#B5453C"/>
<path d="M171.397 170.965C171.397 170.965 171.112 170.967 170.887 171.353C170.888 171.353 171.261 171.448 171.397 170.965Z" fill="#82B378"/>
<path d="M174.682 171.33C174.682 171.33 174.464 170.977 174.162 170.992C174.163 170.992 174.414 171.527 174.682 171.33Z" fill="#82B378"/>
<path d="M172.091 171.923C172.091 171.923 171.869 171.584 171.566 171.618C171.566 171.618 171.827 172.137 172.091 171.923Z" fill="#82B378"/>
<path d="M173.81 172.266C173.81 172.266 173.528 172.199 173.279 172.528C173.279 172.528 173.643 172.712 173.81 172.266Z" fill="#82B378"/>
<path d="M169.443 170.259C169.443 170.259 169.197 170.155 168.963 170.405C168.963 170.405 169.277 170.625 169.443 170.259Z" fill="#82B378"/>
<path d="M143.325 180.721C140.667 181.087 138.255 181.386 136.564 182.45C135.006 183.431 134.052 184.749 134.052 186.198C134.052 187.81 135.088 189.534 137.107 190.261C138.804 190.873 141.476 192.126 143.325 191.675C145.644 191.109 147.706 191.187 149.323 190.375L148.573 189.852L143.335 186.198L151.772 186.644L152.562 186.685C152.586 186.525 152.598 186.363 152.598 186.199C152.598 184.647 151.506 183.247 149.75 182.25C148.084 181.304 145.813 180.38 143.325 180.721Z" fill="#FFE4CC"/>
<path d="M151.772 186.645L143.335 186.199L148.573 189.853C148.053 190.077 147.484 190.27 146.876 190.423C145.798 190.695 144.551 190.509 143.334 190.846C141.319 191.406 139.458 190.12 137.965 189.796C136.357 189.445 134.676 187.606 134.858 186.199C135.048 184.738 136.137 183.045 138.089 182.548C139.556 182.175 141.49 181.31 143.47 181.31C145.078 181.31 146.427 182.073 147.725 182.223C150.174 182.508 151.808 184.515 151.808 186.199C151.81 186.35 151.797 186.498 151.772 186.645Z" fill="#F77548"/>
<path d="M138.884 185.696C138.884 185.856 138.706 185.985 138.488 185.985C138.269 185.985 138.091 185.854 138.091 185.696C138.091 185.536 138.269 185.407 138.488 185.407C138.706 185.406 138.884 185.536 138.884 185.696Z" fill="#B5453C"/>
<path d="M141.295 184.304C141.295 184.464 141.117 184.593 140.898 184.593C140.679 184.593 140.502 184.462 140.502 184.304C140.502 184.144 140.679 184.015 140.898 184.015C141.117 184.015 141.295 184.144 141.295 184.304Z" fill="#B5453C"/>
<path d="M139.805 183.537C139.805 183.668 139.659 183.776 139.479 183.776C139.299 183.776 139.153 183.67 139.153 183.537C139.153 183.406 139.299 183.298 139.479 183.298C139.659 183.3 139.805 183.406 139.805 183.537Z" fill="#B5453C"/>
<path d="M142.76 182.946C142.76 183.093 142.597 183.212 142.396 183.212C142.195 183.212 142.032 183.093 142.032 182.946C142.032 182.799 142.195 182.68 142.396 182.68C142.597 182.68 142.76 182.799 142.76 182.946Z" fill="#B5453C"/>
<path d="M142.76 185.696C142.76 185.928 142.502 186.115 142.186 186.115C141.87 186.115 141.612 185.928 141.612 185.696C141.612 185.464 141.87 185.277 142.186 185.277C142.502 185.277 142.76 185.464 142.76 185.696Z" fill="#B5453C"/>
<path d="M144.008 184.164C144.008 184.324 143.83 184.453 143.611 184.453C143.392 184.453 143.215 184.323 143.215 184.164C143.215 184.004 143.392 183.875 143.611 183.875C143.83 183.875 144.008 184.004 144.008 184.164Z" fill="#B5453C"/>
<path d="M145.843 184.309C145.843 184.389 145.754 184.453 145.644 184.453C145.534 184.453 145.445 184.389 145.445 184.309C145.445 184.229 145.534 184.164 145.644 184.164C145.754 184.164 145.843 184.229 145.843 184.309Z" fill="#B5453C"/>
<path d="M145.012 183.066C145.012 183.146 144.923 183.211 144.813 183.211C144.703 183.211 144.614 183.146 144.614 183.066C144.614 182.986 144.703 182.922 144.813 182.922C144.923 182.922 145.012 182.986 145.012 183.066Z" fill="#B5453C"/>
<path d="M142.76 187.73C142.76 187.81 142.671 187.875 142.562 187.875C142.452 187.875 142.363 187.81 142.363 187.73C142.363 187.65 142.452 187.586 142.562 187.586C142.671 187.586 142.76 187.65 142.76 187.73Z" fill="#B5453C"/>
<path d="M144.118 188.388C144.118 188.468 144.029 188.533 143.92 188.533C143.811 188.533 143.721 188.468 143.721 188.388C143.721 188.308 143.81 188.244 143.92 188.244C144.03 188.244 144.118 188.309 144.118 188.388Z" fill="#B5453C"/>
<path d="M141.116 187.254C141.116 187.434 140.916 187.581 140.668 187.581C140.421 187.581 140.221 187.434 140.221 187.254C140.221 187.074 140.421 186.927 140.668 186.927C140.915 186.927 141.116 187.074 141.116 187.254Z" fill="#B5453C"/>
<path d="M138.545 187.335C138.545 187.335 138.251 187.193 137.966 187.478C137.966 187.478 138.339 187.764 138.545 187.335Z" fill="#82B378"/>
<path d="M140.806 185.269C140.806 185.269 140.408 185.077 140.022 185.464C140.021 185.464 140.525 185.85 140.806 185.269Z" fill="#82B378"/>
<path d="M145.094 184.168C145.094 184.168 144.684 184.171 144.359 184.727C144.36 184.727 144.898 184.863 145.094 184.168Z" fill="#82B378"/>
<path d="M146.999 184.586C146.999 184.586 146.652 184.171 146.222 184.312C146.222 184.311 146.639 184.973 146.999 184.586Z" fill="#82B378"/>
<path d="M143.947 185.772C143.947 185.772 143.754 185.223 143.396 185.051C143.396 185.051 143.599 185.835 143.947 185.772Z" fill="#82B378"/>
<path d="M143.274 186.553C143.274 186.553 142.928 186.505 142.636 186.936C142.636 186.936 143.085 187.115 143.274 186.553Z" fill="#82B378"/>
<path d="M143.599 189.006C143.599 189.006 143.315 188.627 142.949 188.712C142.949 188.712 143.285 189.305 143.599 189.006Z" fill="#82B378"/>
<path d="M144.101 187.361C144.101 187.361 143.755 187.335 143.471 187.783C143.471 187.783 143.923 187.934 144.101 187.361Z" fill="#82B378"/>
<path d="M142.516 184.326C142.516 184.326 142.179 184.178 141.856 184.517C141.856 184.517 142.285 184.826 142.516 184.326Z" fill="#82B378"/>
<path d="M141.651 183.608C141.651 183.608 141.392 183.167 141.023 183.167C141.023 183.168 141.321 183.833 141.651 183.608Z" fill="#82B378"/>
<path d="M139.081 187.698C138.691 187.887 138.496 188.268 138.647 188.546C138.761 188.755 139.011 188.711 139.295 188.596L139.439 188.861C139.459 188.898 139.518 188.908 139.569 188.883L139.845 188.749C139.897 188.724 139.923 188.674 139.903 188.637L139.76 188.373C140.022 188.227 140.183 188.076 140.065 187.859C139.913 187.582 139.471 187.51 139.081 187.698Z" fill="#EFCBAB"/>
<path d="M146.481 182.842C146.798 182.996 146.958 183.307 146.834 183.534C146.742 183.704 146.538 183.667 146.307 183.574L146.189 183.79C146.173 183.82 146.125 183.829 146.084 183.808L145.859 183.7C145.818 183.679 145.797 183.639 145.813 183.609L145.929 183.394C145.717 183.276 145.584 183.152 145.68 182.976C145.803 182.748 146.163 182.689 146.481 182.842Z" fill="#EFCBAB"/>
<path d="M141.947 186.517C142.265 186.671 142.425 186.982 142.301 187.208C142.209 187.379 142.005 187.342 141.774 187.249L141.656 187.465C141.64 187.495 141.592 187.503 141.551 187.483L141.326 187.374C141.285 187.354 141.263 187.313 141.28 187.284L141.396 187.069C141.183 186.951 141.051 186.826 141.147 186.651C141.27 186.423 141.63 186.364 141.947 186.517Z" fill="#EFCBAB"/>
<path d="M139.26 184.166C138.943 184.32 138.783 184.63 138.907 184.857C138.999 185.028 139.203 184.991 139.434 184.898L139.552 185.114C139.568 185.144 139.616 185.152 139.657 185.132L139.882 185.023C139.923 185.003 139.944 184.962 139.928 184.933L139.812 184.718C140.024 184.599 140.157 184.475 140.061 184.3C139.939 184.072 139.578 184.013 139.26 184.166Z" fill="#EFCBAB"/>
<path d="M153.089 186.185L145.807 185.802L144.813 185.273V185.749L150.497 189.715C152.212 188.854 153.364 187.612 153.571 186.211V185.735L153.089 186.185Z" fill="#FFE4CC"/>
<path d="M153.571 185.733C153.362 187.133 152.212 188.376 150.495 189.236L147.92 187.439L147.384 187.065L144.813 185.271L153.571 185.733Z" fill="#FF7D5A"/>
<path d="M147.726 186.127C147.726 186.287 147.548 186.416 147.329 186.416C147.111 186.416 146.933 186.286 146.933 186.127C146.933 185.967 147.111 185.838 147.329 185.838C147.548 185.838 147.726 185.967 147.726 186.127Z" fill="#B5453C"/>
<path d="M148.145 187.178C148.145 187.294 148.053 187.393 147.92 187.44L147.383 187.066C147.443 186.962 147.585 186.891 147.748 186.891C147.968 186.889 148.145 187.018 148.145 187.178Z" fill="#B5453C"/>
<path d="M149.563 187.244C149.563 187.324 149.474 187.389 149.364 187.389C149.254 187.389 149.165 187.324 149.165 187.244C149.165 187.164 149.254 187.1 149.364 187.1C149.474 187.1 149.563 187.164 149.563 187.244Z" fill="#B5453C"/>
<path d="M150.626 186.417C150.626 186.497 150.538 186.561 150.429 186.561C150.32 186.561 150.23 186.497 150.23 186.417C150.23 186.337 150.319 186.272 150.429 186.272C150.539 186.272 150.626 186.337 150.626 186.417Z" fill="#B5453C"/>
<path d="M148.612 186.2C148.612 186.28 148.523 186.344 148.413 186.344C148.303 186.344 148.216 186.28 148.216 186.2C148.216 186.12 148.305 186.055 148.413 186.055C148.523 186.054 148.612 186.12 148.612 186.2Z" fill="#B5453C"/>
<path d="M149.628 185.944C149.628 186.075 149.481 186.183 149.301 186.183C149.121 186.183 148.975 186.076 148.975 185.944C148.975 185.813 149.121 185.705 149.301 185.705C149.481 185.705 149.628 185.813 149.628 185.944Z" fill="#B5453C"/>
<path d="M149.301 186.718C149.301 186.807 149.203 186.879 149.08 186.879C148.958 186.879 148.859 186.806 148.859 186.718C148.859 186.628 148.958 186.557 149.08 186.557C149.203 186.557 149.301 186.629 149.301 186.718Z" fill="#B5453C"/>
<path d="M146.402 185.838C146.402 185.896 146.337 185.944 146.257 185.944C146.177 185.944 146.112 185.896 146.112 185.838C146.112 185.779 146.177 185.731 146.257 185.731C146.337 185.731 146.402 185.779 146.402 185.838Z" fill="#B5453C"/>
<path d="M148.082 186.219C148.082 186.219 147.797 186.22 147.572 186.607C147.572 186.607 147.946 186.701 148.082 186.219Z" fill="#82B378"/>
<path d="M151.367 186.584C151.367 186.584 151.149 186.232 150.847 186.246C150.848 186.246 151.099 186.781 151.367 186.584Z" fill="#82B378"/>
<path d="M148.776 187.176C148.776 187.176 148.554 186.837 148.251 186.87C148.251 186.872 148.512 187.39 148.776 187.176Z" fill="#82B378"/>
<path d="M150.495 187.52C150.495 187.52 150.213 187.453 149.964 187.783C149.964 187.783 150.328 187.966 150.495 187.52Z" fill="#82B378"/>
<path d="M146.128 185.513C146.128 185.513 145.882 185.409 145.648 185.66C145.648 185.66 145.962 185.88 146.128 185.513Z" fill="#82B378"/>
<path d="M157.441 248.795H144.891C144.609 248.795 144.378 248.576 144.378 248.306C144.378 248.037 144.608 247.816 144.891 247.816H157.44C157.721 247.816 157.952 248.036 157.952 248.306C157.952 248.576 157.722 248.795 157.441 248.795Z" fill="#FCECDB"/>
<path d="M157.441 246.504H144.891C144.609 246.504 144.378 246.284 144.378 246.014C144.378 245.746 144.608 245.525 144.891 245.525H157.44C157.721 245.525 157.952 245.745 157.952 246.014C157.952 246.283 157.722 246.504 157.441 246.504Z" fill="#FCECDB"/>
<path d="M150.501 168.935H135.93C135.622 168.935 135.37 168.695 135.37 168.4C135.37 168.106 135.621 167.865 135.93 167.865H150.501C150.808 167.865 151.061 168.105 151.061 168.4C151.059 168.695 150.808 168.935 150.501 168.935Z" fill="#EFCBAB"/>
<path d="M150.501 171.118H135.93C135.622 171.118 135.37 170.878 135.37 170.583C135.37 170.29 135.621 170.048 135.93 170.048H150.501C150.808 170.048 151.061 170.288 151.061 170.583C151.059 170.878 150.808 171.118 150.501 171.118Z" fill="#EFCBAB"/>
<path d="M150.501 173.302H135.93C135.622 173.302 135.37 173.062 135.37 172.767C135.37 172.474 135.621 172.232 135.93 172.232H150.501C150.808 172.232 151.061 172.472 151.061 172.767C151.059 173.061 150.808 173.302 150.501 173.302Z" fill="#EFCBAB"/>
<path d="M175.414 153.35H160.843C160.535 153.35 160.283 153.11 160.283 152.815C160.283 152.521 160.534 152.28 160.843 152.28H175.414C175.721 152.28 175.974 152.52 175.974 152.815C175.974 153.108 175.721 153.35 175.414 153.35Z" fill="#EFCBAB"/>
<path d="M175.414 155.533H160.843C160.535 155.533 160.283 155.293 160.283 154.998C160.283 154.705 160.534 154.463 160.843 154.463H175.414C175.721 154.463 175.974 154.703 175.974 154.998C175.974 155.292 175.721 155.533 175.414 155.533Z" fill="#EFCBAB"/>
<path d="M175.414 157.716H160.843C160.535 157.716 160.283 157.476 160.283 157.181C160.283 156.887 160.534 156.646 160.843 156.646H175.414C175.721 156.646 175.974 156.886 175.974 157.181C175.974 157.476 175.721 157.716 175.414 157.716Z" fill="#EFCBAB"/>
<path d="M175.414 184.336H160.843C160.535 184.336 160.283 184.096 160.283 183.801C160.283 183.507 160.534 183.266 160.843 183.266H175.414C175.721 183.266 175.974 183.506 175.974 183.801C175.974 184.095 175.721 184.336 175.414 184.336Z" fill="#EFCBAB"/>
<path d="M175.414 186.519H160.843C160.535 186.519 160.283 186.279 160.283 185.984C160.283 185.69 160.534 185.449 160.843 185.449H175.414C175.721 185.449 175.974 185.689 175.974 185.984C175.974 186.279 175.721 186.519 175.414 186.519Z" fill="#EFCBAB"/>
<path d="M175.414 188.702H160.843C160.535 188.702 160.283 188.462 160.283 188.167C160.283 187.874 160.534 187.632 160.843 187.632H175.414C175.721 187.632 175.974 187.872 175.974 188.167C175.974 188.462 175.721 188.702 175.414 188.702Z" fill="#EFCBAB"/>
<path d="M175.414 235.332H160.843C160.535 235.332 160.283 235.092 160.283 234.797C160.283 234.503 160.534 234.262 160.843 234.262H175.414C175.721 234.262 175.974 234.502 175.974 234.797C175.974 235.092 175.721 235.332 175.414 235.332Z" fill="#FCECDB"/>
<path d="M175.414 237.516H160.843C160.535 237.516 160.283 237.276 160.283 236.981C160.283 236.687 160.534 236.446 160.843 236.446H175.414C175.721 236.446 175.974 236.686 175.974 236.981C175.974 237.276 175.721 237.516 175.414 237.516Z" fill="#FCECDB"/>
<path d="M175.414 239.7H160.843C160.535 239.7 160.283 239.46 160.283 239.165C160.283 238.871 160.534 238.63 160.843 238.63H175.414C175.721 238.63 175.974 238.87 175.974 239.165C175.974 239.46 175.721 239.7 175.414 239.7Z" fill="#FCECDB"/>
<path d="M159.095 225.638H144.524C144.216 225.638 143.964 225.398 143.964 225.103C143.964 224.81 144.215 224.568 144.524 224.568H159.095C159.402 224.568 159.655 224.808 159.655 225.103C159.655 225.397 159.402 225.638 159.095 225.638Z" fill="#FCECDB"/>
<path d="M159.095 227.821H144.524C144.216 227.821 143.964 227.581 143.964 227.286C143.964 226.992 144.215 226.751 144.524 226.751H159.095C159.402 226.751 159.655 226.991 159.655 227.286C159.655 227.581 159.402 227.821 159.095 227.821Z" fill="#FCECDB"/>
<path d="M159.095 230.004H144.524C144.216 230.004 143.964 229.764 143.964 229.469C143.964 229.176 144.215 228.935 144.524 228.935H159.095C159.402 228.935 159.655 229.175 159.655 229.469C159.655 229.764 159.402 230.004 159.095 230.004Z" fill="#FCECDB"/>
<path d="M174.96 216.754H160.389C160.081 216.754 159.829 216.514 159.829 216.219C159.829 215.925 160.08 215.684 160.389 215.684H174.96C175.267 215.684 175.52 215.924 175.52 216.219C175.52 216.513 175.268 216.754 174.96 216.754Z" fill="#FCECDB"/>
<path d="M174.96 218.937H160.389C160.081 218.937 159.829 218.698 159.829 218.403C159.829 218.109 160.08 217.868 160.389 217.868H174.96C175.267 217.868 175.52 218.108 175.52 218.403C175.52 218.696 175.268 218.937 174.96 218.937Z" fill="#FCECDB"/>
<path d="M174.96 221.12H160.389C160.081 221.12 159.829 220.88 159.829 220.585C159.829 220.291 160.08 220.05 160.389 220.05H174.96C175.267 220.05 175.52 220.29 175.52 220.585C175.52 220.88 175.268 221.12 174.96 221.12Z" fill="#FCECDB"/>
<path d="M174.96 210.169H160.389C160.081 210.169 159.829 209.929 159.829 209.634C159.829 209.34 160.08 209.099 160.389 209.099H174.96C175.267 209.099 175.52 209.339 175.52 209.634C175.52 209.929 175.268 210.169 174.96 210.169Z" fill="#FCECDB"/>
<path d="M174.96 212.353H160.389C160.081 212.353 159.829 212.113 159.829 211.818C159.829 211.524 160.08 211.283 160.389 211.283H174.96C175.267 211.283 175.52 211.523 175.52 211.818C175.52 212.111 175.268 212.353 174.96 212.353Z" fill="#FCECDB"/>
<path d="M174.96 214.537H160.389C160.081 214.537 159.829 214.297 159.829 214.002C159.829 213.708 160.08 213.467 160.389 213.467H174.96C175.267 213.467 175.52 213.707 175.52 214.002C175.52 214.295 175.268 214.537 174.96 214.537Z" fill="#FCECDB"/>
<path d="M215.263 185.985H201.311C199.015 185.985 197.137 184.191 197.137 181.999C197.137 179.807 199.015 178.014 201.311 178.014H215.263C217.558 178.014 219.436 179.807 219.436 181.999C219.436 184.191 217.558 185.985 215.263 185.985Z" fill="#F99746"/>
<path d="M205.619 180.853C205.619 180.853 208.268 184.393 208.26 184.261C208.252 184.128 210.954 179.231 210.954 179.231L207.835 182.119L205.619 180.853Z" fill="white"/>
<path d="M217.128 186.254C217.044 186.205 216.928 186.143 216.789 186.071L214.6 184.364C214.6 184.364 214.322 184.516 214.6 184.805C214.635 184.842 214.683 184.891 214.741 184.947L213.905 184.324C213.905 184.324 213.757 184.465 213.852 184.689C213.921 184.849 214.705 185.488 215.145 185.839C214.88 185.717 214.506 185.448 213.947 184.912C213.598 184.578 213.712 185.082 213.764 185.302C213.858 185.691 214.946 187.007 215.329 187.598C215.711 188.19 215.902 188.774 215.635 188.518C215.367 188.263 213.915 187.408 213.761 187.598C213.608 187.787 214.487 188.518 214.908 189.102C215.329 189.686 215.787 190.672 217.279 190.892C218.771 191.11 219.027 190.39 219.027 190.39C219.027 190.39 217.815 186.657 217.128 186.254Z" fill="#FFB27D"/>
<path d="M263.218 221.839C263.218 221.839 262.854 225.213 262.456 225.851C262.057 226.488 260.204 228.342 259.636 228.929C259.598 228.969 259.229 228.659 259.507 228.209C260.633 226.396 260.319 226.832 259.93 225.64C259.738 225.052 259.618 226.746 259.299 226.787C258.98 226.826 259.094 224.999 259.081 224.444C259.07 223.888 260.679 223.627 260.869 221.623C260.992 220.332 263.218 221.839 263.218 221.839Z" fill="#FFB27D"/>
<path d="M252.139 187.223C252.139 187.223 249.203 200.992 233.036 205.491C227.99 206.895 216.526 191.031 216.526 191.031C216.526 191.031 216.929 189.568 219.455 189.904C219.455 189.904 230.617 196.96 232.022 197.728C233.269 198.408 241.47 188.983 245.208 187.463C248.946 185.942 252.139 187.223 252.139 187.223Z" fill="#006666"/>
<path d="M271.439 273.777C271.439 273.777 273.444 275.525 273.053 276.767C272.661 278.009 270.851 278.836 270.607 280.355C270.362 281.873 269.384 282.701 268.504 282.701C267.624 282.701 264.307 282.701 264.307 282.701C264.307 282.701 263.659 281.633 265.225 281.311C266.79 280.989 267.38 279.206 267.283 277.55C267.185 275.894 267.429 273.687 267.429 273.687L270.755 272.951L271.439 273.777Z" fill="#006666"/>
<path d="M246.836 278.298C246.836 278.298 247.196 282.275 246.315 282.689L235.048 282.668C235.048 282.668 235.048 281.426 236.857 281.15C238.666 280.874 241.846 279.862 242.385 277.609C242.922 275.354 246.836 278.298 246.836 278.298Z" fill="#006666"/>
<path d="M237.322 222.113C237.322 222.113 237.916 229.084 238.615 237.466C239.564 248.851 240.706 262.835 240.819 265.484C241.014 270.085 241.798 277.443 241.798 277.443C241.798 277.443 243.656 279.191 247.375 278.454C247.375 278.454 250.688 267.95 251.634 256.836C251.649 256.653 251.663 256.471 251.678 256.287C252.558 244.973 253.927 221.148 253.927 221.148L237.322 222.113Z" fill="#F99746"/>
<path d="M237.322 222.113C237.322 222.113 237.916 229.084 238.615 237.466L251.633 256.836C251.648 256.653 251.662 256.471 251.677 256.287C252.557 244.973 253.926 221.148 253.926 221.148L237.322 222.113Z" fill="#ED7D2B"/>
<path d="M240.037 222.941C240.037 222.941 250.749 248.191 257.792 260.057C264.835 271.923 267.036 275.235 267.036 275.235C267.036 275.235 271.072 273.718 271.439 272.682C271.439 272.682 268.746 249.773 264.028 244.189C261.363 241.033 258.232 231.564 258.086 228.253C257.939 224.941 257.132 218.387 257.132 218.387L240.037 222.941Z" fill="#F99746"/>
<path d="M254.131 184.028C254.131 184.028 246.883 187.367 242.705 186.128C242.705 186.128 243.734 184.889 245.533 183.967C245.388 183.166 245.275 182.471 245.211 181.881C245.035 180.521 245.035 179.75 245.035 179.75L247.831 177.65L250.483 175.64C250.274 181.292 254.131 184.028 254.131 184.028Z" fill="#FFB27D"/>
<path d="M257.949 219.68C257.966 220.104 257.018 220.588 256.599 220.768C253.498 222.068 250.605 222.975 247.327 223.277C243.455 223.655 238.874 222.823 237.298 222.854C237.138 222.854 236.993 222.794 236.865 222.688C236.752 222.613 236.672 218.155 236.752 212.549C236.752 212.323 236.752 212.096 236.768 211.869V211.794C236.801 209.603 236.881 207.306 236.993 205.009C237.218 199.962 237.637 195.095 238.344 192.406C239.195 189.233 241.124 187.132 242.876 185.605L244.321 184.397C245.768 184.669 247.294 184.593 248.821 183.884C250.493 183.114 252.292 182.283 252.582 182.494C254.767 184.02 256.245 187.45 257.034 191.833C257.038 191.855 257.043 191.876 257.045 191.898C257.487 194.404 257.708 197.207 257.692 200.143C257.692 201.232 257.659 202.35 257.596 203.453C257.273 208.451 257.489 212.9 257.699 215.983C257.741 216.592 257.783 217.147 257.819 217.644C257.886 218.516 257.934 219.197 257.949 219.68Z" fill="#2B9375"/>
<path d="M257.701 215.98C245.687 202.734 253.14 193.106 253.14 193.106L257.045 191.895C257.487 194.401 257.708 197.205 257.692 200.141C257.692 201.23 257.659 202.347 257.596 203.45C257.274 208.448 257.489 212.897 257.701 215.98Z" fill="#006666"/>
<path d="M250.53 177.803C250.53 177.803 248.699 180.99 245.21 181.882C245.034 180.522 245.034 179.751 245.034 179.751L247.83 177.651L250.53 177.803Z" fill="#ED985F"/>
<path d="M243.76 179.659C243.76 179.659 250.674 180.74 251.323 176.68C251.972 172.621 253.301 170.027 248.915 169.165C244.528 168.304 243.42 169.731 242.854 171.036C242.286 172.343 241.979 179.274 243.76 179.659Z" fill="#FFB27D"/>
<path d="M253.836 168.679C253.899 168.61 254.044 168.555 254.366 168.538C254.366 168.538 254.109 168.384 253.765 168.376C253.697 167.948 253.459 167.19 252.688 167.006C252.688 167.006 253.102 167.218 253.157 167.673C252.265 166.796 250.35 166.159 245.052 166.559C238.069 167.085 240.369 171.355 241.273 171.864C242.177 172.372 244.453 170.978 246.138 171.104C247.822 171.232 248.142 173.557 248.715 173.875C249.286 174.194 249.061 173.631 249.835 173.296C250.608 172.962 250.682 174.186 250.459 174.981C250.235 175.776 251.298 176.826 251.298 176.826C251.298 176.826 251.298 176.826 252.372 175.721C253.446 174.617 254.457 169.941 253.97 168.944C253.922 168.858 253.88 168.769 253.836 168.679Z" fill="#18191C"/>
<path d="M252.579 182.458C252.579 182.458 256.954 184.436 259.052 187.478C262.305 192.195 266.077 209.388 266.146 210.98C266.216 212.571 263.393 223.812 263.393 223.812C263.393 223.812 260.531 223.631 259.792 222.252C259.792 222.252 260.363 210.703 260.002 209.961C259.64 209.219 249.02 194.689 249.37 191.322C250.097 184.323 252.579 182.458 252.579 182.458Z" fill="#158C61"/>
<path d="M262.455 225.851L260.385 229.158C260.385 229.158 260.137 229.059 260.176 228.822C260.215 228.586 260.814 226.795 260.814 226.795L262.455 225.851Z" fill="#FFB27D"/>
<path d="M260.381 225.946C260.381 225.946 258.889 227.572 259.22 227.94L260.298 227.144L260.381 225.946Z" fill="#FFB27D"/>
<circle cx="127" cy="103" r="19" fill="#00B37B"/>
<path d="M323.629 282.63H2.37109" stroke="#2C3539" stroke-width="3" stroke-miterlimit="10" stroke-linecap="round"/>
</svg>
