<svg width="330" height="275" viewBox="0 0 330 275" fill="none" xmlns="http://www.w3.org/2000/svg">
<g clip-path="url(#clip0)">
<path opacity="0.27" d="M23.6518 283.565C23.6518 283.565 -15.6898 242.689 16.9986 198.435C46.0027 159.17 79.8177 161.854 104.627 177.788C115.193 184.575 145.659 178.624 171.588 138.67C206.948 84.1842 329.523 117.23 307.174 201.058C296.359 241.625 340.09 243.1 317.807 283.65L23.6518 283.565Z" fill="#2B9375"/>
<path d="M11.3999 273.912H324.925" stroke="#2C3539" stroke-width="3" stroke-miterlimit="10" stroke-linecap="round"/>
<path d="M235.113 266.081C235.113 266.081 262.418 230.012 310.209 273.928H230.393L235.113 266.081Z" fill="#047A54" stroke="#2C3539" stroke-width="3" stroke-miterlimit="10" stroke-linecap="round"/>
<path d="M126.943 273.912C126.943 273.912 118.536 257.881 94.3782 263.025C94.3782 263.025 64.451 229.49 22.9541 273.912H126.943Z" fill="#047A54" stroke="#2C3539" stroke-width="3" stroke-miterlimit="10" stroke-linecap="round"/>
<path d="M97.0006 38.6565H25.376C25.376 38.6565 29.248 30.288 39.2289 28.1997C39.2289 28.1997 37.1309 12 58.6661 12C80.2013 12 75.4654 29.2438 75.4654 29.2438C75.4654 29.2438 94.9026 25.5893 97.0006 38.6565Z" fill="#00B37B"/>
<path d="M250.95 88.8676H319.937C319.937 88.8676 316.204 80.8062 306.593 78.7947C306.593 78.7947 308.614 63.1938 287.881 63.1938C267.148 63.1938 271.699 79.8081 271.699 79.8081C271.699 79.8081 252.971 76.2918 250.95 88.8676Z" fill="#00B37B"/>
<path d="M249.136 140.261H231.72L228.187 180.599H249.136C261.554 180.599 267.154 187.002 273.078 193.789C278.693 200.223 285.064 207.501 297.112 207.501H300.814L301.138 203.847C301.539 199.117 301.802 195.156 301.802 192.714C301.832 163.785 278.199 140.261 249.136 140.261Z" fill="#F3F3F3"/>
<path d="M249.136 140.261H232.938C261.986 140.261 285.619 163.785 285.619 192.699C285.619 195.14 285.357 199.102 284.956 203.831L284.909 204.415C288.272 206.288 292.237 207.486 297.142 207.486H300.845L301.169 203.831C301.57 199.102 301.832 195.14 301.832 192.699C301.832 163.785 278.199 140.261 249.136 140.261Z" fill="#E9E8E8"/>
<path d="M236.98 79.8852C236.98 79.8238 236.98 79.7777 236.964 79.7163C236.964 79.6395 236.964 79.5474 236.949 79.4706C236.949 79.4092 236.933 79.3631 236.918 79.3017C236.903 79.2249 236.903 79.1481 236.887 79.0714C236.872 79.0099 236.856 78.9639 236.841 78.9025C236.826 78.8257 236.81 78.7643 236.779 78.6875C236.764 78.6261 236.733 78.5646 236.718 78.5186C236.687 78.4572 236.671 78.3957 236.64 78.3343C236.61 78.2729 236.579 78.2115 236.548 78.1501C236.517 78.104 236.502 78.0426 236.471 77.9965C236.424 77.9197 236.378 77.843 236.332 77.7662C236.316 77.7355 236.286 77.7048 236.27 77.6587C236.208 77.5666 236.147 77.4744 236.07 77.3977C236.054 77.3823 236.054 77.3669 236.039 77.3516C235.715 76.9524 235.314 76.6299 234.866 76.3842C234.866 76.3842 234.851 76.3842 234.851 76.3689C234.758 76.3228 234.666 76.2767 234.558 76.2307C234.527 76.2153 234.512 76.2 234.481 76.2C234.404 76.1692 234.311 76.1385 234.234 76.1078C234.188 76.0925 234.141 76.0771 234.095 76.0618C234.033 76.0464 233.956 76.031 233.894 76.0157C233.833 76.0003 233.771 75.985 233.694 75.9696C233.632 75.9543 233.571 75.9543 233.509 75.9389C233.432 75.9236 233.37 75.9082 233.293 75.9082C233.277 75.9082 233.277 75.9082 233.262 75.9082C233.2 75.9082 233.123 75.9082 233.061 75.9082C233.015 75.9082 232.953 75.9082 232.907 75.9082H232.846H232.83H175.336H149.99H85.138C83.2406 75.9082 81.59 77.2441 81.1889 79.0867C81.1889 79.1021 81.1889 79.1174 81.1735 79.1328C81.158 79.2403 81.1426 79.3324 81.1272 79.4399C81.1272 79.4706 81.1118 79.5013 81.1118 79.532V79.5474L69.0946 203.049C69.0946 203.049 69.0946 203.049 69.0946 203.064L69.0483 203.479L69.0638 203.494C69.0638 205.72 70.8841 207.517 73.1209 207.517H222.124C222.263 207.517 222.402 207.502 222.525 207.502C222.556 207.502 222.572 207.502 222.602 207.486C222.71 207.471 222.818 207.456 222.911 207.44C222.957 207.425 223.003 207.425 223.05 207.409C223.127 207.394 223.219 207.379 223.297 207.348C223.358 207.333 223.405 207.317 223.451 207.287C223.513 207.256 223.59 207.241 223.651 207.21C223.713 207.179 223.759 207.164 223.821 207.133C223.883 207.102 223.945 207.072 224.006 207.041C224.068 207.01 224.114 206.98 224.176 206.949C224.238 206.918 224.284 206.887 224.346 206.841C224.392 206.811 224.454 206.78 224.5 206.734C224.546 206.703 224.608 206.657 224.654 206.611C224.7 206.58 224.747 206.534 224.793 206.504C224.839 206.457 224.901 206.411 224.947 206.365C224.993 206.319 225.024 206.289 225.071 206.243C225.117 206.196 225.163 206.135 225.209 206.089C225.24 206.043 225.287 206.012 225.317 205.966C225.364 205.905 225.41 205.859 225.441 205.797C225.472 205.751 225.503 205.705 225.533 205.659C225.58 205.598 225.611 205.536 225.641 205.475C225.672 205.429 225.703 205.383 225.719 205.337C225.749 205.275 225.78 205.214 225.811 205.137C225.842 205.091 225.857 205.029 225.888 204.983C225.919 204.922 225.934 204.861 225.965 204.784C225.981 204.722 226.012 204.661 226.027 204.615C226.042 204.553 226.058 204.492 226.073 204.431C226.089 204.369 226.104 204.308 226.12 204.231C226.135 204.17 226.135 204.108 226.15 204.031C226.166 203.97 226.166 203.893 226.181 203.832C226.181 203.816 226.181 203.816 226.181 203.801L236.98 80.3458C236.98 80.3305 236.98 80.3305 236.98 80.3151V80.2691C236.98 80.2383 236.98 80.1923 236.98 80.1616C236.98 80.0848 236.995 79.9927 236.995 79.9159C236.995 79.9159 236.98 79.9005 236.98 79.8852Z" fill="#47B869"/>
<path d="M236.995 79.8852C236.995 79.8238 236.995 79.7777 236.98 79.7163C236.98 79.6395 236.98 79.5474 236.965 79.4706C236.965 79.4092 236.949 79.3631 236.934 79.3017C236.918 79.2249 236.903 79.1481 236.887 79.0714C236.872 79.0099 236.857 78.9639 236.841 78.9025C236.826 78.8257 236.81 78.7643 236.779 78.6875C236.764 78.6261 236.733 78.5646 236.718 78.5186C236.687 78.4572 236.671 78.3957 236.641 78.3343C236.61 78.2729 236.579 78.2115 236.548 78.1501C236.517 78.104 236.502 78.0426 236.471 77.9965C236.425 77.9197 236.378 77.843 236.332 77.7662C236.317 77.7355 236.286 77.7048 236.27 77.6587C236.209 77.5666 236.147 77.4744 236.07 77.3977C236.054 77.3823 236.054 77.3669 236.039 77.3516C235.715 76.9524 235.314 76.6299 234.867 76.3842C234.867 76.3842 234.851 76.3842 234.851 76.3689C234.759 76.3228 234.666 76.2767 234.558 76.2307C234.527 76.2153 234.512 76.2 234.481 76.2C234.404 76.1692 234.311 76.1385 234.234 76.1078C234.188 76.0925 234.142 76.0771 234.095 76.0618C234.034 76.0464 233.956 76.031 233.895 76.0157C233.833 76.0003 233.771 75.985 233.71 75.9696C233.648 75.9543 233.586 75.9543 233.524 75.9389C233.447 75.9236 233.386 75.9082 233.308 75.9082C233.293 75.9082 233.293 75.9082 233.278 75.9082C233.216 75.9082 233.139 75.9082 233.077 75.9082C233.031 75.9082 232.969 75.9082 232.923 75.9082H232.861H232.846H216.694C216.741 75.9082 216.802 75.9082 216.849 75.9082C216.91 75.9082 216.987 75.9082 217.049 75.9082C217.064 75.9082 217.064 75.9082 217.08 75.9082C217.157 75.9082 217.219 75.9236 217.296 75.9389C217.358 75.9543 217.419 75.9543 217.481 75.9696C217.543 75.985 217.604 76.0003 217.666 76.0157C217.728 76.031 217.805 76.0464 217.867 76.0618C217.913 76.0771 217.959 76.0925 218.006 76.1078C218.083 76.1385 218.175 76.1692 218.252 76.2C218.283 76.2153 218.299 76.2307 218.329 76.2307C218.422 76.2767 218.53 76.3228 218.623 76.3689C218.623 76.3689 218.638 76.3689 218.638 76.3842C219.085 76.6299 219.486 76.9677 219.81 77.3516C219.826 77.3669 219.826 77.3823 219.841 77.3977C219.918 77.4898 219.98 77.5666 220.042 77.6587C220.073 77.6894 220.088 77.7201 220.103 77.7662C220.15 77.843 220.196 77.9197 220.242 77.9965C220.273 78.0426 220.289 78.104 220.319 78.1501C220.35 78.2115 220.381 78.2729 220.412 78.3343C220.443 78.3957 220.458 78.4572 220.489 78.5186C220.52 78.58 220.535 78.6261 220.551 78.6875C220.566 78.7643 220.597 78.8257 220.613 78.9025C220.628 78.9639 220.643 79.0099 220.659 79.0714C220.674 79.1481 220.69 79.2249 220.69 79.3017C220.705 79.3631 220.705 79.4092 220.721 79.4706C220.736 79.5474 220.736 79.6395 220.736 79.7163C220.736 79.7777 220.751 79.8238 220.751 79.8852C220.751 79.9005 220.751 79.9159 220.751 79.9312C220.751 80.008 220.751 80.1002 220.736 80.1769C220.736 80.2076 220.736 80.2384 220.736 80.2844V80.3305C220.736 80.3458 220.736 80.3458 220.736 80.3612L209.937 203.816C209.937 203.832 209.937 203.832 209.937 203.847C209.922 203.909 209.922 203.985 209.907 204.047C209.891 204.108 209.891 204.17 209.876 204.246C209.86 204.308 209.845 204.369 209.83 204.446C209.814 204.507 209.799 204.569 209.783 204.63C209.768 204.692 209.737 204.753 209.722 204.799C209.691 204.861 209.675 204.922 209.644 204.999C209.629 205.045 209.598 205.106 209.567 205.152C209.536 205.214 209.506 205.275 209.475 205.352C209.444 205.398 209.428 205.444 209.398 205.49C209.367 205.552 209.32 205.613 209.29 205.674C209.259 205.72 209.228 205.766 209.197 205.813C209.151 205.874 209.104 205.935 209.074 205.981C209.043 206.028 208.997 206.074 208.966 206.104C208.919 206.15 208.873 206.212 208.827 206.258C208.781 206.304 208.75 206.335 208.703 206.381C208.657 206.427 208.611 206.473 208.549 206.519C208.503 206.565 208.457 206.596 208.41 206.626C208.364 206.672 208.302 206.703 208.256 206.749C208.21 206.78 208.148 206.826 208.102 206.857C208.04 206.887 207.994 206.918 207.932 206.964C207.87 206.995 207.824 207.026 207.762 207.056C207.701 207.087 207.639 207.118 207.577 207.148C207.516 207.179 207.469 207.195 207.408 207.225C207.346 207.256 207.269 207.271 207.207 207.302C207.161 207.317 207.099 207.333 207.053 207.363C206.976 207.394 206.898 207.409 206.806 207.425C206.76 207.44 206.713 207.456 206.667 207.456C206.559 207.471 206.451 207.486 206.359 207.502C206.328 207.502 206.312 207.517 206.281 207.517C206.143 207.532 206.019 207.532 205.88 207.532H222.078C222.217 207.532 222.356 207.517 222.479 207.517C222.51 207.517 222.525 207.517 222.556 207.502C222.664 207.486 222.772 207.471 222.865 207.456C222.911 207.44 222.957 207.44 223.004 207.425C223.081 207.409 223.173 207.394 223.25 207.363C223.312 207.348 223.358 207.333 223.405 207.302C223.466 207.271 223.544 207.256 223.605 207.225C223.667 207.195 223.713 207.179 223.775 207.148C223.837 207.118 223.898 207.087 223.96 207.056C224.022 207.026 224.068 206.995 224.13 206.964C224.191 206.933 224.238 206.903 224.299 206.857C224.346 206.826 224.407 206.795 224.454 206.749C224.515 206.719 224.562 206.672 224.608 206.626C224.654 206.596 224.701 206.55 224.747 206.519C224.793 206.473 224.855 206.427 224.901 206.381C224.947 206.335 224.978 206.304 225.025 206.258C225.071 206.212 225.117 206.15 225.163 206.104C225.194 206.058 225.24 206.028 225.271 205.981C225.318 205.92 225.364 205.874 225.395 205.813C225.426 205.766 225.456 205.72 225.487 205.674C225.534 205.613 225.564 205.552 225.595 205.49C225.626 205.444 225.657 205.398 225.672 205.352C225.703 205.29 225.734 205.229 225.765 205.152C225.796 205.106 225.811 205.045 225.842 204.999C225.873 204.937 225.888 204.876 225.919 204.799C225.935 204.738 225.966 204.676 225.981 204.63C225.996 204.569 226.012 204.507 226.027 204.446C226.043 204.385 226.058 204.323 226.074 204.246C226.089 204.185 226.089 204.123 226.104 204.047C226.12 203.985 226.12 203.909 226.135 203.847C226.135 203.832 226.135 203.832 226.135 203.816L236.934 80.3612C236.934 80.3458 236.934 80.3458 236.934 80.3305V80.2844C236.934 80.2537 236.934 80.2076 236.934 80.1769C236.934 80.1002 236.949 80.008 236.949 79.9312C236.995 79.9159 236.995 79.9005 236.995 79.8852Z" fill="#00B37B"/>
<path d="M249.136 180.599C250.462 180.599 251.712 180.676 252.884 180.814L256.386 140.753C254.01 140.43 251.588 140.246 249.136 140.246H248.303L244.77 180.584L249.136 180.599Z" fill="#161717"/>
<path d="M80.9423 175.394H32.704C30.4826 175.394 28.6777 173.582 28.6777 171.356C28.6777 169.129 30.4826 167.317 32.704 167.317H80.9423C83.1636 167.317 84.9685 169.129 84.9685 171.356C84.9685 173.582 83.1636 175.394 80.9423 175.394Z" fill="#FDC113"/>
<path d="M38.0569 148.43H18.4037C16.1823 148.43 14.3774 146.618 14.3774 144.392C14.3774 142.165 16.1823 140.354 18.4037 140.354H38.0569C40.2783 140.354 42.0832 142.165 42.0832 144.392C42.0832 146.618 40.2783 148.43 38.0569 148.43Z" fill="#FDC113"/>
<path d="M102.4 116.077H4.02628C1.80488 116.077 0 114.265 0 112.023C0 109.797 1.80488 107.985 4.02628 107.985H102.4C104.622 107.985 106.427 109.797 106.427 112.023C106.411 114.265 104.622 116.077 102.4 116.077Z" fill="#FDC113"/>
<path d="M301.154 203.878L300.83 207.394C300.953 206.197 301.061 205.014 301.154 203.878C301.154 203.893 301.154 203.893 301.154 203.878C301.154 203.878 301.154 203.893 301.154 203.878Z" fill="#CDD2D9"/>
<path d="M297.127 207.486C285.079 207.486 278.708 200.208 273.093 193.774C267.169 186.987 261.569 180.584 249.151 180.584H228.202L226.166 203.801C226.166 203.816 226.166 203.816 226.166 203.832C226.166 203.893 226.15 203.97 226.135 204.031C226.119 204.093 226.119 204.154 226.104 204.231C226.089 204.292 226.073 204.354 226.058 204.43C226.042 204.492 226.027 204.553 226.011 204.615C225.996 204.676 225.965 204.738 225.95 204.784C225.919 204.845 225.904 204.906 225.873 204.983C225.857 205.029 225.826 205.091 225.796 205.137C225.765 205.198 225.734 205.26 225.703 205.336C225.672 205.383 225.641 205.429 225.626 205.475C225.595 205.536 225.549 205.597 225.518 205.659C225.487 205.705 225.456 205.751 225.425 205.797C225.379 205.859 225.348 205.92 225.302 205.966C225.271 206.012 225.225 206.058 225.194 206.089C225.148 206.135 225.101 206.196 225.055 206.242C225.009 206.288 224.978 206.319 224.932 206.365C224.885 206.411 224.824 206.457 224.777 206.503C224.731 206.549 224.685 206.58 224.639 206.611C224.592 206.657 224.531 206.688 224.484 206.734C224.438 206.764 224.376 206.811 224.33 206.841C224.268 206.872 224.222 206.903 224.16 206.949C224.099 206.979 224.052 207.01 223.991 207.041C223.929 207.072 223.867 207.102 223.806 207.133C223.744 207.164 223.698 207.179 223.636 207.21C223.574 207.24 223.497 207.256 223.435 207.287C223.389 207.302 223.327 207.317 223.281 207.348C223.204 207.379 223.127 207.394 223.034 207.409C222.988 207.425 222.942 207.44 222.895 207.44C222.787 207.455 222.679 207.471 222.587 207.486C222.556 207.486 222.541 207.502 222.51 207.502C222.371 207.517 222.247 207.517 222.109 207.517H73.1208C70.884 207.517 69.0791 205.72 69.0636 203.494L69.0482 203.478L64.8985 246.089V246.104V246.12C64.8985 246.181 64.8985 246.227 64.8831 246.289C64.8831 246.365 64.8677 246.442 64.8677 246.504C64.8677 246.504 64.8677 246.504 64.8677 246.519C64.8677 246.626 64.8677 246.718 64.8831 246.826C64.8831 246.857 64.8831 246.887 64.8831 246.918C64.8985 247.026 64.914 247.118 64.9294 247.225C64.9294 247.256 64.9448 247.287 64.9448 247.317C64.9602 247.394 64.9757 247.471 65.0065 247.548C65.0219 247.594 65.0374 247.655 65.0528 247.701C65.0528 247.717 65.0682 247.732 65.0682 247.747C65.2688 248.346 65.5927 248.884 66.0247 249.329C66.0401 249.344 66.0401 249.344 66.0401 249.36C66.0864 249.406 66.1326 249.436 66.1789 249.482C66.4566 249.743 66.7805 249.958 67.1199 250.127C67.1971 250.158 67.2588 250.204 67.3359 250.235C67.3513 250.25 67.3822 250.25 67.3976 250.266C67.5056 250.312 67.5981 250.342 67.7061 250.373C67.7216 250.373 67.7216 250.373 67.737 250.373C67.8604 250.404 67.9838 250.434 68.1072 250.465C68.1226 250.465 68.1381 250.465 68.1535 250.465C68.2769 250.48 68.3849 250.511 68.5083 250.511C68.6471 250.527 68.7705 250.527 68.9094 250.527H84.4283H90.7223H270.717H277.119H292.329C292.329 250.527 292.329 250.527 292.345 250.527C292.484 250.527 292.607 250.511 292.746 250.511C292.777 250.511 292.792 250.511 292.823 250.496C292.931 250.48 293.039 250.465 293.132 250.45C293.178 250.434 293.224 250.434 293.27 250.419C293.348 250.404 293.425 250.388 293.502 250.358C293.548 250.342 293.61 250.327 293.656 250.312C293.718 250.296 293.795 250.266 293.857 250.235C293.918 250.219 293.965 250.189 294.026 250.158C294.088 250.127 294.15 250.097 294.196 250.066C294.258 250.035 294.304 250.004 294.35 249.974C294.412 249.943 294.458 249.912 294.52 249.866C294.566 249.836 294.628 249.805 294.674 249.759C294.736 249.728 294.782 249.682 294.844 249.636C294.89 249.605 294.937 249.559 294.983 249.528C295.044 249.482 295.091 249.436 295.137 249.39C295.168 249.36 295.214 249.313 295.245 249.283C295.307 249.221 295.353 249.16 295.415 249.099C295.446 249.068 295.476 249.037 295.507 249.006C295.569 248.93 295.615 248.853 295.677 248.791C295.692 248.761 295.723 248.745 295.739 248.715C295.8 248.623 295.862 248.515 295.924 248.408L295.939 248.392C296.001 248.285 296.063 248.162 296.109 248.054C296.124 248.024 296.14 247.993 296.155 247.947C296.186 247.87 296.217 247.778 296.248 247.686C296.263 247.624 296.279 247.578 296.294 247.517C296.309 247.456 296.325 247.379 296.34 247.317C296.356 247.256 296.356 247.194 296.371 247.133C296.387 247.072 296.387 247.026 296.402 246.964C296.556 245.69 299.318 223.717 300.845 207.471L297.127 207.486Z" fill="#2C3539"/>
<path d="M297.127 207.486C292.237 207.486 288.272 206.289 284.925 204.431C283.398 220.676 280.343 245.721 280.189 246.995C280.189 247.056 280.173 247.103 280.158 247.164C280.143 247.225 280.143 247.287 280.127 247.348C280.112 247.41 280.096 247.486 280.081 247.548C280.065 247.609 280.05 247.655 280.035 247.717C280.004 247.809 279.973 247.886 279.942 247.962C279.927 247.993 279.911 248.024 279.896 248.07C279.849 248.193 279.788 248.3 279.726 248.408L279.711 248.423C279.649 248.531 279.587 248.623 279.526 248.73C279.51 248.761 279.479 248.776 279.464 248.807C279.402 248.884 279.356 248.961 279.294 249.022C279.263 249.053 279.232 249.083 279.202 249.114C279.155 249.175 279.094 249.237 279.032 249.298C279.001 249.329 278.955 249.375 278.924 249.406C278.862 249.452 278.816 249.498 278.77 249.544C278.723 249.575 278.677 249.621 278.631 249.651C278.569 249.698 278.523 249.728 278.477 249.774C278.43 249.805 278.369 249.836 278.322 249.882C278.261 249.913 278.214 249.943 278.153 249.989C278.091 250.02 278.045 250.051 277.998 250.081C277.937 250.112 277.875 250.143 277.813 250.174C277.752 250.204 277.705 250.22 277.644 250.25C277.582 250.281 277.505 250.296 277.443 250.327C277.397 250.342 277.335 250.358 277.289 250.373C277.212 250.404 277.134 250.419 277.057 250.435C277.011 250.45 276.965 250.45 276.934 250.465C276.826 250.481 276.733 250.496 276.625 250.511C276.595 250.511 276.579 250.511 276.548 250.527C276.425 250.542 276.286 250.542 276.163 250.542H277.134H292.345H292.36C292.499 250.542 292.623 250.527 292.761 250.527C292.792 250.527 292.808 250.527 292.838 250.511C292.946 250.496 293.054 250.481 293.147 250.465C293.193 250.45 293.24 250.45 293.27 250.435C293.348 250.419 293.425 250.404 293.502 250.373C293.548 250.358 293.61 250.342 293.656 250.327C293.718 250.312 293.795 250.281 293.857 250.25C293.918 250.235 293.965 250.204 294.026 250.174C294.088 250.143 294.15 250.112 294.211 250.081C294.273 250.051 294.319 250.02 294.366 249.989C294.427 249.959 294.474 249.928 294.535 249.882C294.582 249.851 294.643 249.82 294.69 249.774C294.751 249.744 294.798 249.698 294.844 249.651C294.89 249.621 294.936 249.575 294.983 249.544C295.044 249.498 295.091 249.452 295.137 249.406C295.168 249.375 295.214 249.329 295.245 249.298C295.307 249.237 295.353 249.175 295.415 249.114C295.446 249.083 295.476 249.053 295.507 249.022C295.569 248.945 295.615 248.868 295.677 248.807C295.692 248.776 295.723 248.761 295.739 248.73C295.8 248.638 295.862 248.531 295.924 248.423L295.939 248.408C296.001 248.3 296.063 248.177 296.109 248.07C296.124 248.039 296.14 248.008 296.155 247.962C296.186 247.886 296.217 247.794 296.248 247.717C296.263 247.655 296.279 247.609 296.294 247.548C296.309 247.486 296.325 247.41 296.34 247.348C296.356 247.287 296.371 247.225 296.371 247.164C296.387 247.103 296.387 247.056 296.402 246.995C296.556 245.721 299.318 223.747 300.845 207.502H297.127V207.486Z" fill="#161717"/>
<path d="M117.564 273.39C102.662 273.39 90.5527 261.321 90.5527 246.488C90.5527 231.655 102.678 219.586 117.564 219.586C132.466 219.586 144.591 231.655 144.591 246.488C144.576 261.321 132.466 273.39 117.564 273.39Z" fill="#7F848A"/>
<path d="M117.564 257.253C111.61 257.253 106.75 252.431 106.75 246.489C106.75 240.561 111.594 235.725 117.564 235.725C123.519 235.725 128.378 240.546 128.378 246.489C128.378 252.416 123.519 257.253 117.564 257.253Z" fill="#F3F3F3"/>
<path d="M243.737 273.39C228.835 273.39 216.725 261.321 216.725 246.488C216.725 231.655 228.85 219.586 243.737 219.586C258.639 219.586 270.764 231.655 270.764 246.488C270.764 261.321 258.639 273.39 243.737 273.39Z" fill="#7F848A"/>
<path d="M243.737 257.253C237.782 257.253 232.923 252.431 232.923 246.489C232.923 240.561 237.767 235.725 243.737 235.725C249.691 235.725 254.551 240.546 254.551 246.489C254.551 252.416 249.707 257.253 243.737 257.253Z" fill="#F3F3F3"/>
<path d="M112.426 169.597L120.456 177.628H184.7L192.73 169.597H112.426Z" fill="white"/>
<path d="M116.441 165.582H184.579C185.743 152.493 175.424 141.491 162.576 141.491C153.14 141.491 145.11 147.433 141.937 155.745C140.291 154.821 138.444 154.219 136.517 153.858V129.445H143.544C148.522 129.445 152.578 125.39 152.578 120.411H188.715V114.388H152.578C152.578 109.409 148.522 105.354 143.544 105.354H116.441V111.377H120.456V114.388H116.441V120.411H120.456V123.422H116.441V129.445H120.456V159.118C118.689 160.965 117.324 163.133 116.441 165.582ZM162.616 149.521C166.591 149.521 170.285 151.127 172.975 154.099C173.939 155.143 174.742 156.307 175.304 157.552H149.928C152.257 152.693 157.195 149.521 162.616 149.521ZM136.517 111.377H144.547V114.388H136.517V111.377ZM136.517 120.411H144.547V123.422H136.517V120.411ZM126.479 111.377H130.494V114.388H126.479V111.377ZM126.479 120.411H130.494V123.422H126.479V120.411ZM126.479 129.445H130.494V153.777C129.089 154.018 127.764 154.46 126.479 154.982V129.445Z" fill="white"/>
</g>
<defs>
<clipPath id="clip0">
<rect width="330" height="275" fill="white"/>
</clipPath>
</defs>
</svg>
