<svg width="326" height="264" viewBox="0 0 326 264" fill="none" xmlns="http://www.w3.org/2000/svg">
<g clip-path="url(#clip0)">
<path opacity="0.27" d="M23.5622 270.915C23.5622 270.915 -15.6303 230.194 16.9343 186.108C45.8285 146.991 79.5155 149.665 104.23 165.539C114.757 172.3 145.107 166.372 170.938 126.569C206.165 72.2896 328.275 105.21 306.01 188.721C295.236 229.134 338.802 230.603 316.603 271L23.5622 270.915Z" fill="#2B9375"/>
<path d="M11.3569 260.92H323.695" stroke="#2C3539" stroke-width="3" stroke-miterlimit="10" stroke-linecap="round"/>
<path d="M234.223 253.119C234.223 253.119 261.424 217.186 309.034 260.936H229.52L234.223 253.119Z" fill="#047A54" stroke="#2C3539" stroke-width="3" stroke-miterlimit="10" stroke-linecap="round"/>
<path d="M126.463 260.92C126.463 260.92 118.087 244.95 94.0212 250.074C94.0212 250.074 64.2074 216.666 22.8677 260.92H126.463Z" fill="#047A54" stroke="#2C3539" stroke-width="3" stroke-miterlimit="10" stroke-linecap="round"/>
<path d="M96.6336 26.5555H25.2803C25.2803 26.5555 29.1376 18.2187 39.0807 16.1383C39.0807 16.1383 36.9906 0 58.4443 0C79.8979 0 75.18 17.1785 75.18 17.1785C75.18 17.1785 94.5435 13.5378 96.6336 26.5555Z" fill="#00B37B"/>
<path d="M250 76.5765H318.725C318.725 76.5765 315.006 68.5456 305.432 66.5417C305.432 66.5417 307.445 51 286.791 51C266.136 51 270.67 67.5513 270.67 67.5513C270.67 67.5513 252.013 64.0483 250 76.5765Z" fill="#00B37B"/>
<path d="M248.192 127.775H230.842L227.322 167.961H248.192C260.563 167.961 266.142 174.339 272.043 181.101C277.637 187.51 283.984 194.761 295.986 194.761H299.675L299.997 191.12C300.397 186.409 300.658 182.462 300.658 180.03C300.689 151.21 277.145 127.775 248.192 127.775Z" fill="#F3F3F3"/>
<path d="M248.192 127.775H232.056C260.993 127.775 284.537 151.21 284.537 180.015C284.537 182.447 284.276 186.393 283.876 191.105L283.83 191.686C287.18 193.552 291.13 194.745 296.017 194.745H299.705L300.028 191.105C300.428 186.393 300.689 182.447 300.689 180.015C300.689 151.21 277.145 127.775 248.192 127.775Z" fill="#E9E8E8"/>
<path d="M236.082 67.6279C236.082 67.5667 236.082 67.5208 236.067 67.4597C236.067 67.3832 236.067 67.2914 236.051 67.2149C236.051 67.1537 236.036 67.1078 236.02 67.0466C236.005 66.9702 236.005 66.8937 235.99 66.8172C235.974 66.756 235.959 66.7101 235.944 66.6489C235.928 66.5724 235.913 66.5113 235.882 66.4348C235.867 66.3736 235.836 66.3124 235.821 66.2665C235.79 66.2053 235.775 66.1441 235.744 66.0829C235.713 66.0218 235.682 65.9606 235.652 65.8994C235.621 65.8535 235.606 65.7923 235.575 65.7464C235.529 65.6699 235.483 65.5934 235.437 65.517C235.421 65.4864 235.39 65.4558 235.375 65.4099C235.314 65.3181 235.252 65.2263 235.175 65.1498C235.16 65.1345 235.16 65.1192 235.145 65.1039C234.822 64.7062 234.422 64.385 233.977 64.1402C233.977 64.1402 233.961 64.1402 233.961 64.1249C233.869 64.079 233.777 64.0331 233.669 63.9873C233.638 63.972 233.623 63.9567 233.592 63.9567C233.516 63.9261 233.423 63.8955 233.346 63.8649C233.3 63.8496 233.254 63.8343 233.208 63.819C233.147 63.8037 233.07 63.7884 233.008 63.7731C232.947 63.7578 232.885 63.7425 232.809 63.7272C232.747 63.7119 232.686 63.7119 232.624 63.6966C232.547 63.6813 232.486 63.666 232.409 63.666C232.394 63.666 232.394 63.666 232.378 63.666C232.317 63.666 232.24 63.666 232.179 63.666C232.132 63.666 232.071 63.666 232.025 63.666H231.963H231.948H174.672H149.422H84.8154C82.9251 63.666 81.2808 64.9969 80.8812 66.8325C80.8812 66.8478 80.8812 66.8631 80.8658 66.8784C80.8505 66.9855 80.8351 67.0772 80.8197 67.1843C80.8197 67.2149 80.8044 67.2455 80.8044 67.2761V67.2914L68.8327 190.325C68.8327 190.325 68.8327 190.325 68.8327 190.34L68.7866 190.753L68.802 190.768C68.802 192.987 70.6154 194.776 72.8438 194.776H221.283C221.421 194.776 221.559 194.761 221.682 194.761C221.713 194.761 221.728 194.761 221.759 194.746C221.867 194.73 221.974 194.715 222.066 194.7C222.113 194.684 222.159 194.684 222.205 194.669C222.282 194.654 222.374 194.639 222.451 194.608C222.512 194.593 222.558 194.577 222.604 194.547C222.666 194.516 222.743 194.501 222.804 194.47C222.866 194.44 222.912 194.424 222.973 194.394C223.035 194.363 223.096 194.333 223.158 194.302C223.219 194.271 223.265 194.241 223.327 194.21C223.388 194.18 223.434 194.149 223.496 194.103C223.542 194.073 223.603 194.042 223.649 193.996C223.695 193.966 223.757 193.92 223.803 193.874C223.849 193.843 223.895 193.797 223.941 193.767C223.987 193.721 224.049 193.675 224.095 193.629C224.141 193.583 224.172 193.553 224.218 193.507C224.264 193.461 224.31 193.4 224.356 193.354C224.387 193.308 224.433 193.277 224.464 193.231C224.51 193.17 224.556 193.124 224.587 193.063C224.617 193.017 224.648 192.971 224.679 192.925C224.725 192.864 224.756 192.803 224.787 192.742C224.817 192.696 224.848 192.65 224.863 192.604C224.894 192.543 224.925 192.482 224.956 192.405C224.986 192.359 225.002 192.298 225.032 192.252C225.063 192.191 225.079 192.13 225.109 192.053C225.125 191.992 225.155 191.931 225.171 191.885C225.186 191.824 225.201 191.763 225.217 191.702C225.232 191.64 225.248 191.579 225.263 191.503C225.278 191.442 225.278 191.38 225.294 191.304C225.309 191.243 225.309 191.166 225.324 191.105C225.324 191.09 225.324 191.09 225.324 191.074L236.082 68.0868C236.082 68.0715 236.082 68.0715 236.082 68.0562V68.0104C236.082 67.9798 236.082 67.9339 236.082 67.9033C236.082 67.8268 236.097 67.735 236.097 67.6585C236.097 67.6585 236.082 67.6432 236.082 67.6279Z" fill="#47B869"/>
<path d="M236.098 67.6279C236.098 67.5667 236.098 67.5208 236.082 67.4597C236.082 67.3832 236.082 67.2914 236.067 67.2149C236.067 67.1537 236.052 67.1078 236.036 67.0466C236.021 66.9702 236.006 66.8937 235.99 66.8172C235.975 66.756 235.959 66.7101 235.944 66.6489C235.929 66.5724 235.913 66.5113 235.883 66.4348C235.867 66.3736 235.836 66.3124 235.821 66.2665C235.79 66.2053 235.775 66.1441 235.744 66.0829C235.714 66.0218 235.683 65.9606 235.652 65.8994C235.621 65.8535 235.606 65.7923 235.575 65.7464C235.529 65.6699 235.483 65.5934 235.437 65.517C235.422 65.4864 235.391 65.4558 235.375 65.4099C235.314 65.3181 235.252 65.2263 235.176 65.1498C235.16 65.1345 235.16 65.1192 235.145 65.1039C234.822 64.7062 234.423 64.385 233.977 64.1402C233.977 64.1402 233.962 64.1402 233.962 64.1249C233.869 64.079 233.777 64.0331 233.67 63.9873C233.639 63.972 233.623 63.9567 233.593 63.9567C233.516 63.9261 233.424 63.8955 233.347 63.8649C233.301 63.8496 233.255 63.8343 233.209 63.819C233.147 63.8037 233.07 63.7884 233.009 63.7731C232.947 63.7578 232.886 63.7425 232.824 63.7272C232.763 63.7119 232.701 63.7119 232.64 63.6966C232.563 63.6813 232.502 63.666 232.425 63.666C232.409 63.666 232.409 63.666 232.394 63.666C232.333 63.666 232.256 63.666 232.194 63.666C232.148 63.666 232.087 63.666 232.041 63.666H231.979H231.964H215.874C215.92 63.666 215.981 63.666 216.027 63.666C216.089 63.666 216.165 63.666 216.227 63.666C216.242 63.666 216.242 63.666 216.258 63.666C216.335 63.666 216.396 63.6813 216.473 63.6966C216.534 63.7119 216.596 63.7119 216.657 63.7272C216.719 63.7425 216.78 63.7578 216.842 63.7731C216.903 63.7884 216.98 63.8037 217.041 63.819C217.088 63.8343 217.134 63.8496 217.18 63.8649C217.257 63.8955 217.349 63.9261 217.426 63.9567C217.456 63.972 217.472 63.9873 217.503 63.9873C217.595 64.0331 217.702 64.079 217.795 64.1249C217.795 64.1249 217.81 64.1249 217.81 64.1402C218.256 64.385 218.655 64.7215 218.978 65.1039C218.993 65.1192 218.993 65.1345 219.009 65.1498C219.085 65.2416 219.147 65.3181 219.208 65.4099C219.239 65.4405 219.254 65.4711 219.27 65.517C219.316 65.5934 219.362 65.6699 219.408 65.7464C219.439 65.7923 219.454 65.8535 219.485 65.8994C219.516 65.9606 219.546 66.0218 219.577 66.0829C219.608 66.1441 219.623 66.2053 219.654 66.2665C219.685 66.3277 219.7 66.3736 219.715 66.4348C219.731 66.5113 219.762 66.5724 219.777 66.6489C219.792 66.7101 219.808 66.756 219.823 66.8172C219.838 66.8937 219.854 66.9702 219.854 67.0466C219.869 67.1078 219.869 67.1537 219.885 67.2149C219.9 67.2914 219.9 67.3832 219.9 67.4597C219.9 67.5208 219.915 67.5667 219.915 67.6279C219.915 67.6432 219.915 67.6585 219.915 67.6738C219.915 67.7503 219.915 67.8421 219.9 67.9186C219.9 67.9492 219.9 67.9798 219.9 68.0257V68.0715C219.9 68.0868 219.9 68.0868 219.9 68.1021L209.142 191.09C209.142 191.105 209.142 191.105 209.142 191.12C209.127 191.181 209.127 191.258 209.112 191.319C209.096 191.38 209.096 191.442 209.081 191.518C209.066 191.579 209.05 191.64 209.035 191.717C209.019 191.778 209.004 191.839 208.989 191.9C208.973 191.962 208.943 192.023 208.927 192.069C208.896 192.13 208.881 192.191 208.85 192.268C208.835 192.313 208.804 192.375 208.774 192.421C208.743 192.482 208.712 192.543 208.681 192.619C208.651 192.665 208.635 192.711 208.604 192.757C208.574 192.818 208.528 192.879 208.497 192.941C208.466 192.987 208.435 193.032 208.405 193.078C208.359 193.139 208.312 193.201 208.282 193.247C208.251 193.292 208.205 193.338 208.174 193.369C208.128 193.415 208.082 193.476 208.036 193.522C207.99 193.568 207.959 193.598 207.913 193.644C207.867 193.69 207.821 193.736 207.759 193.782C207.713 193.828 207.667 193.858 207.621 193.889C207.575 193.935 207.513 193.966 207.467 194.011C207.421 194.042 207.36 194.088 207.314 194.118C207.252 194.149 207.206 194.18 207.145 194.226C207.083 194.256 207.037 194.287 206.975 194.317C206.914 194.348 206.853 194.379 206.791 194.409C206.73 194.44 206.683 194.455 206.622 194.486C206.561 194.516 206.484 194.532 206.422 194.562C206.376 194.577 206.315 194.593 206.269 194.623C206.192 194.654 206.115 194.669 206.023 194.684C205.977 194.7 205.93 194.715 205.884 194.715C205.777 194.73 205.669 194.746 205.577 194.761C205.546 194.761 205.531 194.776 205.5 194.776C205.362 194.792 205.239 194.792 205.101 194.792H221.237C221.375 194.792 221.514 194.776 221.636 194.776C221.667 194.776 221.683 194.776 221.713 194.761C221.821 194.746 221.928 194.73 222.021 194.715C222.067 194.7 222.113 194.7 222.159 194.684C222.236 194.669 222.328 194.654 222.405 194.623C222.466 194.608 222.512 194.593 222.559 194.562C222.62 194.532 222.697 194.516 222.758 194.486C222.82 194.455 222.866 194.44 222.927 194.409C222.989 194.379 223.05 194.348 223.112 194.317C223.173 194.287 223.219 194.256 223.281 194.226C223.342 194.195 223.388 194.164 223.45 194.118C223.496 194.088 223.557 194.057 223.604 194.011C223.665 193.981 223.711 193.935 223.757 193.889C223.803 193.858 223.849 193.813 223.896 193.782C223.942 193.736 224.003 193.69 224.049 193.644C224.095 193.598 224.126 193.568 224.172 193.522C224.218 193.476 224.264 193.415 224.311 193.369C224.341 193.323 224.387 193.292 224.418 193.247C224.464 193.185 224.51 193.139 224.541 193.078C224.572 193.032 224.602 192.987 224.633 192.941C224.679 192.879 224.71 192.818 224.741 192.757C224.772 192.711 224.802 192.665 224.818 192.619C224.848 192.558 224.879 192.497 224.91 192.421C224.941 192.375 224.956 192.313 224.987 192.268C225.017 192.206 225.033 192.145 225.064 192.069C225.079 192.008 225.11 191.946 225.125 191.9C225.14 191.839 225.156 191.778 225.171 191.717C225.186 191.656 225.202 191.595 225.217 191.518C225.233 191.457 225.233 191.396 225.248 191.319C225.263 191.258 225.263 191.181 225.279 191.12C225.279 191.105 225.279 191.105 225.279 191.09L236.036 68.1021C236.036 68.0868 236.036 68.0868 236.036 68.0715V68.0257C236.036 67.9951 236.036 67.9492 236.036 67.9186C236.036 67.8421 236.052 67.7503 236.052 67.6738C236.098 67.6585 236.098 67.6432 236.098 67.6279Z" fill="#00B37B"/>
<path d="M248.192 167.961C249.514 167.961 250.758 168.037 251.926 168.175L255.415 128.265C253.048 127.944 250.635 127.76 248.192 127.76H247.362L243.843 167.945L248.192 167.961Z" fill="#161717"/>
<path d="M80.6354 162.775H32.5799C30.3669 162.775 28.5688 160.97 28.5688 158.752C28.5688 156.534 30.3669 154.729 32.5799 154.729H80.6354C82.8484 154.729 84.6464 156.534 84.6464 158.752C84.6464 160.97 82.8484 162.775 80.6354 162.775Z" fill="#FDC113"/>
<path d="M37.9125 135.913H18.3338C16.1208 135.913 14.3228 134.108 14.3228 131.89C14.3228 129.672 16.1208 127.867 18.3338 127.867H37.9125C40.1255 127.867 41.9236 129.672 41.9236 131.89C41.9236 134.108 40.1255 135.913 37.9125 135.913Z" fill="#FDC113"/>
<path d="M102.012 103.683H4.01103C1.79805 103.683 0 101.878 0 99.6442C0 97.4261 1.79805 95.6211 4.01103 95.6211H102.012C104.225 95.6211 106.023 97.4261 106.023 99.6442C106.008 101.878 104.225 103.683 102.012 103.683Z" fill="#FDC113"/>
<path d="M300.013 191.151L299.69 194.654C299.813 193.461 299.92 192.283 300.013 191.151C300.013 191.166 300.013 191.166 300.013 191.151C300.013 191.166 300.013 191.151 300.013 191.151Z" fill="#CDD2D9"/>
<path d="M296.002 194.746C283.999 194.746 277.652 187.495 272.058 181.085C266.157 174.324 260.579 167.945 248.207 167.945H227.338L225.309 191.074C225.309 191.09 225.309 191.09 225.309 191.105C225.309 191.166 225.294 191.243 225.278 191.304C225.263 191.365 225.263 191.426 225.248 191.503C225.232 191.564 225.217 191.625 225.202 191.701C225.186 191.763 225.171 191.824 225.155 191.885C225.14 191.946 225.109 192.007 225.094 192.053C225.063 192.115 225.048 192.176 225.017 192.252C225.002 192.298 224.971 192.359 224.94 192.405C224.91 192.466 224.879 192.528 224.848 192.604C224.817 192.65 224.787 192.696 224.771 192.742C224.741 192.803 224.694 192.864 224.664 192.925C224.633 192.971 224.602 193.017 224.572 193.063C224.525 193.124 224.495 193.185 224.449 193.231C224.418 193.277 224.372 193.323 224.341 193.354C224.295 193.399 224.249 193.461 224.203 193.507C224.157 193.552 224.126 193.583 224.08 193.629C224.034 193.675 223.972 193.721 223.926 193.767C223.88 193.812 223.834 193.843 223.788 193.874C223.742 193.92 223.68 193.95 223.634 193.996C223.588 194.027 223.526 194.073 223.48 194.103C223.419 194.134 223.373 194.164 223.311 194.21C223.25 194.241 223.204 194.271 223.142 194.302C223.081 194.333 223.019 194.363 222.958 194.394C222.896 194.424 222.85 194.44 222.789 194.47C222.727 194.501 222.651 194.516 222.589 194.547C222.543 194.562 222.481 194.577 222.435 194.608C222.359 194.639 222.282 194.654 222.189 194.669C222.143 194.684 222.097 194.7 222.051 194.7C221.944 194.715 221.836 194.73 221.744 194.746C221.713 194.746 221.698 194.761 221.667 194.761C221.529 194.776 221.406 194.776 221.267 194.776H72.8439C70.6156 194.776 68.8175 192.986 68.8022 190.768L68.7868 190.753L64.6528 233.202V233.217V233.233C64.6528 233.294 64.6528 233.34 64.6374 233.401C64.6374 233.477 64.6221 233.554 64.6221 233.615C64.6221 233.615 64.6221 233.615 64.6221 233.63C64.6221 233.738 64.6221 233.829 64.6374 233.936C64.6374 233.967 64.6374 233.998 64.6374 234.028C64.6528 234.135 64.6682 234.227 64.6835 234.334C64.6835 234.365 64.6989 234.395 64.6989 234.426C64.7143 234.502 64.7296 234.579 64.7604 234.655C64.7757 234.701 64.7911 234.762 64.8065 234.808C64.8065 234.824 64.8219 234.839 64.8219 234.854C65.0216 235.451 65.3444 235.986 65.7747 236.43C65.79 236.445 65.79 236.445 65.79 236.46C65.8361 236.506 65.8822 236.537 65.9283 236.583C66.205 236.843 66.5277 237.057 66.8658 237.225C66.9426 237.256 67.0041 237.302 67.0809 237.332C67.0963 237.348 67.127 237.348 67.1424 237.363C67.25 237.409 67.3422 237.439 67.4498 237.47C67.4651 237.47 67.4651 237.47 67.4805 237.47C67.6035 237.501 67.7264 237.531 67.8493 237.562C67.8647 237.562 67.8801 237.562 67.8954 237.562C68.0184 237.577 68.126 237.608 68.2489 237.608C68.3872 237.623 68.5102 237.623 68.6485 237.623H84.1086H90.3787H269.692H276.069H291.222C291.222 237.623 291.222 237.623 291.238 237.623C291.376 237.623 291.499 237.608 291.637 237.608C291.668 237.608 291.683 237.608 291.714 237.592C291.822 237.577 291.929 237.562 292.021 237.546C292.067 237.531 292.114 237.531 292.16 237.516C292.237 237.501 292.313 237.485 292.39 237.455C292.436 237.439 292.498 237.424 292.544 237.409C292.605 237.393 292.682 237.363 292.744 237.332C292.805 237.317 292.851 237.286 292.913 237.256C292.974 237.225 293.036 237.195 293.082 237.164C293.143 237.133 293.189 237.103 293.235 237.072C293.297 237.042 293.343 237.011 293.404 236.965C293.451 236.935 293.512 236.904 293.558 236.858C293.62 236.827 293.666 236.782 293.727 236.736C293.773 236.705 293.819 236.659 293.866 236.629C293.927 236.583 293.973 236.537 294.019 236.491C294.05 236.46 294.096 236.414 294.127 236.384C294.188 236.323 294.234 236.262 294.296 236.2C294.327 236.17 294.357 236.139 294.388 236.109C294.45 236.032 294.496 235.956 294.557 235.894C294.572 235.864 294.603 235.849 294.619 235.818C294.68 235.726 294.742 235.619 294.803 235.512L294.818 235.497C294.88 235.39 294.941 235.267 294.987 235.16C295.003 235.13 295.018 235.099 295.033 235.053C295.064 234.977 295.095 234.885 295.126 234.793C295.141 234.732 295.156 234.686 295.172 234.625C295.187 234.564 295.203 234.487 295.218 234.426C295.233 234.365 295.233 234.304 295.249 234.242C295.264 234.181 295.264 234.135 295.279 234.074C295.433 232.804 298.184 210.914 299.705 194.73L296.002 194.746Z" fill="#2C3539"/>
<path d="M296.002 194.746C291.13 194.746 287.181 193.553 283.846 191.702C282.324 207.886 279.281 232.835 279.128 234.105C279.128 234.166 279.112 234.212 279.097 234.273C279.082 234.334 279.082 234.395 279.066 234.457C279.051 234.518 279.036 234.594 279.02 234.656C279.005 234.717 278.989 234.763 278.974 234.824C278.943 234.916 278.913 234.992 278.882 235.069C278.866 235.099 278.851 235.13 278.836 235.176C278.79 235.298 278.728 235.405 278.667 235.512L278.651 235.527C278.59 235.635 278.528 235.726 278.467 235.833C278.452 235.864 278.421 235.879 278.405 235.91C278.344 235.986 278.298 236.063 278.236 236.124C278.206 236.155 278.175 236.185 278.144 236.216C278.098 236.277 278.037 236.338 277.975 236.399C277.944 236.43 277.898 236.476 277.868 236.506C277.806 236.552 277.76 236.598 277.714 236.644C277.668 236.675 277.622 236.721 277.576 236.751C277.514 236.797 277.468 236.828 277.422 236.874C277.376 236.904 277.314 236.935 277.268 236.981C277.207 237.011 277.161 237.042 277.099 237.088C277.038 237.118 276.992 237.149 276.945 237.18C276.884 237.21 276.823 237.241 276.761 237.271C276.7 237.302 276.653 237.317 276.592 237.348C276.531 237.378 276.454 237.394 276.392 237.424C276.346 237.44 276.285 237.455 276.239 237.47C276.162 237.501 276.085 237.516 276.008 237.531C275.962 237.547 275.916 237.547 275.885 237.562C275.778 237.577 275.685 237.593 275.578 237.608C275.547 237.608 275.532 237.608 275.501 237.623C275.378 237.638 275.24 237.638 275.117 237.638H276.085H291.238H291.253C291.391 237.638 291.514 237.623 291.653 237.623C291.683 237.623 291.699 237.623 291.729 237.608C291.837 237.593 291.945 237.577 292.037 237.562C292.083 237.547 292.129 237.547 292.16 237.531C292.237 237.516 292.313 237.501 292.39 237.47C292.436 237.455 292.498 237.44 292.544 237.424C292.605 237.409 292.682 237.378 292.744 237.348C292.805 237.332 292.851 237.302 292.913 237.271C292.974 237.241 293.036 237.21 293.097 237.18C293.159 237.149 293.205 237.118 293.251 237.088C293.312 237.057 293.358 237.027 293.42 236.981C293.466 236.95 293.527 236.919 293.574 236.874C293.635 236.843 293.681 236.797 293.727 236.751C293.773 236.721 293.819 236.675 293.866 236.644C293.927 236.598 293.973 236.552 294.019 236.506C294.05 236.476 294.096 236.43 294.127 236.399C294.188 236.338 294.234 236.277 294.296 236.216C294.327 236.185 294.357 236.155 294.388 236.124C294.45 236.048 294.496 235.971 294.557 235.91C294.572 235.879 294.603 235.864 294.619 235.833C294.68 235.742 294.742 235.635 294.803 235.527L294.818 235.512C294.88 235.405 294.941 235.283 294.987 235.176C295.003 235.145 295.018 235.114 295.034 235.069C295.064 234.992 295.095 234.9 295.126 234.824C295.141 234.763 295.156 234.717 295.172 234.656C295.187 234.594 295.203 234.518 295.218 234.457C295.233 234.395 295.249 234.334 295.249 234.273C295.264 234.212 295.264 234.166 295.279 234.105C295.433 232.835 298.184 210.945 299.705 194.761H296.002V194.746Z" fill="#161717"/>
<path d="M117.119 260.4C102.274 260.4 90.21 248.377 90.21 233.6C90.21 218.823 102.289 206.8 117.119 206.8C131.965 206.8 144.044 218.823 144.044 233.6C144.028 248.377 131.965 260.4 117.119 260.4Z" fill="#7F848A"/>
<path d="M117.119 244.323C111.187 244.323 106.346 239.52 106.346 233.6C106.346 227.696 111.172 222.877 117.119 222.877C123.051 222.877 127.892 227.68 127.892 233.6C127.892 239.505 123.051 244.323 117.119 244.323Z" fill="#F3F3F3"/>
<path d="M242.814 260.4C227.968 260.4 215.904 248.377 215.904 233.6C215.904 218.823 227.983 206.8 242.814 206.8C257.659 206.8 269.738 218.823 269.738 233.6C269.738 248.377 257.659 260.4 242.814 260.4Z" fill="#7F848A"/>
<path d="M242.813 244.323C236.881 244.323 232.041 239.52 232.041 233.6C232.041 227.696 236.866 222.877 242.813 222.877C248.745 222.877 253.586 227.68 253.586 233.6C253.586 239.505 248.761 244.323 242.813 244.323Z" fill="#F3F3F3"/>
<path d="M112 157L120 165H184L192 157H112Z" fill="white"/>
<path d="M116 153H183.88C185.04 139.96 174.76 129 161.96 129C152.56 129 144.56 134.92 141.4 143.2C139.76 142.28 137.92 141.68 136 141.32V117H143C147.96 117 152 112.96 152 108H188V102H152C152 97.04 147.96 93 143 93H116V99H120V102H116V108H120V111H116V117H120V146.56C118.24 148.4 116.88 150.56 116 153ZM162 137C165.96 137 169.64 138.6 172.32 141.56C173.28 142.6 174.08 143.76 174.64 145H149.36C151.68 140.16 156.6 137 162 137ZM136 99H144V102H136V99ZM136 108H144V111H136V108ZM126 99H130V102H126V99ZM126 108H130V111H126V108ZM126 117H130V141.24C128.6 141.48 127.28 141.92 126 142.44V117Z" fill="white"/>
</g>
<defs>
<clipPath id="clip0">
<rect width="326" height="263.215" fill="white"/>
</clipPath>
</defs>
</svg>
