<svg width="330" height="275" viewBox="0 0 330 275" fill="none" xmlns="http://www.w3.org/2000/svg">
<g clip-path="url(#clip0)">
<path opacity="0.27" d="M33.4583 273.723C33.4583 273.723 -3.52254 235.431 27.2044 193.973C54.468 157.189 86.2539 159.703 109.574 174.631C119.506 180.988 148.144 175.414 172.517 137.985C205.756 86.9421 320.976 117.9 299.967 196.43C289.801 234.434 330.908 235.815 309.962 273.803L33.4583 273.723Z" fill="#2B9375"/>
<path d="M200.828 236.244H186.861C186.475 236.244 186.158 235.942 186.158 235.573C186.158 235.204 186.475 234.902 186.861 234.902H200.828C201.214 234.902 201.53 235.204 201.53 235.573C201.53 235.942 201.214 236.244 200.828 236.244Z" fill="#FCECDB"/>
<path d="M200.828 238.871H186.861C186.475 238.871 186.158 238.569 186.158 238.2C186.158 237.831 186.475 237.529 186.861 237.529H200.828C201.214 237.529 201.53 237.831 201.53 238.2C201.53 238.569 201.214 238.871 200.828 238.871Z" fill="#FCECDB"/>
<path d="M203.768 125.47V269.885C203.768 272.114 201.888 273.944 199.568 274.001C199.531 274.002 199.495 274.002 199.457 274.002H123.836C121.466 274.002 119.525 272.15 119.525 269.885V125.47C119.525 123.205 121.466 121.354 123.836 121.354H199.457C201.829 121.354 203.768 123.205 203.768 125.47Z" fill="#00B37B"/>
<path d="M208.222 125.47V269.886C208.222 272.149 206.281 274.001 203.91 274.001H128.289C125.917 274.001 123.979 272.149 123.979 269.886V125.47C123.979 123.205 125.918 121.354 128.289 121.354H203.91C206.28 121.354 208.222 123.205 208.222 125.47Z" fill="#1C936B"/>
<path d="M178.445 127.131H156.546C156.077 127.131 155.695 126.765 155.695 126.318C155.695 125.87 156.079 125.504 156.546 125.504H178.445C178.914 125.504 179.296 125.87 179.296 126.318C179.296 126.766 178.914 127.131 178.445 127.131Z" fill="#E8F9ED"/>
<path d="M152.657 127.131C152.188 127.131 151.805 126.765 151.805 126.318C151.805 125.87 152.189 125.504 152.657 125.504C153.125 125.504 153.508 125.87 153.508 126.318C153.508 126.766 153.125 127.131 152.657 127.131Z" fill="#E8F9ED"/>
<path d="M172.638 265.568C172.638 267.008 172.03 268.314 171.044 269.262C170.049 270.222 168.668 270.815 167.142 270.815C164.108 270.815 161.646 268.465 161.646 265.566C161.646 263.703 162.662 262.068 164.197 261.137C165.047 260.62 166.058 260.319 167.142 260.319C170.177 260.32 172.638 262.669 172.638 265.568Z" fill="#1ED89A"/>
<path d="M203.726 130.757H129.022V257.74H203.726V130.757Z" fill="#E8F9ED"/>
<path d="M171.044 269.262C170.049 270.222 168.668 270.815 167.142 270.815C164.108 270.815 161.646 268.465 161.646 265.566C161.646 263.703 162.662 262.068 164.197 261.137C164.735 263.372 166.332 267.109 171.044 269.262Z" fill="#1ED89A"/>
<path d="M203.768 141.041V190.995H132.616C131.82 190.995 131.167 190.333 131.167 189.525V142.513C131.167 141.702 131.82 141.041 132.616 141.041H203.768Z" fill="#1ED89A"/>
<path d="M183.475 201.04V248.052C183.475 248.86 182.885 249.522 182.164 249.522H129.022V199.568H182.166C182.886 199.568 183.475 200.229 183.475 201.04Z" fill="#1ED89A"/>
<path d="M236.459 138.359V185.371C236.459 186.18 235.767 186.841 234.918 186.841H135.224C134.378 186.841 133.685 186.18 133.685 185.371V138.359C133.685 137.549 134.378 136.887 135.224 136.887H234.918C235.767 136.886 236.459 137.549 236.459 138.359Z" fill="#FFFBF8"/>
<path d="M236.459 138.359V185.371C236.459 186.179 235.653 186.842 234.668 186.842H185.073V136.886H234.668C235.653 136.886 236.459 137.548 236.459 138.359Z" fill="#00B37B"/>
<path d="M214.473 143.389H195.81C195.502 143.389 195.251 143.149 195.251 142.855C195.251 142.561 195.502 142.321 195.81 142.321H214.473C214.78 142.321 215.032 142.561 215.032 142.855C215.03 143.149 214.779 143.389 214.473 143.389Z" fill="#FCECDB"/>
<path d="M214.473 145.445H195.81C195.502 145.445 195.251 145.205 195.251 144.911C195.251 144.617 195.502 144.377 195.81 144.377H214.473C214.78 144.377 215.032 144.617 215.032 144.911C215.03 145.205 214.779 145.445 214.473 145.445Z" fill="#FCECDB"/>
<path d="M192.424 143.503H191.955C191.59 143.503 191.292 143.218 191.292 142.869V142.841C191.292 142.492 191.59 142.207 191.955 142.207H192.424C192.789 142.207 193.088 142.492 193.088 142.841V142.869C193.088 143.218 192.789 143.503 192.424 143.503Z" fill="#FCECDB"/>
<path d="M214.473 150.959H195.81C195.502 150.959 195.251 150.719 195.251 150.425C195.251 150.131 195.502 149.891 195.81 149.891H214.473C214.78 149.891 215.032 150.131 215.032 150.425C215.03 150.717 214.779 150.959 214.473 150.959Z" fill="#FCECDB"/>
<path d="M214.473 153.015H195.81C195.502 153.015 195.251 152.775 195.251 152.481C195.251 152.187 195.502 151.947 195.81 151.947H214.473C214.78 151.947 215.032 152.187 215.032 152.481C215.03 152.775 214.779 153.015 214.473 153.015Z" fill="#FCECDB"/>
<path d="M192.424 151.073H191.955C191.59 151.073 191.292 150.788 191.292 150.439V150.41C191.292 150.062 191.59 149.776 191.955 149.776H192.424C192.789 149.776 193.088 150.062 193.088 150.41V150.439C193.088 150.788 192.789 151.073 192.424 151.073Z" fill="#FCECDB"/>
<path d="M214.473 158.443H195.81C195.502 158.443 195.251 158.203 195.251 157.91C195.251 157.616 195.502 157.376 195.81 157.376H214.473C214.78 157.376 215.032 157.616 215.032 157.91C215.03 158.203 214.779 158.443 214.473 158.443Z" fill="#FCECDB"/>
<path d="M214.473 160.5H195.81C195.502 160.5 195.251 160.26 195.251 159.966C195.251 159.672 195.502 159.432 195.81 159.432H214.473C214.78 159.432 215.032 159.672 215.032 159.966C215.03 160.26 214.779 160.5 214.473 160.5Z" fill="#FCECDB"/>
<path d="M192.424 158.558H191.955C191.59 158.558 191.292 158.273 191.292 157.924V157.895C191.292 157.547 191.59 157.261 191.955 157.261H192.424C192.789 157.261 193.088 157.547 193.088 157.895V157.924C193.088 158.273 192.789 158.558 192.424 158.558Z" fill="#FCECDB"/>
<path d="M187.232 196.098V243.11C187.232 243.92 186.923 244.581 186.544 244.581H142.04C141.662 244.581 141.352 243.92 141.352 243.11V196.098C141.352 195.29 141.66 194.628 142.04 194.628H186.544C186.923 194.628 187.232 195.29 187.232 196.098Z" fill="#FFFBF8"/>
<path d="M187.291 196.097V243.109C187.291 243.92 186.597 244.581 185.749 244.581H141.352V194.626H185.748C186.595 194.626 187.291 195.289 187.291 196.097Z" fill="#00B37B"/>
<path d="M145.325 141.982C142.667 142.347 140.255 142.647 138.564 143.711C137.006 144.691 136.052 146.009 136.052 147.458C136.052 149.07 137.088 150.794 139.107 151.522C140.804 152.133 143.476 153.385 145.325 152.935C147.644 152.369 149.706 152.447 151.323 151.636L150.573 151.113L145.335 147.46L153.772 147.905L154.562 147.947C154.586 147.787 154.598 147.624 154.598 147.461C154.598 145.909 153.506 144.508 151.75 143.511C150.084 142.564 147.813 141.64 145.325 141.982Z" fill="#FFE4CC"/>
<path d="M153.772 147.904L145.335 147.459L150.573 151.112C150.053 151.337 149.484 151.529 148.876 151.682C147.798 151.954 146.551 151.768 145.334 152.106C143.319 152.666 141.458 151.38 139.965 151.055C138.357 150.704 136.676 148.865 136.858 147.459C137.048 145.997 138.137 144.304 140.089 143.807C141.556 143.434 143.49 142.569 145.47 142.569C147.078 142.569 148.427 143.332 149.725 143.483C152.174 143.767 153.808 145.774 153.808 147.459C153.81 147.61 153.797 147.758 153.772 147.904Z" fill="#F77548"/>
<path d="M140.884 146.955C140.884 147.115 140.706 147.244 140.488 147.244C140.269 147.244 140.091 147.115 140.091 146.955C140.091 146.795 140.269 146.666 140.488 146.666C140.706 146.666 140.884 146.796 140.884 146.955Z" fill="#B5453C"/>
<path d="M143.295 145.564C143.295 145.724 143.117 145.853 142.898 145.853C142.679 145.853 142.502 145.723 142.502 145.564C142.502 145.404 142.679 145.275 142.898 145.275C143.117 145.275 143.295 145.404 143.295 145.564Z" fill="#B5453C"/>
<path d="M141.479 145.036C141.659 145.036 141.805 144.929 141.805 144.797C141.805 144.666 141.659 144.559 141.479 144.559C141.299 144.559 141.153 144.666 141.153 144.797C141.153 144.929 141.299 145.036 141.479 145.036Z" fill="#B5453C"/>
<path d="M144.76 144.206C144.76 144.353 144.597 144.472 144.396 144.472C144.195 144.472 144.032 144.353 144.032 144.206C144.032 144.059 144.195 143.94 144.396 143.94C144.597 143.94 144.76 144.059 144.76 144.206Z" fill="#B5453C"/>
<path d="M144.76 146.955C144.76 147.186 144.502 147.374 144.186 147.374C143.87 147.374 143.612 147.186 143.612 146.955C143.612 146.723 143.87 146.536 144.186 146.536C144.502 146.536 144.76 146.724 144.76 146.955Z" fill="#B5453C"/>
<path d="M146.008 145.424C146.008 145.584 145.83 145.713 145.611 145.713C145.392 145.713 145.215 145.583 145.215 145.424C145.215 145.264 145.392 145.135 145.611 145.135C145.83 145.135 146.008 145.264 146.008 145.424Z" fill="#B5453C"/>
<path d="M147.843 145.569C147.843 145.649 147.754 145.713 147.644 145.713C147.534 145.713 147.445 145.649 147.445 145.569C147.445 145.489 147.534 145.424 147.644 145.424C147.754 145.424 147.843 145.489 147.843 145.569Z" fill="#B5453C"/>
<path d="M147.012 144.327C147.012 144.407 146.923 144.471 146.813 144.471C146.703 144.471 146.614 144.407 146.614 144.327C146.614 144.247 146.703 144.182 146.813 144.182C146.923 144.182 147.012 144.247 147.012 144.327Z" fill="#B5453C"/>
<path d="M144.76 148.991C144.76 149.071 144.671 149.135 144.562 149.135C144.452 149.135 144.363 149.071 144.363 148.991C144.363 148.911 144.452 148.846 144.562 148.846C144.671 148.846 144.76 148.911 144.76 148.991Z" fill="#B5453C"/>
<path d="M146.118 149.648C146.118 149.728 146.029 149.793 145.92 149.793C145.811 149.793 145.721 149.728 145.721 149.648C145.721 149.568 145.81 149.504 145.92 149.504C146.03 149.504 146.118 149.568 146.118 149.648Z" fill="#B5453C"/>
<path d="M143.116 148.514C143.116 148.694 142.916 148.841 142.668 148.841C142.421 148.841 142.221 148.694 142.221 148.514C142.221 148.334 142.421 148.187 142.668 148.187C142.915 148.187 143.116 148.334 143.116 148.514Z" fill="#B5453C"/>
<path d="M140.545 148.595C140.545 148.595 140.251 148.453 139.966 148.739C139.966 148.739 140.339 149.024 140.545 148.595Z" fill="#82B378"/>
<path d="M142.806 146.53C142.806 146.53 142.408 146.337 142.022 146.724C142.021 146.724 142.525 147.11 142.806 146.53Z" fill="#82B378"/>
<path d="M147.094 145.429C147.094 145.429 146.684 145.431 146.359 145.987C146.36 145.987 146.898 146.124 147.094 145.429Z" fill="#82B378"/>
<path d="M148.999 145.846C148.999 145.846 148.652 145.43 148.222 145.571C148.222 145.571 148.639 146.234 148.999 145.846Z" fill="#82B378"/>
<path d="M145.947 147.032C145.947 147.032 145.754 146.483 145.396 146.311C145.396 146.311 145.599 147.095 145.947 147.032Z" fill="#82B378"/>
<path d="M145.274 147.813C145.274 147.813 144.928 147.765 144.636 148.196C144.636 148.195 145.085 148.375 145.274 147.813Z" fill="#82B378"/>
<path d="M145.599 150.267C145.599 150.267 145.315 149.887 144.949 149.972C144.949 149.972 145.285 150.565 145.599 150.267Z" fill="#82B378"/>
<path d="M146.101 148.621C146.101 148.621 145.755 148.595 145.471 149.043C145.471 149.043 145.923 149.194 146.101 148.621Z" fill="#82B378"/>
<path d="M144.516 145.586C144.516 145.586 144.179 145.438 143.856 145.777C143.856 145.777 144.285 146.087 144.516 145.586Z" fill="#82B378"/>
<path d="M143.651 144.868C143.651 144.868 143.392 144.427 143.023 144.427C143.023 144.427 143.321 145.092 143.651 144.868Z" fill="#82B378"/>
<path d="M141.081 148.957C140.691 149.146 140.496 149.527 140.647 149.805C140.761 150.014 141.011 149.97 141.295 149.855L141.439 150.12C141.459 150.157 141.518 150.167 141.569 150.142L141.845 150.008C141.897 149.983 141.923 149.933 141.903 149.896L141.76 149.632C142.022 149.486 142.183 149.334 142.065 149.118C141.913 148.843 141.471 148.77 141.081 148.957Z" fill="#EFCBAB"/>
<path d="M148.481 144.102C148.798 144.256 148.958 144.567 148.834 144.793C148.742 144.964 148.538 144.927 148.307 144.834L148.189 145.05C148.173 145.08 148.125 145.088 148.084 145.068L147.859 144.959C147.818 144.939 147.797 144.898 147.813 144.869L147.929 144.654C147.717 144.536 147.584 144.411 147.68 144.236C147.803 144.008 148.163 143.948 148.481 144.102Z" fill="#EFCBAB"/>
<path d="M143.947 147.777C144.265 147.931 144.425 148.242 144.301 148.469C144.209 148.639 144.005 148.604 143.774 148.509L143.656 148.725C143.64 148.755 143.592 148.764 143.551 148.743L143.326 148.635C143.285 148.614 143.263 148.574 143.28 148.544L143.396 148.329C143.183 148.211 143.051 148.087 143.147 147.911C143.27 147.683 143.63 147.623 143.947 147.777Z" fill="#EFCBAB"/>
<path d="M141.26 145.426C140.943 145.58 140.783 145.891 140.907 146.118C140.999 146.288 141.203 146.253 141.434 146.158L141.552 146.374C141.568 146.404 141.616 146.413 141.657 146.392L141.882 146.284C141.923 146.263 141.944 146.223 141.928 146.193L141.812 145.978C142.024 145.86 142.157 145.736 142.061 145.56C141.939 145.332 141.578 145.273 141.26 145.426Z" fill="#EFCBAB"/>
<path d="M155.089 147.445L147.807 147.062L146.813 146.533V147.01L152.497 150.975C154.212 150.114 155.364 148.872 155.571 147.472V146.995L155.089 147.445Z" fill="#FFE4CC"/>
<path d="M155.571 146.993C155.362 148.393 154.212 149.636 152.495 150.496L149.92 148.699L149.384 148.325L146.813 146.531L155.571 146.993Z" fill="#FF7D5A"/>
<path d="M149.726 147.387C149.726 147.547 149.548 147.676 149.329 147.676C149.111 147.676 148.933 147.547 148.933 147.387C148.933 147.227 149.111 147.098 149.329 147.098C149.548 147.098 149.726 147.227 149.726 147.387Z" fill="#B5453C"/>
<path d="M150.145 148.439C150.145 148.554 150.053 148.654 149.92 148.7L149.383 148.326C149.443 148.223 149.585 148.151 149.748 148.151C149.968 148.15 150.145 148.279 150.145 148.439Z" fill="#B5453C"/>
<path d="M151.563 148.505C151.563 148.585 151.474 148.649 151.364 148.649C151.254 148.649 151.165 148.585 151.165 148.505C151.165 148.425 151.254 148.36 151.364 148.36C151.474 148.36 151.563 148.425 151.563 148.505Z" fill="#B5453C"/>
<path d="M152.626 147.677C152.626 147.757 152.538 147.822 152.429 147.822C152.32 147.822 152.23 147.757 152.23 147.677C152.23 147.597 152.319 147.533 152.429 147.533C152.539 147.533 152.626 147.597 152.626 147.677Z" fill="#B5453C"/>
<path d="M150.612 147.458C150.612 147.538 150.523 147.603 150.413 147.603C150.303 147.603 150.216 147.538 150.216 147.458C150.216 147.378 150.305 147.314 150.413 147.314C150.523 147.314 150.612 147.38 150.612 147.458Z" fill="#B5453C"/>
<path d="M151.628 147.204C151.628 147.335 151.481 147.443 151.301 147.443C151.121 147.443 150.975 147.337 150.975 147.204C150.975 147.073 151.121 146.965 151.301 146.965C151.481 146.965 151.628 147.073 151.628 147.204Z" fill="#B5453C"/>
<path d="M151.301 147.978C151.301 148.068 151.203 148.139 151.08 148.139C150.958 148.139 150.859 148.068 150.859 147.978C150.859 147.889 150.958 147.817 151.08 147.817C151.203 147.817 151.301 147.89 151.301 147.978Z" fill="#B5453C"/>
<path d="M148.402 147.098C148.402 147.156 148.337 147.204 148.257 147.204C148.177 147.204 148.112 147.156 148.112 147.098C148.112 147.039 148.177 146.992 148.257 146.992C148.337 146.992 148.402 147.039 148.402 147.098Z" fill="#B5453C"/>
<path d="M150.082 147.479C150.082 147.479 149.797 147.48 149.572 147.867C149.572 147.867 149.946 147.961 150.082 147.479Z" fill="#82B378"/>
<path d="M153.367 147.844C153.367 147.844 153.149 147.492 152.847 147.506C152.848 147.506 153.099 148.041 153.367 147.844Z" fill="#82B378"/>
<path d="M150.776 148.436C150.776 148.436 150.554 148.097 150.251 148.131C150.251 148.132 150.512 148.65 150.776 148.436Z" fill="#82B378"/>
<path d="M152.495 148.78C152.495 148.78 152.213 148.714 151.964 149.043C151.964 149.043 152.328 149.226 152.495 148.78Z" fill="#82B378"/>
<path d="M148.128 146.773C148.128 146.773 147.882 146.669 147.648 146.92C147.648 146.92 147.962 147.14 148.128 146.773Z" fill="#82B378"/>
<path d="M168.64 156.469C165.982 156.834 163.57 157.134 161.879 158.197C160.321 159.178 159.367 160.496 159.367 161.945C159.367 163.557 160.403 165.281 162.422 166.008C164.119 166.62 166.791 167.872 168.64 167.422C170.959 166.856 173.021 166.934 174.638 166.122L173.887 165.599L168.65 161.945L177.087 162.391L177.877 162.433C177.901 162.273 177.913 162.11 177.913 161.947C177.913 160.394 176.821 158.994 175.065 157.997C173.399 157.05 171.128 156.127 168.64 156.469Z" fill="#FFE4CC"/>
<path d="M177.087 162.391L168.65 161.946L173.887 165.599C173.367 165.824 172.798 166.016 172.191 166.169C171.113 166.441 169.865 166.255 168.649 166.592C166.633 167.152 164.773 165.867 163.28 165.542C161.672 165.191 159.989 163.352 160.173 161.946C160.363 160.484 161.452 158.791 163.404 158.294C164.87 157.921 166.804 157.056 168.785 157.056C170.393 157.056 171.742 157.819 173.04 157.97C175.489 158.254 177.123 160.261 177.123 161.946C177.124 162.096 177.112 162.244 177.087 162.391Z" fill="#F77548"/>
<path d="M164.199 161.441C164.199 161.601 164.021 161.73 163.803 161.73C163.584 161.73 163.406 161.6 163.406 161.441C163.406 161.281 163.584 161.152 163.803 161.152C164.021 161.152 164.199 161.281 164.199 161.441Z" fill="#B5453C"/>
<path d="M166.61 160.05C166.61 160.21 166.432 160.339 166.213 160.339C165.994 160.339 165.817 160.209 165.817 160.05C165.817 159.89 165.994 159.761 166.213 159.761C166.432 159.76 166.61 159.89 166.61 160.05Z" fill="#B5453C"/>
<path d="M165.12 159.284C165.12 159.415 164.974 159.523 164.794 159.523C164.614 159.523 164.468 159.416 164.468 159.284C164.468 159.152 164.614 159.045 164.794 159.045C164.974 159.045 165.12 159.152 165.12 159.284Z" fill="#B5453C"/>
<path d="M168.075 158.692C168.075 158.838 167.912 158.958 167.711 158.958C167.51 158.958 167.347 158.838 167.347 158.692C167.347 158.545 167.51 158.425 167.711 158.425C167.912 158.425 168.075 158.545 168.075 158.692Z" fill="#B5453C"/>
<path d="M168.075 161.441C168.075 161.673 167.817 161.86 167.501 161.86C167.185 161.86 166.927 161.673 166.927 161.441C166.927 161.209 167.185 161.022 167.501 161.022C167.817 161.022 168.075 161.209 168.075 161.441Z" fill="#B5453C"/>
<path d="M169.322 159.911C169.322 160.071 169.145 160.199 168.926 160.199C168.707 160.199 168.53 160.069 168.53 159.911C168.53 159.751 168.707 159.622 168.926 159.622C169.145 159.62 169.322 159.751 169.322 159.911Z" fill="#B5453C"/>
<path d="M171.158 160.055C171.158 160.135 171.069 160.2 170.961 160.2C170.851 160.2 170.762 160.135 170.762 160.055C170.762 159.975 170.851 159.911 170.961 159.911C171.069 159.911 171.158 159.975 171.158 160.055Z" fill="#B5453C"/>
<path d="M170.326 158.813C170.326 158.893 170.238 158.958 170.128 158.958C170.018 158.958 169.93 158.893 169.93 158.813C169.93 158.733 170.019 158.669 170.128 158.669C170.238 158.669 170.326 158.733 170.326 158.813Z" fill="#B5453C"/>
<path d="M168.075 163.476C168.075 163.556 167.986 163.621 167.876 163.621C167.766 163.621 167.677 163.556 167.677 163.476C167.677 163.396 167.766 163.332 167.876 163.332C167.986 163.332 168.075 163.397 168.075 163.476Z" fill="#B5453C"/>
<path d="M169.432 164.135C169.432 164.215 169.344 164.279 169.234 164.279C169.124 164.279 169.036 164.215 169.036 164.135C169.036 164.055 169.125 163.99 169.234 163.99C169.342 163.99 169.432 164.055 169.432 164.135Z" fill="#B5453C"/>
<path d="M166.431 163C166.431 163.181 166.231 163.328 165.983 163.328C165.736 163.328 165.536 163.181 165.536 163C165.536 162.82 165.736 162.673 165.983 162.673C166.231 162.673 166.431 162.819 166.431 163Z" fill="#B5453C"/>
<path d="M163.86 163.082C163.86 163.082 163.566 162.94 163.281 163.225C163.281 163.225 163.654 163.51 163.86 163.082Z" fill="#82B378"/>
<path d="M166.121 161.015C166.121 161.015 165.723 160.823 165.337 161.21C165.336 161.21 165.84 161.597 166.121 161.015Z" fill="#82B378"/>
<path d="M170.409 159.914C170.409 159.914 169.999 159.916 169.674 160.473C169.675 160.474 170.213 160.61 170.409 159.914Z" fill="#82B378"/>
<path d="M172.314 160.332C172.314 160.332 171.967 159.917 171.537 160.057C171.537 160.057 171.954 160.72 172.314 160.332Z" fill="#82B378"/>
<path d="M169.263 161.519C169.263 161.519 169.069 160.97 168.711 160.798C168.711 160.798 168.914 161.582 169.263 161.519Z" fill="#82B378"/>
<path d="M168.589 162.298C168.589 162.298 168.243 162.251 167.951 162.682C167.951 162.682 168.4 162.861 168.589 162.298Z" fill="#82B378"/>
<path d="M168.914 164.754C168.914 164.754 168.63 164.374 168.264 164.459C168.264 164.459 168.6 165.051 168.914 164.754Z" fill="#82B378"/>
<path d="M169.416 163.107C169.416 163.107 169.07 163.08 168.786 163.528C168.786 163.529 169.237 163.681 169.416 163.107Z" fill="#82B378"/>
<path d="M167.831 160.073C167.831 160.073 167.493 159.925 167.171 160.264C167.171 160.264 167.6 160.573 167.831 160.073Z" fill="#82B378"/>
<path d="M166.966 159.354C166.966 159.354 166.707 158.914 166.338 158.914C166.338 158.914 166.635 159.579 166.966 159.354Z" fill="#82B378"/>
<path d="M164.397 163.444C164.007 163.632 163.812 164.013 163.963 164.292C164.077 164.5 164.327 164.456 164.611 164.342L164.754 164.607C164.774 164.644 164.832 164.653 164.884 164.628L165.161 164.495C165.212 164.469 165.238 164.419 165.218 164.382L165.076 164.118C165.337 163.973 165.498 163.821 165.381 163.605C165.228 163.328 164.787 163.255 164.397 163.444Z" fill="#EFCBAB"/>
<path d="M171.795 158.589C172.113 158.743 172.273 159.053 172.149 159.28C172.057 159.451 171.853 159.414 171.622 159.321L171.504 159.537C171.488 159.567 171.44 159.575 171.399 159.555L171.174 159.446C171.133 159.426 171.112 159.385 171.128 159.355L171.244 159.141C171.032 159.022 170.899 158.898 170.995 158.723C171.118 158.495 171.478 158.435 171.795 158.589Z" fill="#EFCBAB"/>
<path d="M167.262 162.264C167.58 162.418 167.739 162.728 167.616 162.955C167.524 163.126 167.32 163.089 167.089 162.996L166.971 163.212C166.955 163.242 166.907 163.25 166.866 163.23L166.641 163.121C166.6 163.101 166.578 163.06 166.595 163.03L166.711 162.815C166.498 162.697 166.366 162.573 166.462 162.397C166.585 162.169 166.945 162.11 167.262 162.264Z" fill="#EFCBAB"/>
<path d="M164.575 159.913C164.258 160.067 164.099 160.378 164.222 160.604C164.314 160.775 164.518 160.738 164.749 160.645L164.867 160.861C164.883 160.891 164.93 160.899 164.972 160.879L165.197 160.77C165.238 160.75 165.259 160.71 165.243 160.68L165.127 160.465C165.339 160.347 165.472 160.222 165.376 160.047C165.254 159.819 164.893 159.759 164.575 159.913Z" fill="#EFCBAB"/>
<path d="M178.404 161.93L171.122 161.547L170.128 161.018V161.494L175.812 165.459C177.527 164.598 178.679 163.357 178.886 161.956V161.48L178.404 161.93Z" fill="#FFE4CC"/>
<path d="M178.886 161.48C178.677 162.88 177.527 164.123 175.81 164.983L173.235 163.186L172.699 162.812L170.128 161.018L178.886 161.48Z" fill="#FF7D5A"/>
<path d="M173.041 161.873C173.041 162.033 172.863 162.162 172.644 162.162C172.426 162.162 172.248 162.032 172.248 161.873C172.248 161.713 172.426 161.584 172.644 161.584C172.863 161.584 173.041 161.713 173.041 161.873Z" fill="#B5453C"/>
<path d="M173.46 162.924C173.46 163.04 173.368 163.139 173.235 163.186L172.698 162.812C172.758 162.708 172.9 162.635 173.063 162.635C173.283 162.635 173.46 162.765 173.46 162.924Z" fill="#B5453C"/>
<path d="M174.877 162.991C174.877 163.071 174.789 163.136 174.68 163.136C174.57 163.136 174.481 163.071 174.481 162.991C174.481 162.911 174.57 162.847 174.68 162.847C174.789 162.847 174.877 162.911 174.877 162.991Z" fill="#B5453C"/>
<path d="M175.941 162.163C175.941 162.243 175.853 162.307 175.744 162.307C175.634 162.307 175.545 162.243 175.545 162.163C175.545 162.083 175.634 162.018 175.744 162.018C175.853 162.018 175.941 162.083 175.941 162.163Z" fill="#B5453C"/>
<path d="M173.927 161.945C173.927 162.025 173.839 162.09 173.73 162.09C173.621 162.09 173.532 162.025 173.532 161.945C173.532 161.865 173.621 161.801 173.73 161.801C173.839 161.801 173.927 161.865 173.927 161.945Z" fill="#B5453C"/>
<path d="M174.943 161.689C174.943 161.821 174.796 161.928 174.616 161.928C174.436 161.928 174.29 161.822 174.29 161.689C174.29 161.558 174.436 161.451 174.616 161.451C174.796 161.451 174.943 161.558 174.943 161.689Z" fill="#B5453C"/>
<path d="M174.616 162.464C174.616 162.554 174.518 162.626 174.395 162.626C174.273 162.626 174.174 162.554 174.174 162.464C174.174 162.375 174.273 162.303 174.395 162.303C174.518 162.303 174.616 162.375 174.616 162.464Z" fill="#B5453C"/>
<path d="M171.717 161.583C171.717 161.642 171.652 161.69 171.572 161.69C171.492 161.69 171.425 161.642 171.425 161.583C171.425 161.525 171.49 161.477 171.572 161.477C171.652 161.477 171.717 161.525 171.717 161.583Z" fill="#B5453C"/>
<path d="M173.397 161.965C173.397 161.965 173.112 161.967 172.887 162.353C172.888 162.353 173.261 162.448 173.397 161.965Z" fill="#82B378"/>
<path d="M176.682 162.33C176.682 162.33 176.464 161.977 176.162 161.992C176.163 161.992 176.414 162.527 176.682 162.33Z" fill="#82B378"/>
<path d="M174.091 162.923C174.091 162.923 173.869 162.584 173.566 162.618C173.566 162.618 173.827 163.137 174.091 162.923Z" fill="#82B378"/>
<path d="M175.81 163.266C175.81 163.266 175.528 163.199 175.279 163.528C175.279 163.528 175.643 163.712 175.81 163.266Z" fill="#82B378"/>
<path d="M171.443 161.259C171.443 161.259 171.197 161.155 170.963 161.405C170.963 161.405 171.277 161.625 171.443 161.259Z" fill="#82B378"/>
<path d="M145.325 171.721C142.667 172.087 140.255 172.386 138.564 173.45C137.006 174.431 136.052 175.749 136.052 177.198C136.052 178.81 137.088 180.534 139.107 181.261C140.804 181.873 143.476 183.126 145.325 182.675C147.644 182.109 149.706 182.187 151.323 181.375L150.573 180.852L145.335 177.198L153.772 177.644L154.562 177.685C154.586 177.525 154.598 177.363 154.598 177.199C154.598 175.647 153.506 174.247 151.75 173.25C150.084 172.304 147.813 171.38 145.325 171.721Z" fill="#FFE4CC"/>
<path d="M153.772 177.645L145.335 177.199L150.573 180.853C150.053 181.077 149.484 181.27 148.876 181.423C147.798 181.695 146.551 181.509 145.334 181.846C143.319 182.406 141.458 181.12 139.965 180.796C138.357 180.445 136.676 178.606 136.858 177.199C137.048 175.738 138.137 174.045 140.089 173.548C141.556 173.175 143.49 172.31 145.47 172.31C147.078 172.31 148.427 173.073 149.725 173.223C152.174 173.508 153.808 175.515 153.808 177.199C153.81 177.35 153.797 177.498 153.772 177.645Z" fill="#F77548"/>
<path d="M140.884 176.696C140.884 176.856 140.706 176.985 140.488 176.985C140.269 176.985 140.091 176.854 140.091 176.696C140.091 176.536 140.269 176.407 140.488 176.407C140.706 176.406 140.884 176.536 140.884 176.696Z" fill="#B5453C"/>
<path d="M143.295 175.304C143.295 175.464 143.117 175.593 142.898 175.593C142.679 175.593 142.502 175.462 142.502 175.304C142.502 175.144 142.679 175.015 142.898 175.015C143.117 175.015 143.295 175.144 143.295 175.304Z" fill="#B5453C"/>
<path d="M141.805 174.537C141.805 174.668 141.659 174.776 141.479 174.776C141.299 174.776 141.153 174.67 141.153 174.537C141.153 174.406 141.299 174.298 141.479 174.298C141.659 174.3 141.805 174.406 141.805 174.537Z" fill="#B5453C"/>
<path d="M144.76 173.946C144.76 174.093 144.597 174.212 144.396 174.212C144.195 174.212 144.032 174.093 144.032 173.946C144.032 173.799 144.195 173.68 144.396 173.68C144.597 173.68 144.76 173.799 144.76 173.946Z" fill="#B5453C"/>
<path d="M144.76 176.696C144.76 176.928 144.502 177.115 144.186 177.115C143.87 177.115 143.612 176.928 143.612 176.696C143.612 176.464 143.87 176.277 144.186 176.277C144.502 176.277 144.76 176.464 144.76 176.696Z" fill="#B5453C"/>
<path d="M146.008 175.164C146.008 175.324 145.83 175.453 145.611 175.453C145.392 175.453 145.215 175.323 145.215 175.164C145.215 175.004 145.392 174.875 145.611 174.875C145.83 174.875 146.008 175.004 146.008 175.164Z" fill="#B5453C"/>
<path d="M147.843 175.309C147.843 175.389 147.754 175.453 147.644 175.453C147.534 175.453 147.445 175.389 147.445 175.309C147.445 175.229 147.534 175.164 147.644 175.164C147.754 175.164 147.843 175.229 147.843 175.309Z" fill="#B5453C"/>
<path d="M147.012 174.066C147.012 174.146 146.923 174.211 146.813 174.211C146.703 174.211 146.614 174.146 146.614 174.066C146.614 173.986 146.703 173.922 146.813 173.922C146.923 173.922 147.012 173.986 147.012 174.066Z" fill="#B5453C"/>
<path d="M144.76 178.73C144.76 178.81 144.671 178.875 144.562 178.875C144.452 178.875 144.363 178.81 144.363 178.73C144.363 178.65 144.452 178.586 144.562 178.586C144.671 178.586 144.76 178.65 144.76 178.73Z" fill="#B5453C"/>
<path d="M146.118 179.388C146.118 179.468 146.029 179.533 145.92 179.533C145.811 179.533 145.721 179.468 145.721 179.388C145.721 179.308 145.81 179.244 145.92 179.244C146.03 179.244 146.118 179.309 146.118 179.388Z" fill="#B5453C"/>
<path d="M143.116 178.254C143.116 178.434 142.916 178.581 142.668 178.581C142.421 178.581 142.221 178.434 142.221 178.254C142.221 178.074 142.421 177.927 142.668 177.927C142.915 177.927 143.116 178.074 143.116 178.254Z" fill="#B5453C"/>
<path d="M140.545 178.335C140.545 178.335 140.251 178.193 139.966 178.478C139.966 178.478 140.339 178.764 140.545 178.335Z" fill="#82B378"/>
<path d="M142.806 176.269C142.806 176.269 142.408 176.077 142.022 176.464C142.021 176.464 142.525 176.85 142.806 176.269Z" fill="#82B378"/>
<path d="M147.094 175.168C147.094 175.168 146.684 175.171 146.359 175.727C146.36 175.727 146.898 175.863 147.094 175.168Z" fill="#82B378"/>
<path d="M148.999 175.586C148.999 175.586 148.652 175.171 148.222 175.312C148.222 175.311 148.639 175.973 148.999 175.586Z" fill="#82B378"/>
<path d="M145.947 176.772C145.947 176.772 145.754 176.223 145.396 176.051C145.396 176.051 145.599 176.835 145.947 176.772Z" fill="#82B378"/>
<path d="M145.274 177.553C145.274 177.553 144.928 177.505 144.636 177.936C144.636 177.936 145.085 178.115 145.274 177.553Z" fill="#82B378"/>
<path d="M145.599 180.006C145.599 180.006 145.315 179.627 144.949 179.712C144.949 179.712 145.285 180.305 145.599 180.006Z" fill="#82B378"/>
<path d="M146.101 178.361C146.101 178.361 145.755 178.335 145.471 178.783C145.471 178.783 145.923 178.934 146.101 178.361Z" fill="#82B378"/>
<path d="M144.516 175.326C144.516 175.326 144.179 175.178 143.856 175.517C143.856 175.517 144.285 175.826 144.516 175.326Z" fill="#82B378"/>
<path d="M143.651 174.608C143.651 174.608 143.392 174.167 143.023 174.167C143.023 174.168 143.321 174.833 143.651 174.608Z" fill="#82B378"/>
<path d="M141.081 178.698C140.691 178.887 140.496 179.268 140.647 179.546C140.761 179.755 141.011 179.711 141.295 179.596L141.439 179.861C141.459 179.898 141.518 179.908 141.569 179.883L141.845 179.749C141.897 179.724 141.923 179.674 141.903 179.637L141.76 179.373C142.022 179.227 142.183 179.076 142.065 178.859C141.913 178.582 141.471 178.51 141.081 178.698Z" fill="#EFCBAB"/>
<path d="M148.481 173.842C148.798 173.996 148.958 174.307 148.834 174.534C148.742 174.704 148.538 174.667 148.307 174.574L148.189 174.79C148.173 174.82 148.125 174.829 148.084 174.808L147.859 174.7C147.818 174.679 147.797 174.639 147.813 174.609L147.929 174.394C147.717 174.276 147.584 174.152 147.68 173.976C147.803 173.748 148.163 173.689 148.481 173.842Z" fill="#EFCBAB"/>
<path d="M143.947 177.517C144.265 177.671 144.425 177.982 144.301 178.208C144.209 178.379 144.005 178.342 143.774 178.249L143.656 178.465C143.64 178.495 143.592 178.503 143.551 178.483L143.326 178.374C143.285 178.354 143.263 178.313 143.28 178.284L143.396 178.069C143.183 177.951 143.051 177.826 143.147 177.651C143.27 177.423 143.63 177.364 143.947 177.517Z" fill="#EFCBAB"/>
<path d="M141.26 175.166C140.943 175.32 140.783 175.63 140.907 175.857C140.999 176.028 141.203 175.991 141.434 175.898L141.552 176.114C141.568 176.144 141.616 176.152 141.657 176.132L141.882 176.023C141.923 176.003 141.944 175.962 141.928 175.933L141.812 175.718C142.024 175.599 142.157 175.475 142.061 175.3C141.939 175.072 141.578 175.013 141.26 175.166Z" fill="#EFCBAB"/>
<path d="M155.089 177.185L147.807 176.802L146.813 176.273V176.749L152.497 180.715C154.212 179.854 155.364 178.612 155.571 177.211V176.735L155.089 177.185Z" fill="#FFE4CC"/>
<path d="M155.571 176.733C155.362 178.133 154.212 179.376 152.495 180.236L149.92 178.439L149.384 178.065L146.813 176.271L155.571 176.733Z" fill="#FF7D5A"/>
<path d="M149.726 177.127C149.726 177.287 149.548 177.416 149.329 177.416C149.111 177.416 148.933 177.286 148.933 177.127C148.933 176.967 149.111 176.838 149.329 176.838C149.548 176.838 149.726 176.967 149.726 177.127Z" fill="#B5453C"/>
<path d="M150.145 178.178C150.145 178.294 150.053 178.393 149.92 178.44L149.383 178.066C149.443 177.962 149.585 177.891 149.748 177.891C149.968 177.889 150.145 178.018 150.145 178.178Z" fill="#B5453C"/>
<path d="M151.563 178.244C151.563 178.324 151.474 178.389 151.364 178.389C151.254 178.389 151.165 178.324 151.165 178.244C151.165 178.164 151.254 178.1 151.364 178.1C151.474 178.1 151.563 178.164 151.563 178.244Z" fill="#B5453C"/>
<path d="M152.626 177.417C152.626 177.497 152.538 177.561 152.429 177.561C152.32 177.561 152.23 177.497 152.23 177.417C152.23 177.337 152.319 177.272 152.429 177.272C152.539 177.272 152.626 177.337 152.626 177.417Z" fill="#B5453C"/>
<path d="M150.612 177.2C150.612 177.28 150.523 177.344 150.413 177.344C150.303 177.344 150.216 177.28 150.216 177.2C150.216 177.12 150.305 177.055 150.413 177.055C150.523 177.054 150.612 177.12 150.612 177.2Z" fill="#B5453C"/>
<path d="M151.628 176.944C151.628 177.075 151.481 177.183 151.301 177.183C151.121 177.183 150.975 177.076 150.975 176.944C150.975 176.813 151.121 176.705 151.301 176.705C151.481 176.705 151.628 176.813 151.628 176.944Z" fill="#B5453C"/>
<path d="M151.301 177.718C151.301 177.807 151.203 177.879 151.08 177.879C150.958 177.879 150.859 177.806 150.859 177.718C150.859 177.628 150.958 177.557 151.08 177.557C151.203 177.557 151.301 177.629 151.301 177.718Z" fill="#B5453C"/>
<path d="M148.402 176.838C148.402 176.896 148.337 176.944 148.257 176.944C148.177 176.944 148.112 176.896 148.112 176.838C148.112 176.779 148.177 176.731 148.257 176.731C148.337 176.731 148.402 176.779 148.402 176.838Z" fill="#B5453C"/>
<path d="M150.082 177.219C150.082 177.219 149.797 177.22 149.572 177.607C149.572 177.607 149.946 177.701 150.082 177.219Z" fill="#82B378"/>
<path d="M153.367 177.584C153.367 177.584 153.149 177.232 152.847 177.246C152.848 177.246 153.099 177.781 153.367 177.584Z" fill="#82B378"/>
<path d="M150.776 178.176C150.776 178.176 150.554 177.837 150.251 177.87C150.251 177.872 150.512 178.39 150.776 178.176Z" fill="#82B378"/>
<path d="M152.495 178.52C152.495 178.52 152.213 178.453 151.964 178.783C151.964 178.783 152.328 178.966 152.495 178.52Z" fill="#82B378"/>
<path d="M148.128 176.513C148.128 176.513 147.882 176.409 147.648 176.66C147.648 176.66 147.962 176.88 148.128 176.513Z" fill="#82B378"/>
<path d="M159.441 239.795H146.891C146.609 239.795 146.378 239.576 146.378 239.306C146.378 239.037 146.608 238.816 146.891 238.816H159.44C159.721 238.816 159.952 239.036 159.952 239.306C159.952 239.576 159.722 239.795 159.441 239.795Z" fill="#FCECDB"/>
<path d="M159.441 237.504H146.891C146.609 237.504 146.378 237.284 146.378 237.014C146.378 236.746 146.608 236.525 146.891 236.525H159.44C159.721 236.525 159.952 236.745 159.952 237.014C159.952 237.283 159.722 237.504 159.441 237.504Z" fill="#FCECDB"/>
<path d="M152.501 159.935H137.93C137.622 159.935 137.37 159.695 137.37 159.4C137.37 159.106 137.621 158.865 137.93 158.865H152.501C152.808 158.865 153.061 159.105 153.061 159.4C153.059 159.695 152.808 159.935 152.501 159.935Z" fill="#EFCBAB"/>
<path d="M152.501 162.118H137.93C137.622 162.118 137.37 161.878 137.37 161.583C137.37 161.29 137.621 161.048 137.93 161.048H152.501C152.808 161.048 153.061 161.288 153.061 161.583C153.059 161.878 152.808 162.118 152.501 162.118Z" fill="#EFCBAB"/>
<path d="M152.501 164.302H137.93C137.622 164.302 137.37 164.062 137.37 163.767C137.37 163.474 137.621 163.232 137.93 163.232H152.501C152.808 163.232 153.061 163.472 153.061 163.767C153.059 164.061 152.808 164.302 152.501 164.302Z" fill="#EFCBAB"/>
<path d="M177.414 144.35H162.843C162.535 144.35 162.283 144.11 162.283 143.815C162.283 143.521 162.534 143.28 162.843 143.28H177.414C177.721 143.28 177.974 143.52 177.974 143.815C177.974 144.108 177.721 144.35 177.414 144.35Z" fill="#EFCBAB"/>
<path d="M177.414 146.533H162.843C162.535 146.533 162.283 146.293 162.283 145.998C162.283 145.705 162.534 145.463 162.843 145.463H177.414C177.721 145.463 177.974 145.703 177.974 145.998C177.974 146.292 177.721 146.533 177.414 146.533Z" fill="#EFCBAB"/>
<path d="M177.414 148.716H162.843C162.535 148.716 162.283 148.476 162.283 148.181C162.283 147.887 162.534 147.646 162.843 147.646H177.414C177.721 147.646 177.974 147.886 177.974 148.181C177.974 148.476 177.721 148.716 177.414 148.716Z" fill="#EFCBAB"/>
<path d="M177.414 175.336H162.843C162.535 175.336 162.283 175.096 162.283 174.801C162.283 174.507 162.534 174.266 162.843 174.266H177.414C177.721 174.266 177.974 174.506 177.974 174.801C177.974 175.095 177.721 175.336 177.414 175.336Z" fill="#EFCBAB"/>
<path d="M177.414 177.519H162.843C162.535 177.519 162.283 177.279 162.283 176.984C162.283 176.69 162.534 176.449 162.843 176.449H177.414C177.721 176.449 177.974 176.689 177.974 176.984C177.974 177.279 177.721 177.519 177.414 177.519Z" fill="#EFCBAB"/>
<path d="M177.414 179.702H162.843C162.535 179.702 162.283 179.462 162.283 179.167C162.283 178.874 162.534 178.632 162.843 178.632H177.414C177.721 178.632 177.974 178.872 177.974 179.167C177.974 179.462 177.721 179.702 177.414 179.702Z" fill="#EFCBAB"/>
<path d="M177.414 226.332H162.843C162.535 226.332 162.283 226.092 162.283 225.797C162.283 225.503 162.534 225.262 162.843 225.262H177.414C177.721 225.262 177.974 225.502 177.974 225.797C177.974 226.092 177.721 226.332 177.414 226.332Z" fill="#FCECDB"/>
<path d="M177.414 228.516H162.843C162.535 228.516 162.283 228.276 162.283 227.981C162.283 227.687 162.534 227.446 162.843 227.446H177.414C177.721 227.446 177.974 227.686 177.974 227.981C177.974 228.276 177.721 228.516 177.414 228.516Z" fill="#FCECDB"/>
<path d="M177.414 230.7H162.843C162.535 230.7 162.283 230.46 162.283 230.165C162.283 229.871 162.534 229.63 162.843 229.63H177.414C177.721 229.63 177.974 229.87 177.974 230.165C177.974 230.46 177.721 230.7 177.414 230.7Z" fill="#FCECDB"/>
<path d="M161.095 216.638H146.524C146.216 216.638 145.964 216.398 145.964 216.103C145.964 215.81 146.215 215.568 146.524 215.568H161.095C161.402 215.568 161.655 215.808 161.655 216.103C161.655 216.397 161.402 216.638 161.095 216.638Z" fill="#FCECDB"/>
<path d="M161.095 218.821H146.524C146.216 218.821 145.964 218.581 145.964 218.286C145.964 217.992 146.215 217.751 146.524 217.751H161.095C161.402 217.751 161.655 217.991 161.655 218.286C161.655 218.581 161.402 218.821 161.095 218.821Z" fill="#FCECDB"/>
<path d="M161.095 221.004H146.524C146.216 221.004 145.964 220.764 145.964 220.469C145.964 220.176 146.215 219.935 146.524 219.935H161.095C161.402 219.935 161.655 220.175 161.655 220.469C161.655 220.764 161.402 221.004 161.095 221.004Z" fill="#FCECDB"/>
<path d="M176.96 207.754H162.389C162.081 207.754 161.829 207.514 161.829 207.219C161.829 206.925 162.08 206.684 162.389 206.684H176.96C177.267 206.684 177.52 206.924 177.52 207.219C177.52 207.513 177.268 207.754 176.96 207.754Z" fill="#FCECDB"/>
<path d="M176.96 209.937H162.389C162.081 209.937 161.829 209.698 161.829 209.403C161.829 209.109 162.08 208.868 162.389 208.868H176.96C177.267 208.868 177.52 209.108 177.52 209.403C177.52 209.696 177.268 209.937 176.96 209.937Z" fill="#FCECDB"/>
<path d="M176.96 212.12H162.389C162.081 212.12 161.829 211.88 161.829 211.585C161.829 211.291 162.08 211.05 162.389 211.05H176.96C177.267 211.05 177.52 211.29 177.52 211.585C177.52 211.88 177.268 212.12 176.96 212.12Z" fill="#FCECDB"/>
<path d="M176.96 201.169H162.389C162.081 201.169 161.829 200.929 161.829 200.634C161.829 200.34 162.08 200.099 162.389 200.099H176.96C177.267 200.099 177.52 200.339 177.52 200.634C177.52 200.929 177.268 201.169 176.96 201.169Z" fill="#FCECDB"/>
<path d="M176.96 203.353H162.389C162.081 203.353 161.829 203.113 161.829 202.818C161.829 202.524 162.08 202.283 162.389 202.283H176.96C177.267 202.283 177.52 202.523 177.52 202.818C177.52 203.111 177.268 203.353 176.96 203.353Z" fill="#FCECDB"/>
<path d="M176.96 205.537H162.389C162.081 205.537 161.829 205.297 161.829 205.002C161.829 204.708 162.08 204.467 162.389 204.467H176.96C177.267 204.467 177.52 204.707 177.52 205.002C177.52 205.295 177.268 205.537 176.96 205.537Z" fill="#FCECDB"/>
<path d="M217.263 176.985H203.311C201.015 176.985 199.137 175.191 199.137 172.999C199.137 170.807 201.015 169.014 203.311 169.014H217.263C219.558 169.014 221.436 170.807 221.436 172.999C221.436 175.191 219.558 176.985 217.263 176.985Z" fill="#F99746"/>
<path d="M207.619 171.853C207.619 171.853 210.268 175.393 210.26 175.261C210.252 175.128 212.954 170.231 212.954 170.231L209.835 173.119L207.619 171.853Z" fill="white"/>
<path d="M219.128 177.254C219.044 177.205 218.928 177.143 218.789 177.071L216.6 175.364C216.6 175.364 216.322 175.516 216.6 175.805C216.635 175.842 216.683 175.891 216.741 175.947L215.905 175.324C215.905 175.324 215.757 175.465 215.852 175.689C215.921 175.849 216.705 176.488 217.145 176.839C216.88 176.717 216.506 176.448 215.947 175.912C215.598 175.578 215.712 176.082 215.764 176.302C215.858 176.691 216.946 178.007 217.329 178.598C217.711 179.19 217.902 179.774 217.635 179.518C217.367 179.263 215.915 178.408 215.761 178.598C215.608 178.787 216.487 179.518 216.908 180.102C217.329 180.686 217.787 181.672 219.279 181.892C220.771 182.11 221.027 181.39 221.027 181.39C221.027 181.39 219.815 177.657 219.128 177.254Z" fill="#FFB27D"/>
<path d="M265.218 212.839C265.218 212.839 264.854 216.213 264.456 216.851C264.057 217.488 262.204 219.342 261.636 219.929C261.598 219.969 261.229 219.659 261.507 219.209C262.633 217.396 262.319 217.832 261.93 216.64C261.738 216.052 261.618 217.746 261.299 217.787C260.98 217.826 261.094 215.999 261.081 215.444C261.07 214.888 262.679 214.627 262.869 212.623C262.992 211.332 265.218 212.839 265.218 212.839Z" fill="#FFB27D"/>
<path d="M254.139 178.223C254.139 178.223 251.203 191.992 235.036 196.491C229.99 197.895 218.526 182.031 218.526 182.031C218.526 182.031 218.929 180.568 221.455 180.904C221.455 180.904 232.617 187.96 234.022 188.728C235.269 189.408 243.47 179.983 247.208 178.463C250.946 176.942 254.139 178.223 254.139 178.223Z" fill="#006666"/>
<path d="M273.439 264.777C273.439 264.777 275.444 266.525 275.053 267.767C274.661 269.009 272.851 269.836 272.607 271.355C272.362 272.873 271.384 273.701 270.504 273.701C269.624 273.701 266.307 273.701 266.307 273.701C266.307 273.701 265.659 272.633 267.225 272.311C268.79 271.989 269.38 270.206 269.283 268.55C269.185 266.894 269.429 264.687 269.429 264.687L272.755 263.951L273.439 264.777Z" fill="#006666"/>
<path d="M248.836 269.298C248.836 269.298 249.196 273.275 248.315 273.689L237.048 273.668C237.048 273.668 237.048 272.426 238.857 272.15C240.666 271.874 243.846 270.862 244.385 268.609C244.922 266.354 248.836 269.298 248.836 269.298Z" fill="#006666"/>
<path d="M239.322 213.113C239.322 213.113 239.916 220.084 240.615 228.466C241.564 239.851 242.706 253.835 242.819 256.484C243.014 261.085 243.798 268.443 243.798 268.443C243.798 268.443 245.656 270.191 249.375 269.454C249.375 269.454 252.688 258.95 253.634 247.836C253.649 247.653 253.663 247.471 253.678 247.287C254.558 235.973 255.927 212.148 255.927 212.148L239.322 213.113Z" fill="#F99746"/>
<path d="M239.322 213.113C239.322 213.113 239.916 220.084 240.615 228.466L253.633 247.836C253.648 247.653 253.662 247.471 253.677 247.287C254.557 235.973 255.926 212.148 255.926 212.148L239.322 213.113Z" fill="#ED7D2B"/>
<path d="M242.037 213.941C242.037 213.941 252.749 239.191 259.792 251.057C266.835 262.923 269.036 266.235 269.036 266.235C269.036 266.235 273.072 264.718 273.439 263.682C273.439 263.682 270.746 240.773 266.028 235.189C263.363 232.033 260.232 222.564 260.086 219.253C259.939 215.941 259.132 209.387 259.132 209.387L242.037 213.941Z" fill="#F99746"/>
<path d="M256.131 175.028C256.131 175.028 248.883 178.367 244.705 177.128C244.705 177.128 245.734 175.889 247.533 174.967C247.388 174.166 247.275 173.471 247.211 172.881C247.035 171.521 247.035 170.75 247.035 170.75L249.831 168.65L252.483 166.64C252.274 172.292 256.131 175.028 256.131 175.028Z" fill="#FFB27D"/>
<path d="M259.949 210.68C259.966 211.104 259.018 211.588 258.599 211.768C255.498 213.068 252.605 213.975 249.327 214.277C245.455 214.655 240.874 213.823 239.298 213.854C239.138 213.854 238.993 213.794 238.865 213.688C238.752 213.613 238.672 209.155 238.752 203.549C238.752 203.323 238.752 203.096 238.768 202.869V202.794C238.801 200.603 238.881 198.306 238.993 196.009C239.218 190.962 239.637 186.095 240.344 183.406C241.195 180.233 243.124 178.132 244.876 176.605L246.321 175.397C247.768 175.669 249.294 175.593 250.821 174.884C252.493 174.114 254.292 173.283 254.582 173.494C256.767 175.02 258.245 178.45 259.034 182.833C259.038 182.855 259.043 182.876 259.045 182.898C259.487 185.404 259.708 188.207 259.692 191.143C259.692 192.232 259.659 193.35 259.596 194.453C259.273 199.451 259.489 203.9 259.699 206.983C259.741 207.592 259.783 208.147 259.819 208.644C259.886 209.516 259.934 210.197 259.949 210.68Z" fill="#2B9375"/>
<path d="M259.701 206.98C247.687 193.734 255.14 184.106 255.14 184.106L259.045 182.895C259.487 185.401 259.708 188.205 259.692 191.141C259.692 192.23 259.659 193.347 259.596 194.45C259.274 199.448 259.489 203.897 259.701 206.98Z" fill="#006666"/>
<path d="M252.53 168.803C252.53 168.803 250.699 171.99 247.21 172.882C247.034 171.522 247.034 170.751 247.034 170.751L249.83 168.651L252.53 168.803Z" fill="#ED985F"/>
<path d="M245.76 170.659C245.76 170.659 252.674 171.74 253.323 167.68C253.972 163.621 255.301 161.027 250.915 160.165C246.528 159.304 245.42 160.731 244.854 162.036C244.286 163.343 243.979 170.274 245.76 170.659Z" fill="#FFB27D"/>
<path d="M255.836 159.679C255.899 159.61 256.044 159.555 256.366 159.538C256.366 159.538 256.109 159.384 255.765 159.376C255.697 158.948 255.459 158.19 254.688 158.006C254.688 158.006 255.102 158.218 255.157 158.673C254.265 157.796 252.35 157.159 247.052 157.559C240.069 158.085 242.369 162.355 243.273 162.864C244.177 163.372 246.453 161.978 248.138 162.104C249.822 162.232 250.142 164.557 250.715 164.875C251.286 165.194 251.061 164.631 251.835 164.296C252.608 163.962 252.682 165.186 252.459 165.981C252.235 166.776 253.298 167.826 253.298 167.826C253.298 167.826 253.298 167.826 254.372 166.721C255.446 165.617 256.457 160.941 255.97 159.944C255.922 159.858 255.88 159.769 255.836 159.679Z" fill="#18191C"/>
<path d="M254.579 173.458C254.579 173.458 258.954 175.436 261.052 178.478C264.305 183.195 268.077 200.388 268.146 201.98C268.216 203.571 265.393 214.812 265.393 214.812C265.393 214.812 262.531 214.631 261.792 213.252C261.792 213.252 262.363 201.703 262.002 200.961C261.64 200.219 251.02 185.689 251.37 182.322C252.097 175.323 254.579 173.458 254.579 173.458Z" fill="#158C61"/>
<path d="M264.455 216.851L262.385 220.158C262.385 220.158 262.137 220.059 262.176 219.822C262.215 219.586 262.814 217.795 262.814 217.795L264.455 216.851Z" fill="#FFB27D"/>
<path d="M262.381 216.946C262.381 216.946 260.889 218.572 261.22 218.94L262.298 218.144L262.381 216.946Z" fill="#FFB27D"/>
<circle cx="129" cy="94" r="19" fill="#00B37B"/>
<path d="M325.629 273.63H4.37109" stroke="#2C3539" stroke-width="3" stroke-miterlimit="10" stroke-linecap="round"/>
</g>
<defs>
<clipPath id="clip0">
<rect width="330" height="275" fill="white"/>
</clipPath>
</defs>
</svg>
