<svg width="330" height="275" viewBox="0 0 330 275" fill="none" xmlns="http://www.w3.org/2000/svg">
<g clip-path="url(#clip0)">
<path d="M325.629 273.63H4.37109" stroke="#2C3539" stroke-width="3" stroke-miterlimit="10" stroke-linecap="round"/>
<path opacity="0.33" d="M101.261 229.242L61.9131 259.075L142.747 251.311L221.512 263.678L284.288 252.749L243.715 219.144L101.261 229.242Z" fill="#00B37B"/>
<path d="M230.456 176.495L195.85 179.81L197.53 184.992L197.618 185.264L197.53 184.992L196.711 182.468L196.709 182.464L195.848 179.81L159.137 176.621L120.337 179.945L53 249.846L140.428 235.036L218.463 249.55L287 234.775L230.456 176.495ZM144.72 221.631L145.41 219.477L144.72 221.631ZM152.135 198.479L154.826 190.078L152.135 198.479ZM199.442 190.885L202.279 199.635L199.442 190.885ZM206.119 211.477L205.288 208.915L205.144 208.47L205.29 208.915L206.128 211.502L206.119 211.477Z" fill="#BDBDBD"/>
<path d="M159.137 172.448L157.931 176.211L157.753 176.769L156.834 179.641L152.135 194.306L149.862 201.409L149.271 203.25L145.999 213.469L144.72 217.458L140.428 230.864L53 245.673L120.337 175.772L159.137 172.448Z" fill="#EEEEEE"/>
<path d="M287 230.604L218.463 245.379L212.316 226.419L211.451 223.752L207.177 210.576L206.539 208.604L205.288 204.742L204.724 203.012L203.807 200.176L199.442 186.712L197.839 181.772L197.532 180.821L195.85 175.637L230.456 172.322L287 230.604Z" fill="#EEEEEE"/>
<path d="M206.119 207.304L205.288 204.742L199.442 186.714V186.712L199.032 185.446L197.532 180.821L196.713 178.297L196.711 178.291L195.85 175.637L159.138 172.448L157.818 176.569L157.753 176.769L157.337 178.067L152.137 194.306H152.135L150.85 198.325L144.722 217.458H144.72L140.428 230.864L218.463 245.379L206.119 207.304Z" fill="#E0E0E0"/>
<path d="M260.402 214.937L237.441 200.78L246.345 197.714L230.736 188.716L236.624 186.473L228.724 182.311L231.064 180.81L229.28 180.108L227.109 181.462L222.186 178.867L227.052 176.094L225.442 175.492L220.738 178.106L217.047 176.161L215.791 176.556L219.727 178.668L214.69 181.465L211.351 177.016L209.634 177.087L213.081 181.866L201.262 181.072L201.113 177.697L199.308 177.561L199.358 180.944L197.536 180.821L197.843 181.772L199.373 181.876L199.446 186.712L203.811 200.176L204.293 198.79L220.542 192.599L224.376 200.79L204.728 203.012L205.29 204.744L205.363 204.748L225.155 202.462L227.042 206.489L206.539 208.604L207.177 210.574L227.93 208.386L234.664 222.766L211.451 223.752L212.316 226.42L252.536 224.669L250.574 222.091L237.708 222.638L230.778 208.71L259.891 216.515L260.402 214.937ZM201.301 182.006L212.352 182.762L201.602 188.732L201.301 182.006ZM203.953 197.016L201.75 190.511L206.123 188.02L211.155 194.333L203.953 197.016ZM212.929 193.675L207.571 187.194L214.197 183.418L219.757 191.132L212.929 193.675ZM215.565 182.639L221.173 179.444L233.462 186.033L221.463 190.498L215.565 182.639ZM229.276 189.272L242.418 196.997L235.22 199.411L222.786 191.744L229.276 189.272ZM226.703 200.527L223.287 193.662L233.049 199.81L226.703 200.527ZM229.783 206.714L227.529 202.188L235.385 201.281L254.208 213.134L229.783 206.714ZM157.425 175.927L154.617 177.015L152.741 174.79L139.248 179.613L137.25 176.593L135.472 177.02L139.216 182.984L129.273 186.839L125.047 178.783L123.124 179.264L127.142 187.479L119.907 189.052L119.13 185.861L116.919 186.409L117.581 189.558L113.998 190.337L113.948 191.462L117.799 190.613L118.795 195.355L105.697 198.682L105.722 207.523L94.4344 211.072L94.3097 212.837L105.726 209.18L105.733 212.549L87.3359 219.106L87.2151 221.131L105.739 214.402L105.751 219.06L77.2185 230.575L77.021 233.022L122.153 214.426L119.443 225.064L121.259 225.944L144.716 217.46L145.994 213.473L143.872 205.477L149.266 203.252L149.855 201.411L149.492 201.402L143.328 203.891L140.911 197.906L152.129 194.312L156.826 179.646L155.238 177.764L157.745 176.775L158.438 176.503L157.925 176.217L157.425 175.927ZM151.799 176.029L153.083 177.609L141.018 182.286L139.764 180.393L151.799 176.029ZM108.451 199.315L119.054 196.577L120.381 202.907L108.714 206.577L108.451 199.315ZM108.775 208.2L120.692 204.382L121.246 207.018L108.892 211.421L108.775 208.2ZM109.118 217.698L108.957 213.232L121.585 208.645L122.364 212.352L109.118 217.698ZM120.162 190.089L127.616 188.446L132.781 199.006L123.08 202.059L120.162 190.089ZM138.517 198.669L140.827 204.899L125.301 211.166L123.432 203.503L138.517 198.669ZM141.298 206.535L143.427 215.677L123.189 222.834L125.377 213.098L141.298 206.535ZM135.241 198.23L130.477 189.142L147.003 194.531L135.241 198.23ZM151.504 193.113L149.644 193.698L144.931 192.195L152.603 189.813L151.504 193.113ZM153.067 188.43L142.873 191.541L137.083 189.694L155.288 181.77L153.067 188.43ZM155.467 180.556L135.374 189.148L130.381 187.556L153.694 178.37L155.467 180.556Z" fill="#FFCC80"/>
<path d="M211.45 223.752L195.38 224.436L199.929 211.341L207.177 210.575L206.538 208.606L200.669 209.21L202.252 204.654L205.227 204.742L205.288 204.744L204.726 203.012L204.657 203.02L202.839 202.966L203.807 200.178L199.442 186.714L199.482 189.404L191.267 187.784L190.89 181.296L197.838 181.772L197.532 180.821L190.838 180.37L190.692 177.875L188.903 177.81L188.974 180.245L182.587 179.816L183.475 177.189L181.737 177.024L180.732 179.756L170.762 179.931L174.41 176.347L172.853 176.023L168.71 179.967L164.884 180.034L165.829 175.645L164.116 175.639L163.031 180.067L157.279 180.167L156.838 179.643L152.141 194.31L152.392 194.229L159.325 194.879L156.796 201.618L149.868 201.413L149.279 203.254L149.707 203.077L156.174 203.273L151.949 214.53L146.408 214.992L146.005 213.473L144.728 217.46L145.219 217.281L164.817 215.604L163.783 225.953L166.915 226.203L170.102 216.769L192.522 227.064L193.343 226.82L193.431 227.246L212.319 226.425L211.45 223.752ZM189.858 202.584L175.036 202.149L176.936 196.528L189.505 197.708L189.858 202.584ZM189.432 196.248L177.404 195.14L180.235 186.762L189.209 188.562L189.432 196.248ZM182.282 180.708L188.998 181.166L189.177 187.372L180.6 185.68L182.282 180.708ZM170.152 180.853L180.392 180.673L178.639 185.444L169.861 184.992L170.152 180.853ZM169.784 186.067L178.244 186.51L175.147 194.931L169.197 194.384L169.784 186.067ZM169.096 195.792L174.639 196.312L172.519 202.074L168.66 201.961L169.096 195.792ZM164.68 180.949L168.28 180.886L167.88 184.89L163.875 184.683L164.68 180.949ZM157.392 181.08L162.803 180.984L161.92 184.585L156.412 184.301L157.392 181.08ZM156.09 185.354L161.66 185.644L161.103 187.916L155.244 188.135L156.09 185.354ZM153.775 192.963L154.887 189.306L160.818 189.084L159.734 193.512L153.775 192.963ZM165.028 213.427L154.891 214.276L158.675 203.344L166.015 203.564L165.028 213.427ZM166.18 201.888L159.247 201.683L161.533 195.082L166.811 195.577L166.18 201.888ZM161.926 193.715L163.645 185.747L167.772 185.962L166.951 194.177L161.926 193.715ZM167.732 215.084L168.539 203.641L171.905 203.743L167.732 215.084ZM178.858 218.056L170.868 214.486L174.472 203.819L180.525 204.002L178.858 218.056ZM181.72 219.335L183.081 204.076L189.984 204.283L191.386 223.656L181.72 219.335ZM191.338 188.986L199.641 190.653L201.724 197.38L191.774 196.463L191.338 188.986ZM192.374 202.657L191.893 197.932L201.655 198.849L200.123 202.886L192.374 202.657ZM192.549 204.36L199.486 204.569L194.033 218.948L192.549 204.36Z" fill="#FFB74D"/>
<path d="M287 230.604V234.776L281.576 231.771L287 230.604Z" fill="#BDBDBD"/>
<path d="M53 245.673V249.846L61.9129 244.164L53 245.673Z" fill="#BDBDBD"/>
<path d="M137.482 170.938C137.483 170.94 137.485 170.941 137.486 170.942C137.599 171.075 137.715 171.201 137.834 171.325C137.873 171.365 137.914 171.403 137.953 171.443C138.036 171.525 138.12 171.607 138.206 171.685C138.254 171.728 138.301 171.77 138.35 171.812C138.432 171.883 138.515 171.953 138.6 172.02C138.65 172.059 138.699 172.098 138.75 172.137C138.839 172.204 138.928 172.269 139.019 172.331C139.067 172.364 139.113 172.397 139.161 172.429C139.269 172.501 139.379 172.569 139.489 172.635C139.521 172.653 139.551 172.674 139.583 172.693C139.73 172.777 139.879 172.857 140.029 172.932C140.042 172.939 140.055 172.945 140.069 172.95C140.205 173.017 140.343 173.08 140.482 173.138C140.522 173.155 140.561 173.17 140.601 173.186C140.717 173.232 140.832 173.276 140.949 173.317C140.994 173.333 141.038 173.348 141.083 173.363C141.2 173.401 141.317 173.437 141.434 173.47C141.476 173.481 141.517 173.494 141.559 173.504C141.69 173.539 141.822 173.571 141.955 173.598C141.982 173.604 142.01 173.611 142.039 173.617C142.536 173.717 143.041 173.771 143.547 173.78C143.571 173.78 143.595 173.78 143.619 173.78C143.763 173.781 143.907 173.779 144.051 173.774C144.08 173.773 144.109 173.771 144.137 173.77C144.282 173.762 144.426 173.751 144.571 173.736C144.594 173.734 144.616 173.733 144.639 173.73C146.742 173.495 148.78 172.476 150.247 170.679C163.373 154.595 191.906 117.344 191.906 97.1506C191.906 71.0508 170.627 49.3167 143.881 48.5921C141.287 48.5222 138.738 48.6525 136.245 48.9679C136.242 48.9679 136.238 48.9688 136.235 48.9688C135.162 49.1049 134.1 49.2755 133.049 49.4797C133.018 49.4854 132.987 49.4912 132.956 49.4969C132.669 49.5525 132.386 49.6129 132.102 49.6742C132.011 49.6934 131.919 49.7126 131.829 49.7327C131.565 49.7912 131.303 49.8525 131.041 49.9148C130.932 49.9407 130.823 49.9666 130.714 49.9925C130.461 50.0548 130.208 50.119 129.957 50.1851C129.842 50.2148 129.726 50.2455 129.612 50.2762C129.363 50.3432 129.116 50.4123 128.87 50.4822C128.755 50.5158 128.639 50.5493 128.525 50.5829C128.277 50.6557 128.031 50.7295 127.786 50.8062C127.676 50.8407 127.568 50.8752 127.459 50.9107C127.208 50.9912 126.958 51.0717 126.708 51.156C126.613 51.1886 126.519 51.2212 126.424 51.2538C126.162 51.3439 125.9 51.4349 125.64 51.5298C125.584 51.5499 125.529 51.571 125.473 51.5921C124.235 52.0474 123.02 52.5525 121.831 53.1027C121.751 53.1391 121.67 53.1755 121.591 53.2129C121.356 53.3231 121.124 53.4362 120.891 53.5503C120.786 53.602 120.682 53.6519 120.577 53.7046C120.355 53.8148 120.136 53.9269 119.917 54.041C119.804 54.0995 119.692 54.157 119.58 54.2164C119.366 54.3295 119.154 54.4435 118.941 54.5595C118.825 54.6228 118.711 54.686 118.596 54.7493C118.387 54.8653 118.179 54.9832 117.972 55.103C117.858 55.1691 117.745 55.2352 117.631 55.3023C117.424 55.424 117.217 55.5467 117.012 55.6713C116.903 55.7375 116.796 55.8046 116.688 55.8716C116.48 56.0001 116.271 56.1295 116.065 56.2617C115.97 56.3231 115.875 56.3854 115.781 56.4467C115.563 56.5876 115.346 56.7295 115.131 56.8742C115.086 56.9039 115.043 56.9346 114.999 56.9643C114.237 57.4809 113.49 58.0186 112.76 58.5755C112.671 58.6426 112.583 58.7096 112.494 58.7777C112.309 58.9215 112.126 59.0672 111.943 59.2138C111.834 59.301 111.725 59.3863 111.617 59.4745C111.444 59.6144 111.273 59.7572 111.102 59.9001C110.987 59.9969 110.871 60.0927 110.756 60.1905C110.591 60.3314 110.427 60.4732 110.264 60.616C110.146 60.7186 110.03 60.8211 109.913 60.9246C109.754 61.0675 109.595 61.2103 109.437 61.355C109.32 61.4623 109.203 61.5706 109.087 61.679C108.932 61.8237 108.778 61.9684 108.625 62.1151C108.509 62.2262 108.395 62.3384 108.28 62.4505C108.13 62.5981 107.979 62.7457 107.83 62.8952C107.716 63.0093 107.605 63.1243 107.493 63.2393C107.346 63.3908 107.198 63.5412 107.052 63.6946C106.943 63.8096 106.836 63.9265 106.729 64.0416C106.583 64.1978 106.436 64.354 106.292 64.5122C106.221 64.5917 106.15 64.6732 106.079 64.7527C105.781 65.0853 105.488 65.4227 105.199 65.7639C105.087 65.8952 104.975 66.0256 104.866 66.1588C104.742 66.3083 104.62 66.4607 104.498 66.6112C104.385 66.7511 104.271 66.8911 104.159 67.0329C104.04 67.1834 103.924 67.3367 103.806 67.4891C103.696 67.6339 103.584 67.7776 103.474 67.9243C103.36 68.0767 103.247 68.23 103.134 68.3843C103.025 68.5339 102.916 68.6834 102.808 68.8348C102.698 68.9882 102.59 69.1415 102.483 69.2958C102.375 69.4501 102.269 69.6045 102.163 69.7607C102.058 69.915 101.954 70.0703 101.851 70.2255C101.745 70.3846 101.641 70.5457 101.537 70.7057C101.437 70.86 101.337 71.0144 101.24 71.1696C101.135 71.3364 101.033 71.5041 100.93 71.6719C100.836 71.8243 100.743 71.9757 100.651 72.129C100.543 72.3102 100.438 72.4923 100.332 72.6744C100.249 72.8172 100.165 72.9591 100.084 73.1028C99.9553 73.331 99.8303 73.56 99.7053 73.7901C99.6289 73.9309 99.5526 74.0709 99.4772 74.2127C99.3254 74.4993 99.1756 74.7859 99.0296 75.0763C98.9628 75.2095 98.8979 75.3437 98.832 75.4779C98.7308 75.684 98.6287 75.8891 98.5304 76.0971C98.4598 76.2456 98.392 76.3961 98.3224 76.5466C98.2327 76.7411 98.142 76.9367 98.0551 77.1332C97.9864 77.2884 97.9187 77.4447 97.8519 77.6009C97.7679 77.7945 97.6848 77.9881 97.6037 78.1836C97.5379 78.3418 97.473 78.5009 97.409 78.66C97.3298 78.8555 97.2525 79.052 97.1762 79.2494C97.1141 79.4095 97.0531 79.5696 96.9929 79.7296C96.9185 79.929 96.845 80.1303 96.7725 80.3306C96.7152 80.4897 96.6579 80.6488 96.6026 80.8079C96.5301 81.0159 96.4604 81.2239 96.3917 81.4328C96.3401 81.5881 96.2886 81.7424 96.238 81.8986C96.1674 82.12 96.0996 82.3433 96.0319 82.5657C95.988 82.7104 95.9431 82.8542 95.9002 82.9999C95.8229 83.2625 95.7503 83.527 95.6778 83.7906C95.6482 83.898 95.6177 84.0044 95.5881 84.1117C95.4888 84.4826 95.3943 84.8555 95.3046 85.2302C95.2817 85.3261 95.2607 85.4229 95.2388 85.5197C95.1729 85.8005 95.108 86.0823 95.0479 86.365C95.0174 86.5088 94.9897 86.6526 94.9601 86.7964C94.9114 87.0341 94.8628 87.2727 94.8179 87.5114C94.7883 87.6686 94.7606 87.8277 94.733 87.9858C94.6929 88.2139 94.6528 88.4411 94.6156 88.6701C94.5889 88.834 94.564 88.9989 94.5392 89.1628C94.5049 89.388 94.4715 89.6133 94.4409 89.8395C94.418 90.0072 94.3961 90.1749 94.3751 90.3427C94.3464 90.5679 94.3197 90.7941 94.2949 91.0212C94.2758 91.189 94.2577 91.3577 94.2405 91.5254C94.2176 91.7564 94.1966 91.9874 94.1766 92.2184C94.1622 92.3832 94.1479 92.549 94.1355 92.7148C94.1174 92.9554 94.1021 93.1979 94.0878 93.4394C94.0783 93.5966 94.0678 93.7538 94.0601 93.912C94.0468 94.1784 94.0372 94.4458 94.0286 94.7142C94.0239 94.8474 94.0172 94.9806 94.0143 95.1148C94.0057 95.5174 94 95.9199 94 96.3244C94 97.3078 94.0668 98.3295 94.1956 99.3857C95.4249 109.458 102.28 122.602 110.514 135.244C111.008 136.003 111.507 136.76 112.01 137.514C112.49 138.234 112.974 138.953 113.461 139.667C114.347 140.969 115.243 142.26 116.144 143.537C116.745 144.388 117.347 145.233 117.95 146.07C118.377 146.662 118.803 147.248 119.229 147.832C119.581 148.315 119.934 148.794 120.286 149.272C120.713 149.849 121.139 150.424 121.562 150.991C122.761 152.594 123.95 154.158 125.12 155.674C125.538 156.216 125.953 156.749 126.365 157.278C130.561 162.656 134.446 167.358 137.482 170.938Z" fill="#008458"/>
<path d="M143.88 184.394C138.344 184.534 133.839 189.073 133.839 194.53C133.839 199.987 138.344 204.261 143.88 204.078C149.393 203.896 153.844 199.359 153.844 193.945C153.844 188.529 149.393 184.253 143.88 184.394Z" fill="#008458"/>
<path d="M196 97.1859C196 117.347 167.56 154.536 154.478 170.593C151.202 174.615 145.055 174.748 141.754 170.851C128.405 155.087 98.416 117.3 98.416 96.3617C98.416 69.2995 120.91 47.9709 148.131 48.708C174.79 49.4307 196 71.1293 196 97.1859Z" fill="#00B37B"/>
<g opacity="0.2">
<path opacity="0.2" d="M147.916 150.987C151.007 130.885 164.364 124.432 162.082 105.574C159.444 83.7846 139.818 77.6734 139.341 58.1333C139.263 54.9867 139.7 51.9656 140.52 49.0845C116.835 52.0835 98.416 71.893 98.416 96.3615C98.416 117.3 128.405 155.087 141.753 170.851C143.696 173.147 146.629 174.043 149.38 173.57C147.016 164.82 146.944 157.305 147.916 150.987Z" fill="#00B37B"/>
</g>
<path d="M158.062 193.82C158.062 199.226 153.625 203.755 148.131 203.937C142.613 204.12 138.123 199.852 138.123 194.404C138.123 188.957 142.613 184.426 148.131 184.285C153.626 184.145 158.062 188.414 158.062 193.82Z" fill="#00B37B"/>
<path fill-rule="evenodd" clip-rule="evenodd" d="M163.386 125.203C174.006 119.632 181.188 108.612 181.188 95.9572C181.188 77.7465 166.316 62.6594 147.729 62.252C128.87 61.8408 113.378 76.6577 113.378 95.3543C113.378 108.704 121.275 120.216 132.657 125.681C132.817 119.173 132.977 112.702 133.137 106.283C129.363 104.916 126.555 99.9169 126.555 93.9722C126.555 86.9918 130.427 81.3876 135.187 81.4557C139.931 81.5237 143.762 87.2007 143.762 94.1352C143.762 100.042 140.982 104.983 137.227 106.305C137.402 113.322 137.578 120.459 137.753 127.646C140.915 128.584 144.265 129.081 147.729 129.067C151.469 129.052 155.059 128.44 158.407 127.323C158.576 120.378 158.744 113.474 158.913 106.63C156.153 106.243 154.356 105.135 153.382 104.291C152.738 103.734 152.222 102.993 152.182 102.214C151.855 95.8738 153.584 82.2272 153.584 82.2272L154.8 82.2569V97.1639L157.48 97.1869V82.3097L159.155 82.348V97.2013L162.169 97.2243V82.3892L163.844 82.4007V97.2396L165.519 97.254V82.4122L167.651 82.4266C167.651 82.4266 169.614 96.03 169.293 102.323C169.253 103.097 168.951 103.828 168.316 104.374C167.357 105.199 165.623 106.277 162.933 106.643C163.084 112.754 163.235 118.957 163.386 125.203Z" fill="white"/>
</g>
<defs>
<clipPath id="clip0">
<rect width="330" height="275" fill="white"/>
</clipPath>
</defs>
</svg>
