<svg width="18" height="24" viewBox="0 0 18 24" fill="none" xmlns="http://www.w3.org/2000/svg">
<path d="M17.419 12.3542C15.6524 7.76319 9.36216 7.51563 10.8813 0.842839C10.9938 0.347725 10.4649 -0.034863 10.0373 0.223947C5.95262 2.632 3.0157 7.45937 5.48001 13.7833C5.68256 14.3009 5.07492 14.7848 4.63607 14.4472C2.59935 12.9056 2.38555 10.6889 2.56559 9.10225C2.63311 8.51711 1.86793 8.2358 1.54161 8.71966C0.776429 9.88993 0 11.7804 0 14.6273C0.427599 20.9287 5.75008 22.8642 7.66302 23.1117C10.3974 23.4606 13.3568 22.9542 15.4836 21.0075C17.8241 18.8357 18.6793 15.3699 17.419 12.3542ZM6.97661 18.0143C8.59698 17.6205 9.42968 16.4502 9.65473 15.415C10.0261 13.8058 8.57448 12.2305 9.55345 9.68738C9.92479 11.7916 13.2331 13.1082 13.2331 15.4037C13.3231 18.2506 10.2399 20.6924 6.97661 18.0143Z" fill="#2C3539"/>
</svg>
