<svg width="24" height="22" viewBox="0 0 24 22" fill="none" xmlns="http://www.w3.org/2000/svg">
<path d="M0 19.3406H24L21.6 21.7406H2.4L0 19.3406ZM3.6 3.74062H4.8V4.94062H3.6V3.74062ZM3.6 1.34062H4.8V2.54062H3.6V1.34062ZM8.4 1.34062V2.54062H6V1.34062H8.4ZM8.4 4.94062H6V3.74062H8.4V4.94062ZM4.8 14.8166C4.368 14.9486 3.972 15.1526 3.6 15.3806V6.14062H4.8V14.8166ZM2.4 16.3646C1.944 16.8926 1.584 17.4806 1.392 18.1406H21.576C21.588 17.9486 21.612 17.7446 21.612 17.5406C21.612 13.8926 18.66 10.9406 15.012 10.9406C12.264 10.9406 9.912 12.6206 8.916 15.0206C8.208 14.7206 7.428 14.5406 6.6 14.5406C6.396 14.5406 6.204 14.5646 6 14.5886V6.14062H8.4C9.636 6.21262 10.68 4.98862 10.8 3.74062H22.8V2.54062H10.8C10.68 1.28062 9.636 0.176625 8.4 0.140625H1.2V1.34062H2.4V2.54062H1.2V3.74062H2.4V4.94062H1.2V6.14062H2.4V16.3646Z" fill="#2C3539"/>
</svg>
