<svg width="29" height="28" viewBox="0 0 29 28" fill="none" xmlns="http://www.w3.org/2000/svg">
<path fill-rule="evenodd" clip-rule="evenodd" d="M16.1332 3.87231C14.8445 3.39902 13.4522 3.14062 12 3.14062C5.376 3.14062 0 8.51663 0 15.1406C0 21.7646 5.376 27.1406 12 27.1406C18.624 27.1406 24 21.7646 24 15.1406C24 14.5307 23.9544 13.9314 23.8665 13.3458L21.5575 14.2339C21.5856 14.5324 21.6 14.8348 21.6 15.1406C21.6 17.6366 20.64 19.9046 19.08 21.6086C18.768 20.6366 17.88 19.9406 16.8 19.9406H15.6V16.3406C15.6 15.6806 15.06 15.1406 14.4 15.1406H7.2V12.7406H9.6C10.26 12.7406 10.8 12.2006 10.8 11.5406V9.14062H13.2C14.52 9.14062 15.6 8.06063 15.6 6.74063V6.24863C15.8529 6.35133 16.1004 6.46446 16.3421 6.58748L16.1332 3.87231ZM2.4 15.1406C2.4 20.0366 6.06 24.0686 10.8 24.6566V22.3406C9.48 22.3406 8.4 21.2606 8.4 19.9406V18.7406L2.652 12.9926C2.496 13.6886 2.4 14.3966 2.4 15.1406Z" fill="#2C3539"/>
<path fill-rule="evenodd" clip-rule="evenodd" d="M17.2227 4.72306C18.1821 2.18963 21.007 0.916559 23.5404 1.87594C26.0739 2.83532 27.3469 5.66026 26.3876 8.19369C25.0861 11.6305 18.5824 14.9686 18.5824 14.9686C18.5824 14.9686 15.9212 8.15988 17.2227 4.72306ZM23.0446 3.18521C21.2378 2.501 19.2162 3.41207 18.532 5.21886C17.8254 7.08457 18.6561 10.6626 19.3558 12.9261C21.4105 11.6907 24.3643 9.58323 25.0783 7.69788C25.7625 5.8911 24.8514 3.86942 23.0446 3.18521ZM23.442 7.07849C23.0997 7.98235 22.0895 8.4376 21.1857 8.09532C20.2818 7.75304 19.8266 6.74284 20.1689 5.83898C20.5111 4.93512 21.5213 4.47987 22.4252 4.82215C23.3291 5.16443 23.7843 6.17463 23.442 7.07849Z" fill="#2C3539"/>
</svg>
